<?xml version="1.0" encoding="UTF-8"?>
<!DOCTYPE svg PUBLIC "-//W3C//DTD SVG 1.0//EN" "http://www.w3.org/TR/2001/REC-SVG-20010904/DTD/svg10.dtd">
<!-- Creator: CorelDRAW -->
<svg xmlns="http://www.w3.org/2000/svg" xml:space="preserve" width="86.6245mm" height="86.232mm" version="1.0" style="shape-rendering:geometricPrecision; text-rendering:geometricPrecision; image-rendering:optimizeQuality; fill-rule:evenodd; clip-rule:evenodd"
viewBox="0 0 3319.39 3304.35"
 xmlns:xlink="http://www.w3.org/1999/xlink"
 xmlns:xodm="http://www.corel.com/coreldraw/odm/2003">
 <defs>
  <style type="text/css">
   <![CDATA[
    .str0 {stroke:#BAD44C;stroke-width:38.32;stroke-miterlimit:22.9256}
    .str2 {stroke:#6E6E6E;stroke-width:40.55;stroke-miterlimit:22.9256}
    .str1 {stroke:#BDBFC1;stroke-width:40.55;stroke-miterlimit:22.9256}
    .fil4 {fill:none}
    .fil2 {fill:#4A4A4A}
    .fil0 {fill:#4A4A4A}
    .fil5 {fill:#65AD4F}
    .fil3 {fill:#6DBE4F}
    .fil6 {fill:#BDBFC1}
    .fil7 {fill:#FEFEFE}
    .fil1 {fill:#E6E6E6;fill-rule:nonzero}
   ]]>
  </style>
   <clipPath id="id0">
    <path d="M1659.69 20.28c905.42,0 1639.41,730.63 1639.41,1631.89 0,901.27 -733.99,1631.89 -1639.41,1631.89 -905.42,0 -1639.42,-730.63 -1639.42,-1631.89 0,-901.27 733.99,-1631.89 1639.42,-1631.89z"/>
   </clipPath>
    <clipPath id="id1">
     <path d="M500.51 2806.16c77.27,-132.11 179.49,-239.25 250.46,-318.03 84.27,-93.56 268.44,-191.34 297.64,-213.24 29.2,-21.9 49.61,-33.16 35.02,-45.77 -14.59,-12.61 -25.47,-35.17 -58.64,-72.33 -33.18,-37.16 -58.94,-97.84 -62.65,-140.8 -3.71,-42.96 5.22,-55.5 23.8,-70.76 18.58,-15.26 38.54,-26.04 88.34,6.4 49.8,32.43 67.04,132.82 108.18,170.64 1.78,1.63 20.92,35.82 47.2,66.53 13.43,15.7 35.17,-3.15 63.93,-6.51 71.99,-8.4 176.44,-36.67 220.05,-40.93 61.05,-5.97 496.49,18.58 521.04,17.92 24.55,-0.66 27.2,-3.32 45.78,-45.12 18.58,-41.81 53.09,-122.76 82.95,-168.55 29.86,-45.79 55.08,-56.4 83.61,-53.75 28.53,2.65 60.39,18.58 69.68,49.77 9.29,31.19 -3.99,77.64 -17.92,118.78 -13.93,41.14 -71.37,144.51 -62.55,175.06 8.92,30.93 216.66,123.39 226.68,129.43 145.31,87.58 206.05,106.85 316.2,285.35 25.62,41.51 48.23,84.09 68.32,126.55 -298.65,312.47 -720.43,507.27 -1187.92,507.27 -452.68,0 -862.51,-182.63 -1159.18,-477.91z"/>
    </clipPath>
     <clipPath id="id2">
      <path d="M2846.37 2774.18l-0.94 -1.98 -3.36 -6.98 -0.3 -0.62 -3.57 -7.32 -0.84 -1.7 -2.89 -5.82 -1.76 -3.51 -2.49 -4.94 -2.8 -5.49 -0.92 -1.79 -3.34 -6.44 -0.95 -1.81 -3.81 -7.22 -0.9 -1.69 -3.59 -6.68 -0.61 -1.13 -3.77 -6.91 -1.3 -2.36 -4.01 -7.2 -0.26 -0.47c-1.44,-2.57 -2.9,-5.13 -4.36,-7.69l-0.53 -0.93c-3.06,-5.34 -6.17,-10.67 -9.32,-15.99l-0.46 -0.77 -4.74 -7.91 -0.25 -0.4c-1.66,-2.73 -3.31,-5.45 -4.99,-8.17 -110.15,-178.5 -170.88,-197.77 -316.2,-285.35 -10.02,-6.04 -217.76,-98.5 -226.68,-129.43 -8.81,-30.54 48.62,-133.92 62.55,-175.06 13.93,-41.14 27.21,-87.59 17.92,-118.78 -9.29,-31.19 -41.14,-47.11 -69.68,-49.77 -28.53,-2.65 -53.75,7.96 -83.61,53.75 -29.86,45.79 -64.37,126.74 -82.95,168.55 -18.58,41.81 -21.23,44.46 -45.78,45.12 -24.55,0.66 -460,-23.88 -521.04,-17.92 -43.61,4.26 -148.06,32.53 -220.05,40.93 -28.76,3.36 -50.49,22.21 -63.93,6.51 -26.28,-30.71 -45.42,-64.9 -47.2,-66.53 -41.14,-37.82 -58.38,-138.21 -108.18,-170.64 -49.8,-32.43 -69.76,-21.66 -88.34,-6.4 -18.58,15.26 -27.52,27.8 -23.8,70.76 3.71,42.96 29.48,103.64 62.65,140.8 33.18,37.16 44.05,59.72 58.64,72.33 14.59,12.61 -5.82,23.87 -35.02,45.77 -29.2,21.9 -213.37,119.67 -297.64,213.24 -13.51,14.99 -28.15,31.02 -43.54,48.06l-6.01 6.66 -1.5 1.66 -2.43 2.71 -1 1.12 -2.74 3.06 -6.2 6.94 -6.56 7.37 -7.86 8.89 -0.19 0.21c-8.98,10.2 -18.1,20.7 -27.29,31.49l-1.85 2.18 -2.9 3.42 -0.8 0.95c-2.61,3.09 -5.23,6.2 -7.84,9.33l-0.06 0.07c-3.92,4.69 -7.84,9.45 -11.78,14.24l-0.81 0.99c-9.43,11.54 -18.88,23.38 -28.28,35.52l-0.86 1.11 -3.46 4.49 -0.55 0.72c-30.07,39.26 -59.46,81.59 -85.93,126.84 296.67,295.28 706.5,477.91 1159.18,477.91 467.49,0 889.27,-194.8 1187.92,-507.27l-1.24 -2.62z"/>
     </clipPath>
     <clipPath id="id3">
      <path d="M500.51 2806.16c77.27,-132.11 179.49,-239.25 250.46,-318.03 84.27,-93.56 268.44,-191.34 297.64,-213.24 29.2,-21.9 49.61,-33.16 35.02,-45.77 -14.59,-12.61 -25.47,-35.17 -58.64,-72.33 -33.18,-37.16 -58.94,-97.84 -62.65,-140.8 -3.71,-42.96 5.22,-55.5 23.8,-70.76 18.58,-15.26 38.54,-26.04 88.34,6.4 49.8,32.43 67.04,132.82 108.18,170.64 1.78,1.63 20.92,35.82 47.2,66.53 13.43,15.7 35.17,-3.15 63.93,-6.51 71.99,-8.4 176.44,-36.67 220.05,-40.93 61.05,-5.97 496.49,18.58 521.04,17.92 24.55,-0.66 27.2,-3.32 45.78,-45.12 18.58,-41.81 53.09,-122.76 82.95,-168.55 29.86,-45.79 55.08,-56.4 83.61,-53.75 28.53,2.65 60.39,18.58 69.68,49.77 9.29,31.19 -3.99,77.64 -17.92,118.78 -13.93,41.14 -71.37,144.51 -62.55,175.06 8.92,30.93 216.66,123.39 226.68,129.43 145.31,87.58 206.05,106.85 316.2,285.35 25.62,41.51 48.23,84.09 68.32,126.55 -298.65,312.47 -720.43,507.27 -1187.92,507.27 -452.68,0 -862.51,-182.63 -1159.18,-477.91z"/>
     </clipPath>
    <clipPath id="id4">
     <path d="M1659.69 20.28c905.42,0 1639.41,730.63 1639.41,1631.89 0,901.27 -733.99,1631.89 -1639.41,1631.89 -905.42,0 -1639.42,-730.63 -1639.42,-1631.89 0,-901.27 733.99,-1631.89 1639.42,-1631.89z"/>
    </clipPath>
    <clipPath id="id5">
     <path d="M2847.62 2776.79c-20.08,-42.45 -42.71,-85.03 -68.32,-126.54 -110.15,-178.5 -170.88,-197.77 -316.2,-285.35 -10.02,-6.04 -217.76,-98.5 -226.68,-129.43 -8.81,-30.54 48.62,-133.92 62.55,-175.06 13.93,-41.14 27.21,-87.59 17.92,-118.78 -9.29,-31.19 -41.14,-47.11 -69.68,-49.77 -28.53,-2.65 -53.75,7.96 -83.61,53.75 -29.86,45.79 -64.37,126.74 -82.95,168.55 -18.58,41.81 -21.23,44.46 -45.78,45.12 -24.55,0.66 -460,-23.88 -521.04,-17.92 -43.61,4.26 -148.06,32.53 -220.05,40.93 -28.76,3.36 -50.49,22.21 -63.93,6.51 -26.28,-30.71 -45.42,-64.9 -47.2,-66.53 -41.14,-37.82 -58.38,-138.21 -108.18,-170.64 -49.8,-32.43 -69.76,-21.66 -88.34,-6.4 -18.58,15.26 -27.52,27.8 -23.8,70.76 3.71,42.96 29.48,103.64 62.65,140.8 33.18,37.16 44.05,59.72 58.64,72.33 14.59,12.61 -5.82,23.87 -35.02,45.77 -29.2,21.9 -213.37,119.67 -297.64,213.24 -70.96,78.79 -173.19,185.91 -250.46,318.03 296.67,295.28 706.5,477.91 1159.18,477.91 467.49,0 889.27,-194.8 1187.92,-507.28z"/>
    </clipPath>
    <clipPath id="id6">
     <path d="M1659.69 20.28c905.42,0 1639.41,730.63 1639.41,1631.89 0,901.27 -733.99,1631.89 -1639.41,1631.89 -905.42,0 -1639.42,-730.63 -1639.42,-1631.89 0,-901.27 733.99,-1631.89 1639.42,-1631.89z"/>
    </clipPath>
 </defs>
 <g id="Capa_x0020_1">
  <metadata id="CorelCorpID_0Corel-Layer"/>
  <path class="fil0" d="M1659.69 20.28c905.42,0 1639.41,730.63 1639.41,1631.89 0,901.27 -733.99,1631.89 -1639.41,1631.89 -905.42,0 -1639.42,-730.63 -1639.42,-1631.89 0,-901.27 733.99,-1631.89 1639.42,-1631.89z"/>
  <g style="clip-path:url(#id0)">
   <g id="_3065264776816">
    <polygon id="_1" class="fil1" points="728.32,653.99 1104.7,970.18 728.32,1287.14 641.84,1198.94 918.42,971.32 641.84,742.18 "/>
    <polygon id="_2" class="fil1" points="1161.66,1503.13 1161.66,1395.71 1790.23,1395.71 1790.23,1503.13 "/>
    <path class="fil2" d="M2851.27 2784.57c-248.27,263.2 -582.06,444.89 -955.67,499.5l-120.09 13.13 -116.59 4.13 -120.43 -4.41 -116.26 -12.85c-359.22,-52.51 -681.64,-222.48 -926.62,-469.44 77.8,-136.01 182.89,-246.04 255.36,-326.5 84.27,-93.56 268.44,-191.34 297.64,-213.24 29.2,-21.9 49.61,-33.16 35.02,-45.77 -14.59,-12.61 -25.47,-35.17 -58.64,-72.33 -33.18,-37.16 -58.94,-97.84 -62.65,-140.8 -3.71,-42.96 5.22,-55.5 23.8,-70.76 18.58,-15.26 38.54,-26.04 88.34,6.4 49.8,32.43 67.04,132.82 108.18,170.64 1.78,1.63 20.92,35.82 47.2,66.53 13.43,15.7 35.17,-3.15 63.93,-6.51 71.99,-8.4 176.44,-36.67 220.05,-40.93 61.05,-5.97 496.49,18.58 521.04,17.92 24.55,-0.66 27.2,-3.32 45.78,-45.12 18.58,-41.81 53.09,-122.76 82.95,-168.55 29.86,-45.79 55.08,-56.4 83.61,-53.75 28.53,2.65 60.39,18.58 69.68,49.77 9.29,31.19 -3.99,77.64 -17.92,118.78 -13.93,41.14 -71.37,144.51 -62.55,175.06 8.92,30.93 216.66,123.39 226.68,129.43 145.31,87.58 206.05,106.85 316.2,285.35 27.18,44.05 50.98,89.3 71.97,134.32z"/>
   </g>
   <g style="clip-path:url(#id1)">
    <g>
     <path id="_1_0" class="fil3" d="M2980.04 3150.34c-35.82,-123.41 -90.59,-321.6 -200.75,-500.1 -110.15,-178.5 -170.88,-197.77 -316.2,-285.35 -10.02,-6.04 -217.76,-98.5 -226.68,-129.43 -8.81,-30.54 48.62,-133.92 62.55,-175.06 13.93,-41.14 27.21,-87.59 17.92,-118.78 -9.29,-31.19 -41.14,-47.11 -69.68,-49.77 -28.53,-2.65 -53.75,7.96 -83.61,53.75 -29.86,45.79 -64.37,126.74 -82.95,168.55 -18.58,41.81 -21.23,44.46 -45.78,45.12 -24.55,0.66 -460,-23.88 -521.04,-17.92 -43.61,4.26 -148.06,32.53 -220.05,40.93 -28.76,3.36 -50.49,22.21 -63.93,6.51 -26.28,-30.71 -45.42,-64.9 -47.2,-66.53 -41.14,-37.82 -58.38,-138.21 -108.18,-170.64 -49.8,-32.43 -69.76,-21.66 -88.34,-6.4 -18.58,15.26 -27.52,27.8 -23.8,70.76 3.71,42.96 29.48,103.64 62.65,140.8 33.18,37.16 44.05,59.72 58.64,72.33 14.59,12.61 -5.82,23.87 -35.02,45.77 -29.2,21.9 -213.37,119.67 -297.64,213.24 -84.27,93.56 -212.63,227.08 -290.93,394.96 -40.57,86.98 -72.76,146.97 -97.24,265.64 -15.29,74.13 -21.73,135.35 -12.42,135.35 323.72,0 2254.45,0 2505.3,0 59.76,0 93.89,0 111.75,0 17.2,0 17.87,-115.56 12.6,-133.72z"/>
    </g>
    <g style="clip-path:url(#id2)">
     <g>
      <path id="_2_1" class="fil4 str0" d="M324.63 5511.56c14.15,53.13 22.22,158.86 213.88,224.08 191.65,65.21 566.88,89.9 793.9,94.94 227.01,5.05 305.81,-9.56 380.43,-14.38 74.62,-4.82 145.05,0.13 190.98,-0.87 45.93,-1 67.36,-7.96 272.37,-26.63 205,-18.68 593.58,-49.08 803.94,-137.35 210.36,-88.27 242.5,-234.41 261.49,-548.77 18.99,-314.36 24.84,-796.92 -12.98,-1052.22 -37.83,-255.3 -119.33,-283.34 -193.47,-336.02 -74.14,-52.68 -140.92,-130.01 -252.47,-168.7 -111.56,-38.69 -267.9,-38.74 -541.29,-42.66 -273.4,-3.92 -663.85,-11.71 -958.33,16.58 -294.49,28.29 -493.01,92.65 -663,155.85 -169.99,63.2 -311.44,125.23 -455.97,198.24 -144.53,73 -292.14,156.98 -354.52,371.26 -62.38,214.27 -39.52,558.84 26.19,771.81 65.71,212.97 174.28,294.36 253.8,345.87 79.52,51.51 129.99,73.15 165.34,84.24 35.35,11.08 55.59,11.61 69.74,64.74z"/>
      <path class="fil5" d="M2954.41 3342.5c-206.28,-43.8 -562.48,-86.57 -837.27,-115.59 -274.8,-29.02 -468.17,-44.3 -646.98,-50.21 -178.82,-5.91 -343.06,-2.45 -499.04,3.88 -155.97,6.33 -303.67,15.53 -472.76,33.03 -169.1,17.5 -359.59,43.3 -463.57,81.22 -103.99,37.92 -121.46,87.97 -75.04,149.08 46.42,61.11 156.74,133.28 214.02,199.29 57.28,66.01 61.53,125.86 501.68,155.82 440.15,29.96 1316.21,30.03 1832.8,4.59 516.59,-25.44 673.71,-76.37 741.33,-135.23 67.61,-58.86 45.72,-125.64 6.6,-181.44 -39.13,-55.81 -95.49,-100.63 -301.77,-144.43z"/>
      <path class="fil3 str0" d="M295.1 3697.18c77.27,14.57 189.46,28.41 312.23,38.53 122.77,10.12 256.11,16.51 392.05,24.43 135.94,7.92 274.48,17.36 547.84,16.83 273.36,-0.53 681.55,-11.04 932.13,-32.15 250.58,-21.11 343.55,-52.82 414.43,-74.48 70.88,-21.67 119.66,-33.31 137.25,-68.83 17.6,-35.53 4.01,-94.94 63.84,-194.61 59.83,-99.67 193.09,-239.58 236.4,-421.14 43.31,-181.56 -3.33,-404.77 -108.9,-484.38 -105.57,-79.62 -270.06,-15.66 -442.37,-40.94 -172.32,-25.29 -352.46,-139.82 -480.07,-212.19 -127.61,-72.38 -202.69,-102.59 -264.9,-114.92 -62.21,-12.33 -111.56,-6.78 -185.3,-9.61 -73.75,-2.83 -171.9,-14.03 -267.57,-10.73 -95.67,3.3 -188.85,21.12 -279.03,44.72 -90.18,23.6 -177.35,52.98 -251.91,86.26 -74.57,33.28 -136.53,70.46 -259.12,148.38 -122.6,77.92 -305.83,196.58 -449.08,300.88 -143.26,104.3 -246.53,194.25 -328.98,300.02 -82.45,105.77 -144.08,227.37 -149.91,336.47 -5.83,109.1 44.14,205.71 98.27,257.35 54.13,51.64 112.44,58.3 162.76,69.28 50.32,10.98 92.66,26.27 169.93,40.84z"/>
     </g>
    </g>
    <g style="clip-path:url(#id3)">
     <g>
      <path class="fil6" d="M1074.47 1951.63c-49.8,-32.43 -69.76,-21.66 -88.34,-6.4 -18.58,15.26 -27.52,27.8 -23.8,70.76 3.71,42.96 29.48,103.64 62.65,140.8 33.18,37.16 44.05,59.72 58.64,72.33 14.59,12.61 -5.82,23.87 -35.02,45.77 -29.2,21.9 -213.37,119.67 -297.64,213.24 -84.27,93.56 -212.63,227.08 -290.93,394.96 -40.57,86.98 -72.76,146.97 -97.24,265.64 -15.29,74.13 -21.73,135.35 -12.42,135.35 323.72,0 2254.45,0 2505.3,0 59.76,0 93.89,0 111.75,0 17.2,0 17.87,-115.56 12.6,-133.72 -35.82,-123.41 -90.59,-321.6 -200.75,-500.1 -110.15,-178.5 -170.88,-197.77 -316.2,-285.35 -10.02,-6.04 -217.76,-98.5 -226.68,-129.43 -8.81,-30.54 48.62,-133.92 62.55,-175.06 13.93,-41.14 27.21,-87.59 17.92,-118.78 -9.29,-31.19 -41.14,-47.11 -69.68,-49.77 -28.53,-2.65 -53.75,7.96 -83.61,53.75 -29.86,45.79 -64.37,126.74 -82.95,168.55 -18.58,41.81 -21.23,44.46 -45.78,45.12 -24.55,0.66 -460,-23.88 -521.04,-17.92 -43.61,4.26 -148.06,32.53 -220.05,40.93 -28.76,3.36 -50.49,22.21 -63.93,6.51 -26.28,-30.71 -45.42,-64.9 -47.2,-66.53 -41.14,-37.82 -58.38,-138.21 -108.18,-170.64zm1937.61 1172.07l4.64 16.01c2.81,9.69 4.54,31.3 4.54,54.6 0,19.98 -1.11,43.3 -3.71,62.91 -4.2,31.65 -15.69,56.68 -38.28,63.32l0.01 0.04c-4.09,1.21 -8.04,1.8 -11.85,1.8l-111.75 0 -2505.3 0c-2.73,0 -5.38,-0.29 -7.89,-0.79l-0.15 -0.15c-17.73,-3.66 -28.43,-15.27 -32.61,-33.86l0 -0.15c-1.35,-6.04 -2,-12.89 -2,-20.37 0,-25.27 6.65,-72.71 17.64,-125.99 22.76,-110.36 51.52,-171.28 87.04,-246.56 0.85,-1.8 1.69,-3.58 12.9,-27.61 73.82,-158.29 189.26,-285.42 274.25,-379.02 7.1,-7.82 13.99,-15.4 22.96,-25.36 67.87,-75.35 192.71,-150.77 262.01,-192.63 20.91,-12.63 36.54,-22.08 41.17,-25.54 2.54,-1.9 7.26,-5.35 11.76,-8.64l0.68 -0.5c-2.24,-2.98 -4.55,-6.13 -7.02,-9.5 -8.51,-11.61 -19.3,-26.34 -34.59,-43.47 -19.02,-21.31 -35.73,-48.69 -48.16,-76.64 -13.16,-29.58 -21.98,-60.47 -24.22,-86.31 -2.39,-27.75 -0.21,-46.97 6.09,-62.98 7.14,-18.17 17.68,-29.09 31.64,-40.56 14.68,-12.06 30.37,-22.37 55.22,-23.37 20.95,-0.85 45.78,6.12 78.18,27.22 36.55,23.81 56.43,67.11 75.73,109.2 12.33,26.87 24.37,53.11 37.38,65.19l0.01 -0.01c4.3,3.93 6.79,7.96 10.92,14.55 6.39,10.19 19.63,31.3 36,51.18l-1.51 -4.46c-0.59,-1.04 -0.88,-1.75 -0.62,-1.84 10.32,-3.52 21.83,-7.45 36.25,-9.13 37.13,-4.33 84.53,-14.47 126.79,-23.5 37.49,-8.01 71.11,-15.2 94,-17.44 44.78,-4.38 265.54,6.04 407.25,12.72 63.27,2.98 110.55,5.21 116.49,5.05 0.66,-0.02 0.48,0.69 0.04,1.57l0.02 1.1c1.89,-3.03 5.56,-11.12 11.71,-24.98l-0.13 -0.06 6.64 -15.02c19.85,-45.03 50.8,-115.19 79.31,-158.91 18.42,-28.25 36.37,-46.22 54.87,-57.16 21.42,-12.67 42.28,-15.84 64.22,-13.8 21.64,2.01 44.79,9.56 63.74,23.09 17.88,12.76 32.26,30.56 39.17,53.77 6.58,22.12 5.58,47.51 0.65,73.62 -4.35,23.02 -11.62,46.51 -19.02,68.36 -5.01,14.81 -14.04,34.66 -23.99,56.52 -18.26,40.16 -40.23,88.46 -38.12,95.78 2.48,8.6 132.21,70.01 183.9,94.48 13.25,6.27 22.12,10.48 25.72,12.64l0.15 0c25.1,15.12 38.34,22.9 50.55,30.05 115.7,67.86 177.07,103.86 278.37,268.02 108.26,175.43 163.83,367.46 200.3,493.52zm-978.88 -998.8c0.23,-0.22 0.5,-0.6 0.83,-1.13l-0.02 -1.1c-0.98,1.92 -3.23,4.62 -0.81,2.23zm-774.31 39.05c6.8,7.95 -2.36,-3.93 -5.08,-8.71l1.51 4.46c1.17,1.43 2.36,2.84 3.57,4.25z"/>
     </g>
    </g>
   </g>
   <g style="clip-path:url(#id4)">
    <path class="fil4 str1" d="M2851.27 2784.57c-248.27,263.2 -582.06,444.89 -955.67,499.5l-120.09 13.13 -116.59 4.13 -120.43 -4.41 -116.26 -12.85c-359.22,-52.51 -681.64,-222.48 -926.62,-469.44 77.8,-136.01 182.89,-246.04 255.36,-326.5 84.27,-93.56 268.44,-191.34 297.64,-213.24 29.2,-21.9 49.61,-33.16 35.02,-45.77 -14.59,-12.61 -25.47,-35.17 -58.64,-72.33 -33.18,-37.16 -58.94,-97.84 -62.65,-140.8 -3.71,-42.96 5.22,-55.5 23.8,-70.76 18.58,-15.26 38.54,-26.04 88.34,6.4 49.8,32.43 67.04,132.82 108.18,170.64 1.78,1.63 20.92,35.82 47.2,66.53 13.43,15.7 35.17,-3.15 63.93,-6.51 71.99,-8.4 176.44,-36.67 220.05,-40.93 61.05,-5.97 496.49,18.58 521.04,17.92 24.55,-0.66 27.2,-3.32 45.78,-45.12 18.58,-41.81 53.09,-122.76 82.95,-168.55 29.86,-45.79 55.08,-56.4 83.61,-53.75 28.53,2.65 60.39,18.58 69.68,49.77 9.29,31.19 -3.99,77.64 -17.92,118.78 -13.93,41.14 -71.37,144.51 -62.55,175.06 8.92,30.93 216.66,123.39 226.68,129.43 145.31,87.58 206.05,106.85 316.2,285.35 27.18,44.05 50.98,89.3 71.97,134.32z"/>
    <path class="fil3" d="M2980.04 3150.34c-35.82,-123.41 -90.59,-321.6 -200.75,-500.1 -110.15,-178.5 -170.88,-197.77 -316.2,-285.35 -10.02,-6.04 -217.76,-98.5 -226.68,-129.43 -8.81,-30.54 48.62,-133.92 62.55,-175.06 13.93,-41.14 27.21,-87.59 17.92,-118.78 -9.29,-31.19 -41.14,-47.11 -69.68,-49.77 -28.53,-2.65 -53.75,7.96 -83.61,53.75 -29.86,45.79 -64.37,126.74 -82.95,168.55 -18.58,41.81 -21.23,44.46 -45.78,45.12 -24.55,0.66 -460,-23.88 -521.04,-17.92 -43.61,4.26 -148.06,32.53 -220.05,40.93 -28.76,3.36 -50.49,22.21 -63.93,6.51 -26.28,-30.71 -45.42,-64.9 -47.2,-66.53 -41.14,-37.82 -58.38,-138.21 -108.18,-170.64 -49.8,-32.43 -69.76,-21.66 -88.34,-6.4 -18.58,15.26 -27.52,27.8 -23.8,70.76 3.71,42.96 29.48,103.64 62.65,140.8 33.18,37.16 44.05,59.72 58.64,72.33 14.59,12.61 -5.82,23.87 -35.02,45.77 -29.2,21.9 -213.37,119.67 -297.64,213.24 -84.27,93.56 -212.63,227.08 -290.93,394.96 -40.57,86.98 -72.76,146.97 -97.24,265.64 -15.29,74.13 -21.73,135.35 -12.42,135.35 323.72,0 2254.45,0 2505.3,0 59.76,0 93.89,0 111.75,0 17.2,0 17.87,-115.56 12.6,-133.72z"/>
   </g>
   <g style="clip-path:url(#id5)">
    <g>
     <path id="_1_2" class="fil4 str0" d="M324.63 5511.56c14.15,53.13 22.22,158.86 213.88,224.08 191.65,65.21 566.88,89.9 793.9,94.94 227.01,5.05 305.81,-9.56 380.43,-14.38 74.62,-4.82 145.05,0.13 190.98,-0.87 45.93,-1 67.36,-7.96 272.37,-26.63 205,-18.68 593.58,-49.08 803.94,-137.35 210.36,-88.27 242.5,-234.41 261.49,-548.77 18.99,-314.36 24.84,-796.92 -12.98,-1052.22 -37.83,-255.3 -119.33,-283.34 -193.47,-336.02 -74.14,-52.68 -140.92,-130.01 -252.47,-168.7 -111.56,-38.69 -267.9,-38.74 -541.29,-42.66 -273.4,-3.92 -663.85,-11.71 -958.33,16.58 -294.49,28.29 -493.01,92.65 -663,155.85 -169.99,63.2 -311.44,125.23 -455.97,198.24 -144.53,73 -292.14,156.98 -354.52,371.26 -62.38,214.27 -39.52,558.84 26.19,771.81 65.71,212.97 174.28,294.36 253.8,345.87 79.52,51.51 129.99,73.15 165.34,84.24 35.35,11.08 55.59,11.61 69.74,64.74z"/>
     <path class="fil5" d="M2954.41 3342.5c-206.28,-43.8 -562.48,-86.57 -837.27,-115.59 -274.8,-29.02 -468.17,-44.3 -646.98,-50.21 -178.82,-5.91 -343.06,-2.45 -499.04,3.88 -155.97,6.33 -303.67,15.53 -472.76,33.03 -169.1,17.5 -359.59,43.3 -463.57,81.22 -103.99,37.92 -121.46,87.97 -75.04,149.08 46.42,61.11 156.74,133.28 214.02,199.29 57.28,66.01 61.53,125.86 501.68,155.82 440.15,29.96 1316.21,30.03 1832.8,4.59 516.59,-25.44 673.71,-76.37 741.33,-135.23 67.61,-58.86 45.72,-125.64 6.6,-181.44 -39.13,-55.81 -95.49,-100.63 -301.77,-144.43z"/>
     <path class="fil3 str0" d="M295.1 3697.18c77.27,14.57 189.46,28.41 312.23,38.53 122.77,10.12 256.11,16.51 392.05,24.43 135.94,7.92 274.48,17.36 547.84,16.83 273.36,-0.53 681.55,-11.04 932.13,-32.15 250.58,-21.11 343.55,-52.82 414.43,-74.48 70.88,-21.67 119.66,-33.31 137.25,-68.83 17.6,-35.53 4.01,-94.94 63.84,-194.61 59.83,-99.67 193.09,-239.58 236.4,-421.14 43.31,-181.56 -3.33,-404.77 -108.9,-484.38 -105.57,-79.62 -270.06,-15.66 -442.37,-40.94 -172.32,-25.29 -352.46,-139.82 -480.07,-212.19 -127.61,-72.38 -202.69,-102.59 -264.9,-114.92 -62.21,-12.33 -111.56,-6.78 -185.3,-9.61 -73.75,-2.83 -171.9,-14.03 -267.57,-10.73 -95.67,3.3 -188.85,21.12 -279.03,44.72 -90.18,23.6 -177.35,52.98 -251.91,86.26 -74.57,33.28 -136.53,70.46 -259.12,148.38 -122.6,77.92 -305.83,196.58 -449.08,300.88 -143.26,104.3 -246.53,194.25 -328.98,300.02 -82.45,105.77 -144.08,227.37 -149.91,336.47 -5.83,109.1 44.14,205.71 98.27,257.35 54.13,51.64 112.44,58.3 162.76,69.28 50.32,10.98 92.66,26.27 169.93,40.84z"/>
    </g>
   </g>
   <g style="clip-path:url(#id6)">
    <g>
     <path class="fil6" d="M1074.47 1951.63c-49.8,-32.43 -69.76,-21.66 -88.34,-6.4 -18.58,15.26 -27.52,27.8 -23.8,70.76 3.71,42.96 29.48,103.64 62.65,140.8 33.18,37.16 44.05,59.72 58.64,72.33 14.59,12.61 -5.82,23.87 -35.02,45.77 -29.2,21.9 -213.37,119.67 -297.64,213.24 -84.27,93.56 -212.63,227.08 -290.93,394.96 -40.57,86.98 -72.76,146.97 -97.24,265.64 -15.29,74.13 -21.73,135.35 -12.42,135.35 323.72,0 2254.45,0 2505.3,0 59.76,0 93.89,0 111.75,0 17.2,0 17.87,-115.56 12.6,-133.72 -35.82,-123.41 -90.59,-321.6 -200.75,-500.1 -110.15,-178.5 -170.88,-197.77 -316.2,-285.35 -10.02,-6.04 -217.76,-98.5 -226.68,-129.43 -8.81,-30.54 48.62,-133.92 62.55,-175.06 13.93,-41.14 27.21,-87.59 17.92,-118.78 -9.29,-31.19 -41.14,-47.11 -69.68,-49.77 -28.53,-2.65 -53.75,7.96 -83.61,53.75 -29.86,45.79 -64.37,126.74 -82.95,168.55 -18.58,41.81 -21.23,44.46 -45.78,45.12 -24.55,0.66 -460,-23.88 -521.04,-17.92 -43.61,4.26 -148.06,32.53 -220.05,40.93 -28.76,3.36 -50.49,22.21 -63.93,6.51 -26.28,-30.71 -45.42,-64.9 -47.2,-66.53 -41.14,-37.82 -58.38,-138.21 -108.18,-170.64zm1937.61 1172.07l4.64 16.01c2.81,9.69 4.54,31.3 4.54,54.6 0,19.98 -1.11,43.3 -3.71,62.91 -4.2,31.65 -15.69,56.68 -38.28,63.32l0.01 0.04c-4.09,1.21 -8.04,1.8 -11.85,1.8l-111.75 0 -2505.3 0c-2.73,0 -5.38,-0.29 -7.89,-0.79l-0.15 -0.15c-17.73,-3.66 -28.43,-15.27 -32.61,-33.86l0 -0.15c-1.35,-6.04 -2,-12.89 -2,-20.37 0,-25.27 6.65,-72.71 17.64,-125.99 22.76,-110.36 51.52,-171.28 87.04,-246.56 0.85,-1.8 1.69,-3.58 12.9,-27.61 73.82,-158.29 189.26,-285.42 274.25,-379.02 7.1,-7.82 13.99,-15.4 22.96,-25.36 67.87,-75.35 192.71,-150.77 262.01,-192.63 20.91,-12.63 36.54,-22.08 41.17,-25.54 2.54,-1.9 7.26,-5.35 11.76,-8.64l0.68 -0.5c-2.24,-2.98 -4.55,-6.13 -7.02,-9.5 -8.51,-11.61 -19.3,-26.34 -34.59,-43.47 -19.02,-21.31 -35.73,-48.69 -48.16,-76.64 -13.16,-29.58 -21.98,-60.47 -24.22,-86.31 -2.39,-27.75 -0.21,-46.97 6.09,-62.98 7.14,-18.17 17.68,-29.09 31.64,-40.56 14.68,-12.06 30.37,-22.37 55.22,-23.37 20.95,-0.85 45.78,6.12 78.18,27.22 36.55,23.81 56.43,67.11 75.73,109.2 12.33,26.87 24.37,53.11 37.38,65.19l0.01 -0.01c4.3,3.93 6.79,7.96 10.92,14.55 6.39,10.19 19.63,31.3 36,51.18l-1.51 -4.46c-0.59,-1.04 -0.88,-1.75 -0.62,-1.84 10.32,-3.52 21.83,-7.45 36.25,-9.13 37.13,-4.33 84.53,-14.47 126.79,-23.5 37.49,-8.01 71.11,-15.2 94,-17.44 44.78,-4.38 265.54,6.04 407.25,12.72 63.27,2.98 110.55,5.21 116.49,5.05 0.66,-0.02 0.48,0.69 0.04,1.57l0.02 1.1c1.89,-3.03 5.56,-11.12 11.71,-24.98l-0.13 -0.06 6.64 -15.02c19.85,-45.03 50.8,-115.19 79.31,-158.91 18.42,-28.25 36.37,-46.22 54.87,-57.16 21.42,-12.67 42.28,-15.84 64.22,-13.8 21.64,2.01 44.79,9.56 63.74,23.09 17.88,12.76 32.26,30.56 39.17,53.77 6.58,22.12 5.58,47.51 0.65,73.62 -4.35,23.02 -11.62,46.51 -19.02,68.36 -5.01,14.81 -14.04,34.66 -23.99,56.52 -18.26,40.16 -40.23,88.46 -38.12,95.78 2.48,8.6 132.21,70.01 183.9,94.48 13.25,6.27 22.12,10.48 25.72,12.64l0.15 0c25.1,15.12 38.34,22.9 50.55,30.05 115.7,67.86 177.07,103.86 278.37,268.02 108.26,175.43 163.83,367.46 200.3,493.52zm-978.88 -998.8c0.23,-0.22 0.5,-0.6 0.83,-1.13l-0.02 -1.1c-0.98,1.92 -3.23,4.62 -0.81,2.23zm-774.31 39.05c6.8,7.95 -2.36,-3.93 -5.08,-8.71l1.51 4.46c1.17,1.43 2.36,2.84 3.57,4.25z"/>
    </g>
    <path class="fil7" d="M1268.02 2588.14c91.93,0 166.46,73.42 166.46,163.98 0,90.56 -74.53,163.98 -166.46,163.98 -91.93,0 -166.46,-73.42 -166.46,-163.98 0,-90.56 74.53,-163.98 166.46,-163.98z"/>
    <path class="fil7" d="M2114.41 2588.14c91.93,0 166.46,73.42 166.46,163.98 0,90.56 -74.53,163.98 -166.46,163.98 -91.93,0 -166.46,-73.42 -166.46,-163.98 0,-90.56 74.53,-163.98 166.46,-163.98z"/>
    <path class="fil7" d="M1268.02 2588.14c91.93,0 166.46,73.42 166.46,163.98 0,90.56 -74.53,163.98 -166.46,163.98 -91.93,0 -166.46,-73.42 -166.46,-163.98 0,-90.56 74.53,-163.98 166.46,-163.98z"/>
    <path class="fil7" d="M2114.41 2588.14c91.93,0 166.46,73.42 166.46,163.98 0,90.56 -74.53,163.98 -166.46,163.98 -91.93,0 -166.46,-73.42 -166.46,-163.98 0,-90.56 74.53,-163.98 166.46,-163.98z"/>
   </g>
  </g>
  <path class="fil4 str2" d="M1659.69 20.28c905.42,0 1639.41,730.63 1639.41,1631.89 0,901.27 -733.99,1631.89 -1639.41,1631.89 -905.42,0 -1639.42,-730.63 -1639.42,-1631.89 0,-901.27 733.99,-1631.89 1639.42,-1631.89z"/>
 </g>
</svg>
