<?xml version="1.0" encoding="UTF-8"?>
<!DOCTYPE svg PUBLIC "-//W3C//DTD SVG 1.0//EN" "http://www.w3.org/TR/2001/REC-SVG-20010904/DTD/svg10.dtd">
<!-- Creator: CorelDRAW -->
<svg xmlns="http://www.w3.org/2000/svg" xml:space="preserve" width="85.6239mm" height="86.1535mm" version="1.0" style="shape-rendering:geometricPrecision; text-rendering:geometricPrecision; image-rendering:optimizeQuality; fill-rule:evenodd; clip-rule:evenodd"
viewBox="0 0 59190.49 59556.59"
 xmlns:xlink="http://www.w3.org/1999/xlink"
 xmlns:xodm="http://www.corel.com/coreldraw/odm/2003">
 <defs>
  <style type="text/css">
   <![CDATA[
    .str0 {stroke:#BAD44C;stroke-width:691.35;stroke-miterlimit:22.9256}
    .str1 {stroke:#BDBFC1;stroke-width:731.59;stroke-miterlimit:22.9256}
    .fil2 {fill:none}
    .fil0 {fill:#4A4A4A}
    .fil3 {fill:#65AD4F}
    .fil1 {fill:#6DBE4F}
    .fil4 {fill:#BDBFC1}
    .fil5 {fill:#FEFEFE}
   ]]>
  </style>
   <clipPath id="id0">
    <path d="M51105.43 49868.24c-4478.83,4748.09 -10500.41,8025.81 -17240.36,9010.96l-2166.42 236.83 -2103.37 74.52 -2172.5 -79.5 -2097.36 -231.86c-6480.45,-947.2 -12296.92,-4013.53 -16716.37,-8468.79 1403.58,-2453.65 3299.29,-4438.53 4606.79,-5890.09 1520.27,-1687.84 4842.73,-3451.79 5369.42,-3846.79 526.69,-395 894.94,-598.24 631.7,-825.67 -263.24,-227.43 -459.43,-634.46 -1057.94,-1304.8 -598.51,-670.34 -1063.26,-1764.99 -1130.25,-2539.99 -66.99,-775 94.22,-1001.19 429.43,-1276.53 335.2,-275.34 695.29,-469.73 1593.62,115.38 898.32,585.1 1209.47,2396.13 1951.57,3078.36 32.08,29.45 377.37,646.28 851.46,1200.28 242.36,283.22 634.39,-56.82 1153.27,-117.38 1298.65,-151.6 3182.95,-661.49 3969.7,-738.43 1101.29,-107.63 8956.77,335.2 9399.67,323.24 442.91,-11.96 490.74,-59.87 825.95,-814.06 335.2,-754.19 957.77,-2214.6 1496.42,-3040.62 538.65,-826.02 993.58,-1017.43 1508.31,-969.6 514.73,47.84 1089.4,335.13 1256.96,897.77 167.57,562.64 -71.89,1400.68 -323.24,2142.84 -251.35,742.16 -1287.45,2607.04 -1128.45,3158.06 161,558 3908.59,2225.94 4089.36,2334.88 2621.49,1579.93 3717.11,1927.58 5704.27,5147.72 490.4,794.63 919.75,1610.9 1298.37,2423.23z"/>
   </clipPath>
    <clipPath id="id1">
     <path d="M51100.04 49856.62l-21.71 -46.32 -58 -122.91 -20.12 -42.17 -54.33 -113.09 -8.64 -17.9 -62.01 -127.27 -32.7 -66.36 -47.56 -95.54 -17.28 -34.56 -47.91 -95.12 -55.51 -108.81 -13.96 -27.17 -62.98 -121.46 -22.05 -42.03 -61.11 -115.86 -20.25 -38.02 -61.32 -114.06 -17.9 -33.04 -64.36 -117.66 -18.39 -33.46 -72.52 -130.1 -9.68 -17.14c-25.3,-45.07 -50.74,-90.07 -76.46,-134.94l-10.99 -19.08 -79.77 -138.05 -5.95 -10.23 -80.95 -137.57 -11.89 -20.05c-27.72,-46.52 -55.51,-92.98 -83.58,-139.36l-1.18 -1.87c-30.42,-50.26 -61.04,-100.37 -91.94,-150.42 -1987.17,-3220.14 -3082.78,-3567.79 -5704.27,-5147.72 -180.77,-108.95 -3928.36,-1776.88 -4089.36,-2334.88 -159,-551.02 877.1,-2415.9 1128.45,-3158.06 251.35,-742.16 490.81,-1580.21 323.24,-2142.84 -167.57,-562.64 -742.23,-849.93 -1256.96,-897.77 -514.73,-47.84 -969.66,143.58 -1508.31,969.6 -538.65,826.02 -1161.22,2286.42 -1496.42,3040.62 -335.2,754.19 -383.04,802.1 -825.95,814.06 -442.91,11.96 -8298.39,-430.88 -9399.67,-323.24 -786.75,76.94 -2671.05,586.83 -3969.7,738.43 -518.88,60.56 -910.91,400.6 -1153.27,117.38 -474.08,-554 -819.38,-1170.83 -851.46,-1200.28 -742.09,-682.23 -1053.24,-2493.26 -1951.57,-3078.36 -898.32,-585.1 -1258.41,-390.71 -1593.62,-115.38 -335.2,275.34 -496.41,501.53 -429.43,1276.53 66.99,775 531.74,1869.65 1130.25,2539.99 598.51,670.34 794.7,1077.37 1057.94,1304.8 263.24,227.43 -105.01,430.67 -631.7,825.67 -526.69,395 -3849.14,2158.95 -5369.42,3846.79l-161.69 178.97 -81.85 90.35c-152.43,168.05 -311.15,342.6 -474.98,523.58l-62.15 68.71 -21.91 24.19c-77.01,85.24 -154.99,171.92 -233.86,259.92l-119.87 134.04 -50.33 56.55 -25.78 28.96 -58.28 65.67 -3.25 3.66 -65.4 73.9 -28.55 32.35 -112.54 128.1 -13.76 15.76 -134.73 154.71 -21.22 24.4 -136.18 157.96 -17.84 20.88 -62.08 72.65 -10.58 12.44 -72.03 84.75c-49.08,57.93 -98.3,116.34 -147.52,175.17l-45.35 54.27 -45.9 55.16 -47.15 56.96 -20.32 24.61 -60.76 73.76 -18.11 22.19c-118.28,144.41 -236.83,291.58 -355.04,441.32l-24.13 30.62 -47.08 59.93 -42.03 53.78 -34.43 44.31 -48.87 63.18 -40.16 52.05 -24.68 32.21c-67.12,87.72 -134.11,176.21 -200.82,265.59l-9.19 12.3c-46.94,62.91 -93.67,126.44 -140.33,190.24l-14.79 20.25c-72.79,99.82 -145.24,200.61 -217.13,302.44l-0.62 0.83c-70.03,99.13 -139.43,199.23 -208.42,300.29l-14.79 21.71 -54.61 80.67 -23.09 34.29 -48.8 72.93 -31.18 47.01 -51.57 78.25 -10.44 15.97 -61.25 94.08 -17.49 27.17c-39.68,61.59 -79.22,123.53 -118.42,185.82l-7.12 11.27 -67.4 108.12 -1.73 2.77 -62.63 101.96 -9.68 15.83 -56.69 93.6 -16.38 27.31 -53.85 90.35 -19.77 33.53 -48.46 82.61 -36.02 62.35 -33.6 58.28 -0.14 0.21c4419.45,4455.26 10235.92,7521.59 16716.37,8468.79l8539.65 0c6739.96,-985.15 12761.53,-4262.88 17240.36,-9010.96l-5.39 -11.61z"/>
    </clipPath>
    <clipPath id="id2">
     <path d="M51105.43 49868.24c-4478.83,4748.09 -10500.41,8025.81 -17240.36,9010.96l-2166.42 236.83 -2103.37 74.52 -2172.5 -79.5 -2097.36 -231.86c-6480.45,-947.2 -12296.92,-4013.53 -16716.37,-8468.79 1403.58,-2453.65 3299.29,-4438.53 4606.79,-5890.09 1520.27,-1687.84 4842.73,-3451.79 5369.42,-3846.79 526.69,-395 894.94,-598.24 631.7,-825.67 -263.24,-227.43 -459.43,-634.46 -1057.94,-1304.8 -598.51,-670.34 -1063.26,-1764.99 -1130.25,-2539.99 -66.99,-775 94.22,-1001.19 429.43,-1276.53 335.2,-275.34 695.29,-469.73 1593.62,115.38 898.32,585.1 1209.47,2396.13 1951.57,3078.36 32.08,29.45 377.37,646.28 851.46,1200.28 242.36,283.22 634.39,-56.82 1153.27,-117.38 1298.65,-151.6 3182.95,-661.49 3969.7,-738.43 1101.29,-107.63 8956.77,335.2 9399.67,323.24 442.91,-11.96 490.74,-59.87 825.95,-814.06 335.2,-754.19 957.77,-2214.6 1496.42,-3040.62 538.65,-826.02 993.58,-1017.43 1508.31,-969.6 514.73,47.84 1089.4,335.13 1256.96,897.77 167.57,562.64 -71.89,1400.68 -323.24,2142.84 -251.35,742.16 -1287.45,2607.04 -1128.45,3158.06 161,558 3908.59,2225.94 4089.36,2334.88 2621.49,1579.93 3717.11,1927.58 5704.27,5147.72 490.4,794.63 919.75,1610.9 1298.37,2423.23z"/>
    </clipPath>
 </defs>
 <g id="Capa_x0020_1">
  <metadata id="CorelCorpID_0Corel-Layer"/>
  <path class="fil0" d="M51105.43 49868.24c-4478.83,4748.09 -10500.41,8025.81 -17240.36,9010.96l-2166.42 236.83 -2103.37 74.52 -2172.5 -79.5 -2097.36 -231.86c-6480.45,-947.2 -12296.92,-4013.53 -16716.37,-8468.79 1403.58,-2453.65 3299.29,-4438.53 4606.79,-5890.09 1520.27,-1687.84 4842.73,-3451.79 5369.42,-3846.79 526.69,-395 894.94,-598.24 631.7,-825.67 -263.24,-227.43 -459.43,-634.46 -1057.94,-1304.8 -598.51,-670.34 -1063.26,-1764.99 -1130.25,-2539.99 -66.99,-775 94.22,-1001.19 429.43,-1276.53 335.2,-275.34 695.29,-469.73 1593.62,115.38 898.32,585.1 1209.47,2396.13 1951.57,3078.36 32.08,29.45 377.37,646.28 851.46,1200.28 242.36,283.22 634.39,-56.82 1153.27,-117.38 1298.65,-151.6 3182.95,-661.49 3969.7,-738.43 1101.29,-107.63 8956.77,335.2 9399.67,323.24 442.91,-11.96 490.74,-59.87 825.95,-814.06 335.2,-754.19 957.77,-2214.6 1496.42,-3040.62 538.65,-826.02 993.58,-1017.43 1508.31,-969.6 514.73,47.84 1089.4,335.13 1256.96,897.77 167.57,562.64 -71.89,1400.68 -323.24,2142.84 -251.35,742.16 -1287.45,2607.04 -1128.45,3158.06 161,558 3908.59,2225.94 4089.36,2334.88 2621.49,1579.93 3717.11,1927.58 5704.27,5147.72 490.4,794.63 919.75,1610.9 1298.37,2423.23z"/>
  <g style="clip-path:url(#id0)">
   <g id="_3065256374848">
    <path id="_1" class="fil1" d="M53428.56 56466.83c-646.28,-2226.42 -1634.34,-5801.68 -3621.5,-9021.82 -1987.17,-3220.14 -3082.78,-3567.79 -5704.27,-5147.72 -180.77,-108.95 -3928.36,-1776.88 -4089.36,-2334.88 -159,-551.02 877.1,-2415.9 1128.45,-3158.06 251.35,-742.16 490.81,-1580.21 323.24,-2142.84 -167.57,-562.64 -742.23,-849.93 -1256.96,-897.77 -514.73,-47.84 -969.66,143.58 -1508.31,969.6 -538.65,826.02 -1161.22,2286.42 -1496.42,3040.62 -335.2,754.19 -383.04,802.1 -825.95,814.06 -442.91,11.96 -8298.39,-430.88 -9399.67,-323.24 -786.75,76.94 -2671.05,586.83 -3969.7,738.43 -518.88,60.56 -910.91,400.6 -1153.27,117.38 -474.08,-554 -819.38,-1170.83 -851.46,-1200.28 -742.09,-682.23 -1053.24,-2493.26 -1951.57,-3078.36 -898.32,-585.1 -1258.41,-390.71 -1593.62,-115.38 -335.2,275.34 -496.41,501.53 -429.43,1276.53 66.99,775 531.74,1869.65 1130.25,2539.99 598.51,670.34 794.7,1077.37 1057.94,1304.8 263.24,227.43 -105.01,430.67 -631.7,825.67 -526.69,395 -3849.14,2158.95 -5369.42,3846.79 -1520.27,1687.84 -3835.94,4096.55 -5248.37,7125.07 -731.86,1569.15 -1312.61,2651.35 -1754.2,4792.12 -275.89,1337.29 -392.03,2441.69 -223.98,2441.69 5839.9,0 40670.56,0 45195.91,0 1077.99,0 1693.79,0 2015.99,0 310.25,0 322.42,-2084.71 227.36,-2412.38z"/>
   </g>
   <g style="clip-path:url(#id1)">
    <g>
     <path id="_2" class="fil2 str0" d="M5524.61 99063.51c255.29,958.47 400.88,2865.93 3858.34,4042.36 3457.39,1176.36 10226.66,1621.82 14322.04,1712.8 4095.38,91.04 5516.94,-172.48 6863.07,-259.44 1346.07,-87.03 2616.72,2.28 3445.36,-15.69 828.57,-18.04 1215.21,-143.51 4913.51,-480.44 3698.23,-336.93 10708.21,-885.33 14503.15,-2477.77 3794.88,-1592.44 4374.66,-4228.86 4717.33,-9899.82 342.67,-5671.02 448.16,-14376.51 -234.21,-18982.12 -682.44,-4605.68 -2152.8,-5111.43 -3490.3,-6061.81 -1337.5,-950.38 -2542.13,-2345.46 -4554.67,-3043.45 -2012.54,-697.99 -4832.98,-698.96 -9765.02,-769.68 -4932.11,-70.79 -11975.88,-211.33 -17288.48,299.05 -5312.59,510.31 -8894,1671.46 -11960.61,2811.59 -3066.61,1140.14 -5618.49,2259.19 -8225.8,3576.22 -2607.39,1316.97 -5270.29,2831.99 -6395.56,6697.51 -1125.27,3865.53 -712.99,10081.49 472.42,13923.58 1185.41,3842.09 3143.96,5310.24 4578.52,6239.54 1434.48,929.29 2344.98,1319.66 2982.76,1519.65 637.78,199.92 1002.78,209.53 1258.14,1167.93z"/>
     <path class="fil3" d="M52966.09 59933.34c-3721.39,-790.14 -10147.16,-1561.68 -15104.43,-2085.26 -4957.34,-523.58 -8445.84,-799.19 -11671.65,-905.79 -3225.88,-106.6 -6188.93,-44.17 -9002.67,69.96 -2813.81,114.2 -5478.22,280.11 -8528.72,595.82 -3050.64,315.64 -6487.08,781.08 -8362.95,1465.25 -1875.94,684.1 -2191.16,1586.91 -1353.67,2689.37 837.49,1102.39 2827.56,2404.43 3861.03,3595.23 1033.4,1190.88 1110,2270.52 9050.44,2811.04 7940.3,540.45 23744.59,541.69 33063.94,82.82 9319.35,-458.87 12153.75,-1377.8 13373.66,-2439.61 1219.77,-1061.88 824.84,-2266.58 119.04,-3273.23 -705.94,-1006.79 -1722.61,-1815.45 -5444,-2605.59z"/>
     <path class="fil1 str0" d="M4991.9 66331.8c1393.91,262.83 3417.85,512.59 5632.59,695.16 2214.74,182.5 4620.27,297.81 7072.67,440.69 2452.4,142.82 4951.67,313.15 9883.16,303.61 4931.49,-9.61 12295.26,-199.23 16815.78,-579.99 4520.52,-380.83 6197.71,-952.8 7476.38,-1343.72 1278.6,-390.99 2158.61,-600.86 2476.04,-1241.75 317.44,-640.89 72.31,-1712.73 1151.75,-3510.76 1079.37,-1798.03 3483.38,-4322.12 4264.67,-7597.49 781.29,-3275.38 -60.14,-7302.04 -1964.49,-8738.32 -1904.42,-1436.35 -4871.9,-282.46 -7980.47,-738.57 -3108.64,-456.18 -6358.44,-2522.36 -8660.48,-3827.99 -2302.12,-1305.7 -3656.55,-1850.78 -4778.85,-2073.23 -1122.3,-222.52 -2012.47,-122.36 -3342.85,-173.37 -1330.45,-51.02 -3101.1,-253.15 -4826.96,-193.49 -1725.86,59.59 -3406.93,381.04 -5033.73,806.73 -1626.87,425.69 -3199.4,955.77 -4544.51,1556.15 -1345.17,600.38 -2462.98,1271.13 -4674.61,2676.86 -2211.7,1405.66 -5517.21,3546.29 -8101.51,5427.97 -2584.37,1881.61 -4447.38,3504.33 -5934.82,5412.48 -1487.44,1908.08 -2599.3,4101.74 -2704.44,6069.96 -105.21,1968.23 796.29,3711.02 1772.87,4642.6 976.58,931.51 2028.37,1051.72 2936.23,1249.77 907.8,198.05 1671.66,473.88 3065.57,736.7z"/>
    </g>
   </g>
   <g style="clip-path:url(#id2)">
    <g>
     <path class="fil4" d="M19051.81 34841.92c-898.32,-585.1 -1258.41,-390.71 -1593.62,-115.38 -335.2,275.34 -496.41,501.53 -429.43,1276.53 66.99,775 531.74,1869.65 1130.25,2539.99 598.51,670.34 794.7,1077.37 1057.94,1304.8 263.24,227.43 -105.01,430.67 -631.7,825.67 -526.69,395 -3849.14,2158.95 -5369.42,3846.79 -1520.27,1687.84 -3835.94,4096.55 -5248.37,7125.07 -731.86,1569.15 -1312.61,2651.35 -1754.2,4792.12 -275.89,1337.29 -392.03,2441.69 -223.98,2441.69 5839.9,0 40670.56,0 45195.91,0 1077.99,0 1693.79,0 2015.99,0 310.25,0 322.42,-2084.71 227.36,-2412.38 -646.28,-2226.42 -1634.34,-5801.68 -3621.5,-9021.82 -1987.17,-3220.14 -3082.78,-3567.79 -5704.27,-5147.72 -180.77,-108.95 -3928.36,-1776.88 -4089.36,-2334.88 -159,-551.02 877.1,-2415.9 1128.45,-3158.06 251.35,-742.16 490.81,-1580.21 323.24,-2142.84 -167.57,-562.64 -742.23,-849.93 -1256.96,-897.77 -514.73,-47.84 -969.66,143.58 -1508.31,969.6 -538.65,826.02 -1161.22,2286.42 -1496.42,3040.62 -335.2,754.19 -383.04,802.1 -825.95,814.06 -442.91,11.96 -8298.39,-430.88 -9399.67,-323.24 -786.75,76.94 -2671.05,586.83 -3969.7,738.43 -518.88,60.56 -910.91,400.6 -1153.27,117.38 -474.08,-554 -819.38,-1170.83 -851.46,-1200.28 -742.09,-682.23 -1053.24,-2493.26 -1951.57,-3078.36zm34954.74 21144.32l83.65 288.82c50.67,174.83 81.99,564.64 81.99,985.08 0,360.44 -19.98,781.08 -66.92,1134.88 -75.83,571 -283.08,1022.48 -690.52,1142.28l0.21 0.76c-73.76,21.84 -145.03,32.49 -213.75,32.49l-2015.99 0 -45195.91 0c-49.29,0 -97.13,-5.18 -142.4,-14.24l-2.7 -2.7c-319.79,-65.95 -512.93,-275.55 -588.28,-610.89l0 -2.7c-24.33,-108.95 -36.09,-232.62 -36.09,-367.42 0,-455.83 120.01,-1311.64 318.27,-2272.81 410.62,-1990.9 929.36,-3089.97 1570.18,-4448 15.28,-32.49 30.49,-64.5 232.69,-498.07 1331.69,-2855.56 3414.32,-5149.1 4947.59,-6837.63 128.03,-141.02 252.32,-277.83 414.15,-457.56 1224.4,-1359.41 3476.54,-2719.93 4726.73,-3475.16 377.23,-227.85 659.21,-398.25 742.65,-460.81 45.83,-34.36 130.93,-96.57 212.16,-155.88l12.24 -8.99c-40.44,-53.71 -82.12,-110.61 -126.64,-171.37 -153.47,-209.46 -348.2,-475.26 -623.95,-784.19 -343.15,-384.35 -644.55,-878.35 -868.88,-1382.64 -237.46,-533.6 -396.59,-1090.92 -436.89,-1557.05 -43.21,-500.63 -3.73,-847.38 109.78,-1136.13 128.86,-327.88 318.89,-524.82 570.79,-731.79 264.83,-217.48 547.91,-403.5 996.14,-421.61 377.99,-15.28 825.81,110.33 1410.36,491.09 659.42,429.5 1017.92,1210.65 1366.25,1969.95 222.46,484.73 439.73,958.19 674.28,1176.01l0.14 -0.14c77.63,70.93 122.5,143.65 197.09,262.55 115.24,183.74 354.08,564.57 649.46,923.21l-27.24 -80.53c-10.71,-18.8 -15.9,-31.59 -11.27,-33.18 186.09,-63.46 393.76,-134.32 653.89,-164.66 669.85,-78.18 1524.97,-260.96 2287.39,-423.9 676.28,-144.48 1282.82,-274.16 1695.79,-314.53 807.84,-78.94 4790.33,108.88 7346.84,229.44 1141.38,53.78 1994.36,93.95 2101.51,91.11 11.89,-0.28 8.71,12.51 0.69,28.27l0.41 19.84c34.08,-54.61 100.24,-200.61 211.33,-450.65l-2.28 -1.04 119.8 -271.05c358.15,-812.26 916.37,-2078.07 1430.68,-2866.76 332.37,-509.68 656.1,-833.9 989.92,-1031.26 386.5,-228.61 762.69,-285.71 1158.45,-248.93 390.44,36.22 808.04,172.41 1149.81,416.5 322.48,230.27 581.92,551.37 706.63,970.08 118.76,399.01 100.58,857.12 11.75,1328.17 -78.39,415.25 -209.6,839.08 -343.08,1233.25 -90.42,267.18 -253.36,625.2 -432.74,1019.64 -329.47,724.54 -725.71,1595.9 -687.62,1727.94 44.73,155.06 2385.14,1263.05 3317.61,1704.43 238.98,113.09 399.01,189 463.92,228.05l2.7 0c452.79,272.85 691.7,413.11 911.87,542.17 2087.2,1224.27 3194.43,1873.73 5021.91,4835.12 1952.95,3164.77 2955.45,6629.07 3613.48,8903.12zm-17659.14 -18018.47c4.08,-4.01 9.06,-10.78 15,-20.32l-0.41 -19.84c-17.63,34.56 -58.34,83.37 -14.59,40.16zm-13968.65 704.49c122.63,143.37 -42.65,-70.93 -91.6,-157.2l27.24 80.53c21.15,25.72 42.65,51.29 64.36,76.66z"/>
    </g>
   </g>
  </g>
  <path class="fil2 str1" d="M51105.43 49868.24c-4478.83,4748.09 -10500.41,8025.81 -17240.36,9010.96l-2166.42 236.83 -2103.37 74.52 -2172.5 -79.5 -2097.36 -231.86c-6480.45,-947.2 -12296.92,-4013.53 -16716.37,-8468.79 1403.58,-2453.65 3299.29,-4438.53 4606.79,-5890.09 1520.27,-1687.84 4842.73,-3451.79 5369.42,-3846.79 526.69,-395 894.94,-598.24 631.7,-825.67 -263.24,-227.43 -459.43,-634.46 -1057.94,-1304.8 -598.51,-670.34 -1063.26,-1764.99 -1130.25,-2539.99 -66.99,-775 94.22,-1001.19 429.43,-1276.53 335.2,-275.34 695.29,-469.73 1593.62,115.38 898.32,585.1 1209.47,2396.13 1951.57,3078.36 32.08,29.45 377.37,646.28 851.46,1200.28 242.36,283.22 634.39,-56.82 1153.27,-117.38 1298.65,-151.6 3182.95,-661.49 3969.7,-738.43 1101.29,-107.63 8956.77,335.2 9399.67,323.24 442.91,-11.96 490.74,-59.87 825.95,-814.06 335.2,-754.19 957.77,-2214.6 1496.42,-3040.62 538.65,-826.02 993.58,-1017.43 1508.31,-969.6 514.73,47.84 1089.4,335.13 1256.96,897.77 167.57,562.64 -71.89,1400.68 -323.24,2142.84 -251.35,742.16 -1287.45,2607.04 -1128.45,3158.06 161,558 3908.59,2225.94 4089.36,2334.88 2621.49,1579.93 3717.11,1927.58 5704.27,5147.72 490.4,794.63 919.75,1610.9 1298.37,2423.23z"/>
  <path class="fil5" d="M22543.41 46324.64c1658.46,0 3002.94,1324.43 3002.94,2958.15 0,1633.71 -1344.48,2958.15 -3002.94,2958.15 -1658.46,0 -3002.94,-1324.43 -3002.94,-2958.15 0,-1633.71 1344.48,-2958.15 3002.94,-2958.15z"/>
  <path class="fil5" d="M37812.51 46324.64c1658.46,0 3002.94,1324.43 3002.94,2958.15 0,1633.71 -1344.48,2958.15 -3002.94,2958.15 -1658.46,0 -3002.94,-1324.43 -3002.94,-2958.15 0,-1633.71 1344.48,-2958.15 3002.94,-2958.15z"/>
  <rect class="fil2" width="59190.49" height="59190.56" rx="22700.86" ry="29595.28"/>
 </g>
</svg>
