<?xml version="1.0" encoding="UTF-8"?>
<!DOCTYPE svg PUBLIC "-//W3C//DTD SVG 1.0//EN" "http://www.w3.org/TR/2001/REC-SVG-20010904/DTD/svg10.dtd">
<!-- Creator: CorelDRAW -->
<svg xmlns="http://www.w3.org/2000/svg" xml:space="preserve" width="85.6239mm" height="86.1737mm" version="1.0" style="shape-rendering:geometricPrecision; text-rendering:geometricPrecision; image-rendering:optimizeQuality; fill-rule:evenodd; clip-rule:evenodd"
viewBox="0 0 2926.21 2945"
 xmlns:xlink="http://www.w3.org/1999/xlink"
 xmlns:xodm="http://www.corel.com/coreldraw/odm/2003">
 <defs>
  <style type="text/css">
   <![CDATA[
    .str0 {stroke:#BAD44C;stroke-width:34.18;stroke-miterlimit:22.9256}
    .fil1 {fill:none}
    .fil2 {fill:#65AD4F}
    .fil0 {fill:#6DBE4F}
    .fil3 {fill:#BDBFC1}
    .fil4 {fill:#FEFEFE}
   ]]>
  </style>
   <clipPath id="id0">
    <path d="M2641.36 2791.56c-31.95,-110.07 -80.8,-286.82 -179.04,-446.01 -98.24,-159.19 -152.4,-176.38 -282,-254.49 -8.94,-5.39 -194.21,-87.84 -202.17,-115.43 -7.86,-27.24 43.36,-119.44 55.79,-156.13 12.43,-36.69 24.26,-78.12 15.98,-105.94 -8.28,-27.82 -36.69,-42.02 -62.14,-44.38 -25.45,-2.36 -47.94,7.1 -74.57,47.93 -26.63,40.84 -57.41,113.03 -73.98,150.32 -16.57,37.29 -18.94,39.65 -40.83,40.24 -21.9,0.59 -410.25,-21.3 -464.69,-15.98 -38.89,3.8 -132.05,29.01 -196.25,36.51 -25.65,2.99 -45.03,19.8 -57.01,5.8 -23.44,-27.39 -40.51,-57.88 -42.09,-59.34 -36.69,-33.73 -52.07,-123.26 -96.48,-152.19 -44.41,-28.93 -62.21,-19.32 -78.78,-5.7 -16.57,13.61 -24.54,24.79 -21.23,63.11 3.31,38.31 26.29,92.43 55.88,125.57 29.59,33.14 39.29,53.26 52.3,64.51 13.01,11.24 -5.19,21.29 -31.23,40.82 -26.04,19.53 -190.29,106.73 -265.45,190.17 -75.16,83.44 -189.64,202.52 -259.46,352.24 -36.18,77.57 -64.89,131.08 -86.72,236.91 -13.64,66.11 -19.38,120.71 -11.07,120.71 288.71,0 2010.64,0 2234.36,0 53.29,0 83.74,0 99.66,0 15.34,0 15.94,-103.06 11.24,-119.26z"/>
   </clipPath>
 </defs>
 <g id="Capa_x0020_1">
  <metadata id="CorelCorpID_0Corel-Layer"/>
  <path class="fil0" d="M2641.36 2791.56c-31.95,-110.07 -80.8,-286.82 -179.04,-446.01 -98.24,-159.19 -152.4,-176.38 -282,-254.49 -8.94,-5.39 -194.21,-87.84 -202.17,-115.43 -7.86,-27.24 43.36,-119.44 55.79,-156.13 12.43,-36.69 24.26,-78.12 15.98,-105.94 -8.28,-27.82 -36.69,-42.02 -62.14,-44.38 -25.45,-2.36 -47.94,7.1 -74.57,47.93 -26.63,40.84 -57.41,113.03 -73.98,150.32 -16.57,37.29 -18.94,39.65 -40.83,40.24 -21.9,0.59 -410.25,-21.3 -464.69,-15.98 -38.89,3.8 -132.05,29.01 -196.25,36.51 -25.65,2.99 -45.03,19.8 -57.01,5.8 -23.44,-27.39 -40.51,-57.88 -42.09,-59.34 -36.69,-33.73 -52.07,-123.26 -96.48,-152.19 -44.41,-28.93 -62.21,-19.32 -78.78,-5.7 -16.57,13.61 -24.54,24.79 -21.23,63.11 3.31,38.31 26.29,92.43 55.88,125.57 29.59,33.14 39.29,53.26 52.3,64.51 13.01,11.24 -5.19,21.29 -31.23,40.82 -26.04,19.53 -190.29,106.73 -265.45,190.17 -75.16,83.44 -189.64,202.52 -259.46,352.24 -36.18,77.57 -64.89,131.08 -86.72,236.91 -13.64,66.11 -19.38,120.71 -11.07,120.71 288.71,0 2010.64,0 2234.36,0 53.29,0 83.74,0 99.66,0 15.34,0 15.94,-103.06 11.24,-119.26z"/>
  <g style="clip-path:url(#id0)">
   <g id="_3065392026256">
    <path id="_1" class="fil1 str0" d="M273.12 4897.42c12.62,47.38 19.82,141.68 190.75,199.84 170.92,58.16 505.58,80.18 708.04,84.68 202.46,4.5 272.74,-8.53 339.29,-12.83 66.55,-4.3 129.36,0.11 170.33,-0.78 40.96,-0.89 60.08,-7.09 242.91,-23.75 182.83,-16.66 529.38,-43.77 716.99,-122.49 187.61,-78.73 216.27,-209.06 233.21,-489.42 16.94,-280.36 22.16,-710.73 -11.58,-938.42 -33.74,-227.69 -106.43,-252.69 -172.55,-299.68 -66.12,-46.98 -125.68,-115.95 -225.17,-150.46 -99.49,-34.51 -238.93,-34.55 -482.75,-38.05 -243.83,-3.5 -592.05,-10.45 -854.69,14.78 -262.64,25.23 -439.69,82.63 -591.3,139 -151.6,56.37 -277.76,111.69 -406.66,176.8 -128.9,65.11 -260.55,140.01 -316.18,331.11 -55.63,191.1 -35.25,498.4 23.36,688.34 58.6,189.94 155.43,262.52 226.35,308.46 70.92,45.94 115.93,65.24 147.46,75.13 31.53,9.88 49.57,10.36 62.2,57.74z"/>
    <path class="fil2" d="M2618.49 2962.93c-183.98,-39.06 -501.65,-77.21 -746.72,-103.09 -245.08,-25.88 -417.54,-39.51 -577.01,-44.78 -159.48,-5.27 -305.96,-2.18 -445.07,3.46 -139.11,5.65 -270.83,13.85 -421.64,29.46 -150.81,15.6 -320.7,38.61 -413.44,72.44 -92.74,33.82 -108.32,78.45 -66.92,132.95 41.4,54.5 139.79,118.87 190.88,177.74 51.09,58.87 54.88,112.25 447.43,138.97 392.55,26.72 1173.86,26.78 1634.59,4.09 460.72,-22.69 600.85,-68.11 661.16,-120.61 60.3,-52.5 40.78,-112.05 5.88,-161.82 -34.9,-49.77 -85.16,-89.75 -269.14,-128.81z"/>
    <path class="fil0 str0" d="M246.79 3279.26c68.91,12.99 168.97,25.34 278.46,34.37 109.49,9.02 228.41,14.72 349.65,21.79 121.24,7.06 244.8,15.48 488.6,15.01 243.8,-0.48 607.84,-9.85 831.32,-28.67 223.48,-18.83 306.4,-47.1 369.61,-66.43 63.21,-19.33 106.72,-29.71 122.41,-61.39 15.69,-31.68 3.57,-84.67 56.94,-173.56 53.36,-88.89 172.21,-213.67 210.83,-375.6 38.62,-161.93 -2.97,-360.99 -97.12,-432 -94.15,-71.01 -240.85,-13.96 -394.53,-36.51 -153.68,-22.55 -314.34,-124.7 -428.15,-189.24 -113.81,-64.55 -180.77,-91.5 -236.25,-102.49 -55.48,-11 -99.49,-6.05 -165.26,-8.57 -65.77,-2.52 -153.31,-12.51 -238.63,-9.57 -85.32,2.95 -168.43,18.84 -248.85,39.88 -80.43,21.05 -158.17,47.25 -224.67,76.93 -66.5,29.68 -121.76,62.84 -231.1,132.34 -109.34,69.49 -272.76,175.32 -400.52,268.34 -127.76,93.02 -219.87,173.24 -293.4,267.58 -73.53,94.33 -128.5,202.78 -133.7,300.08 -5.2,97.3 39.37,183.46 87.65,229.52 48.28,46.05 100.28,51.99 145.16,61.79 44.88,9.79 82.64,23.43 151.55,36.42z"/>
   </g>
  </g>
  <g>
   <path class="fil3" d="M941.87 1722.49c-44.41,-28.93 -62.21,-19.32 -78.78,-5.7 -16.57,13.61 -24.54,24.79 -21.23,63.11 3.31,38.31 26.29,92.43 55.88,125.57 29.59,33.14 39.29,53.26 52.3,64.51 13.01,11.24 -5.19,21.29 -31.23,40.82 -26.04,19.53 -190.29,106.73 -265.45,190.17 -75.16,83.44 -189.64,202.52 -259.46,352.24 -36.18,77.57 -64.89,131.08 -86.72,236.91 -13.64,66.11 -19.38,120.71 -11.07,120.71 288.71,0 2010.64,0 2234.36,0 53.29,0 83.74,0 99.66,0 15.34,0 15.94,-103.06 11.24,-119.26 -31.95,-110.07 -80.8,-286.82 -179.04,-446.01 -98.24,-159.19 -152.4,-176.38 -282,-254.49 -8.94,-5.39 -194.21,-87.84 -202.17,-115.43 -7.86,-27.24 43.36,-119.44 55.79,-156.13 12.43,-36.69 24.26,-78.12 15.98,-105.94 -8.28,-27.82 -36.69,-42.02 -62.14,-44.38 -25.45,-2.36 -47.94,7.1 -74.57,47.93 -26.63,40.84 -57.41,113.03 -73.98,150.32 -16.57,37.29 -18.94,39.65 -40.83,40.24 -21.9,0.59 -410.25,-21.3 -464.69,-15.98 -38.89,3.8 -132.05,29.01 -196.25,36.51 -25.65,2.99 -45.03,19.8 -57.01,5.8 -23.44,-27.39 -40.51,-57.88 -42.09,-59.34 -36.69,-33.73 -52.07,-123.26 -96.48,-152.19zm1728.06 1045.32l4.14 14.28c2.51,8.64 4.05,27.91 4.05,48.7 0,17.82 -0.99,38.61 -3.31,56.11 -3.75,28.23 -14,50.55 -34.14,56.47l0.01 0.04c-3.67,1.09 -7.19,1.61 -10.57,1.61l-99.66 0 -2234.36 0c-2.44,0 -4.8,-0.26 -7.04,-0.7l-0.13 -0.13c-15.84,-3.27 -25.36,-13.63 -29.08,-30.2l0 -0.13c-1.2,-5.39 -1.78,-11.5 -1.78,-18.16 0,-22.54 5.93,-64.84 15.73,-112.36 20.3,-98.42 45.95,-152.76 77.63,-219.9 0.76,-1.61 1.5,-3.19 11.5,-24.62 65.83,-141.17 168.79,-254.56 244.59,-338.03 6.33,-6.97 12.47,-13.73 20.47,-22.62 60.53,-67.21 171.87,-134.47 233.68,-171.8 18.65,-11.26 32.59,-19.69 36.71,-22.78 2.27,-1.7 6.47,-4.77 10.49,-7.71l0.6 -0.44c-2,-2.66 -4.06,-5.47 -6.26,-8.47 -7.59,-10.36 -17.21,-23.5 -30.85,-38.77 -16.96,-19 -31.86,-43.42 -42.95,-68.35 -11.74,-26.38 -19.61,-53.93 -21.6,-76.98 -2.14,-24.75 -0.18,-41.89 5.43,-56.17 6.37,-16.21 15.76,-25.94 28.22,-36.18 13.09,-10.75 27.09,-19.95 49.25,-20.84 18.68,-0.76 40.82,5.45 69.72,24.28 32.6,21.23 50.32,59.85 67.54,97.39 11,23.96 21.74,47.37 33.33,58.14l0.01 -0.01c3.82,3.49 6.06,7.1 9.74,12.98 5.7,9.08 17.5,27.91 32.11,45.64l-1.35 -3.98c-0.53,-0.93 -0.79,-1.56 -0.56,-1.64 9.2,-3.14 19.47,-6.64 32.33,-8.14 33.12,-3.87 75.39,-12.9 113.08,-20.96 33.43,-7.14 63.42,-13.55 83.84,-15.55 39.94,-3.9 236.82,5.38 363.21,11.34 56.43,2.66 98.6,4.64 103.89,4.5 0.59,-0.01 0.43,0.62 0.03,1.4l0.02 0.98c1.68,-2.7 4.96,-9.92 10.45,-22.28l-0.11 -0.05 5.92 -13.4c17.71,-40.16 45.3,-102.73 70.73,-141.72 16.43,-25.2 32.44,-41.23 48.94,-50.98 19.11,-11.3 37.7,-14.12 57.27,-12.31 19.3,1.79 39.95,8.52 56.84,20.59 15.94,11.38 28.77,27.26 34.93,47.96 5.87,19.73 4.98,42.37 0.58,65.66 -3.87,20.53 -10.36,41.48 -16.96,60.97 -4.47,13.21 -12.53,30.91 -21.39,50.41 -16.29,35.82 -35.88,78.9 -33.99,85.42 2.21,7.67 117.91,62.44 164.01,84.26 11.81,5.59 19.73,9.34 22.93,11.27l0.13 0c22.38,13.49 34.2,20.42 45.08,26.8 103.19,60.52 157.92,92.63 248.27,239.03 96.55,156.46 146.11,327.72 178.64,440.15zm-873.02 -890.78c0.2,-0.2 0.45,-0.53 0.74,-1l-0.02 -0.98c-0.87,1.71 -2.89,4.12 -0.72,1.99zm-690.57 34.83c6.06,7.08 -2.11,-3.51 -4.53,-7.77l1.35 3.98c1.05,1.27 2.11,2.54 3.18,3.79z"/>
  </g>
  <path class="fil4" d="M1114.48 2413.19c81.99,0 148.46,65.48 148.46,146.24 0,80.77 -66.47,146.24 -148.46,146.24 -81.99,0 -148.46,-65.48 -148.46,-146.24 0,-80.77 66.47,-146.24 148.46,-146.24z"/>
  <path class="fil4" d="M1869.34 2413.19c81.99,0 148.46,65.48 148.46,146.24 0,80.77 -66.47,146.24 -148.46,146.24 -81.99,0 -148.46,-65.48 -148.46,-146.24 0,-80.77 66.47,-146.24 148.46,-146.24z"/>
  <rect class="fil1" width="2926.21" height="2926.21" rx="196.66" ry="256.39"/>
 </g>
</svg>
