<?xml version="1.0" encoding="UTF-8"?>
<!DOCTYPE svg PUBLIC "-//W3C//DTD SVG 1.0//EN" "http://www.w3.org/TR/2001/REC-SVG-20010904/DTD/svg10.dtd">
<!-- Creator: CorelDRAW -->
<svg xmlns="http://www.w3.org/2000/svg" xml:space="preserve" width="86.6823mm" height="86.7029mm" version="1.0" style="shape-rendering:geometricPrecision; text-rendering:geometricPrecision; image-rendering:optimizeQuality; fill-rule:evenodd; clip-rule:evenodd"
viewBox="0 0 2986.38 2987.09"
 xmlns:xlink="http://www.w3.org/1999/xlink"
 xmlns:xodm="http://www.corel.com/coreldraw/odm/2003">
 <defs>
  <style type="text/css">
   <![CDATA[
    .str1 {stroke:#BAD44C;stroke-width:34.46;stroke-miterlimit:22.9256}
    .str0 {stroke:#6E6E6E;stroke-width:36.46;stroke-miterlimit:22.9256}
    .fil2 {fill:none}
    .fil0 {fill:#4A4A4A}
    .fil3 {fill:#65AD4F}
    .fil1 {fill:#6DBE4F}
    .fil4 {fill:#BDBFC1}
    .fil5 {fill:#FEFEFE}
    .fil6 {fill:#E6E6E6;fill-rule:nonzero}
   ]]>
  </style>
   <clipPath id="id0">
    <path d="M2680.99 2832.41c-32.21,-110.96 -81.45,-289.14 -180.49,-449.63 -99.04,-160.48 -153.64,-177.81 -284.29,-256.55 -9.01,-5.43 -195.78,-88.56 -203.8,-116.37 -7.92,-27.46 43.71,-120.4 56.24,-157.39 12.53,-36.99 24.46,-78.75 16.11,-106.79 -8.35,-28.04 -36.99,-42.36 -62.64,-44.74 -25.65,-2.38 -48.33,7.16 -75.17,48.32 -26.85,41.17 -57.87,113.95 -74.58,151.54 -16.71,37.59 -19.09,39.97 -41.16,40.57 -22.07,0.6 -413.57,-21.47 -468.46,-16.11 -39.21,3.83 -133.12,29.25 -197.84,36.8 -25.86,3.02 -45.4,19.96 -57.48,5.85 -23.63,-27.61 -40.84,-58.35 -42.43,-59.82 -36.98,-34 -52.49,-124.26 -97.26,-153.42 -44.77,-29.16 -62.72,-19.47 -79.42,-5.75 -16.71,13.72 -24.74,24.99 -21.4,63.62 3.34,38.62 26.5,93.18 56.33,126.59 29.83,33.41 39.61,53.69 52.73,65.03 13.12,11.33 -5.23,21.46 -31.48,41.15 -26.25,19.69 -191.83,107.6 -267.6,191.72 -75.77,84.12 -191.17,204.16 -261.57,355.1 -36.47,78.2 -65.42,132.14 -87.43,238.83 -13.75,66.65 -19.54,121.69 -11.16,121.69 291.05,0 2026.93,0 2252.46,0 53.72,0 84.41,0 100.47,0 15.46,0 16.07,-103.9 11.33,-120.23z"/>
   </clipPath>
 </defs>
 <g id="Capa_x0020_1">
  <metadata id="CorelCorpID_0Corel-Layer"/>
  <rect class="fil0 str0" x="18.23" y="18.23" width="2949.92" height="2949.92" rx="198.26" ry="258.47"/>
  <path class="fil1" d="M2680.99 2832.41c-32.21,-110.96 -81.45,-289.14 -180.49,-449.63 -99.04,-160.48 -153.64,-177.81 -284.29,-256.55 -9.01,-5.43 -195.78,-88.56 -203.8,-116.37 -7.92,-27.46 43.71,-120.4 56.24,-157.39 12.53,-36.99 24.46,-78.75 16.11,-106.79 -8.35,-28.04 -36.99,-42.36 -62.64,-44.74 -25.65,-2.38 -48.33,7.16 -75.17,48.32 -26.85,41.17 -57.87,113.95 -74.58,151.54 -16.71,37.59 -19.09,39.97 -41.16,40.57 -22.07,0.6 -413.57,-21.47 -468.46,-16.11 -39.21,3.83 -133.12,29.25 -197.84,36.8 -25.86,3.02 -45.4,19.96 -57.48,5.85 -23.63,-27.61 -40.84,-58.35 -42.43,-59.82 -36.98,-34 -52.49,-124.26 -97.26,-153.42 -44.77,-29.16 -62.72,-19.47 -79.42,-5.75 -16.71,13.72 -24.74,24.99 -21.4,63.62 3.34,38.62 26.5,93.18 56.33,126.59 29.83,33.41 39.61,53.69 52.73,65.03 13.12,11.33 -5.23,21.46 -31.48,41.15 -26.25,19.69 -191.83,107.6 -267.6,191.72 -75.77,84.12 -191.17,204.16 -261.57,355.1 -36.47,78.2 -65.42,132.14 -87.43,238.83 -13.75,66.65 -19.54,121.69 -11.16,121.69 291.05,0 2026.93,0 2252.46,0 53.72,0 84.41,0 100.47,0 15.46,0 16.07,-103.9 11.33,-120.23z"/>
  <g style="clip-path:url(#id0)">
   <g id="_3065392001104">
    <path id="_1" class="fil2 str1" d="M293.57 4955.33c12.72,47.77 19.98,142.83 192.29,201.46 172.31,58.63 509.67,80.83 713.78,85.36 204.1,4.54 274.95,-8.6 342.04,-12.93 67.09,-4.34 130.41,0.11 171.71,-0.78 41.29,-0.9 60.56,-7.15 244.88,-23.94 184.31,-16.79 533.67,-44.12 722.8,-123.49 189.13,-79.36 218.02,-210.76 235.1,-493.38 17.08,-282.63 22.34,-716.49 -11.67,-946.03 -34.01,-229.54 -107.29,-254.74 -173.95,-302.11 -66.66,-47.36 -126.69,-116.89 -226.99,-151.68 -100.3,-34.79 -240.86,-34.83 -486.67,-38.36 -245.8,-3.53 -596.85,-10.53 -861.62,14.9 -264.77,25.43 -443.26,83.3 -596.09,140.12 -152.83,56.82 -280.01,112.59 -409.96,178.23 -129.95,65.63 -262.66,141.14 -318.74,333.79 -56.08,192.65 -35.53,502.44 23.54,693.92 59.08,191.48 156.69,264.65 228.18,310.96 71.49,46.31 116.87,65.77 148.65,75.74 31.79,9.96 49.98,10.44 62.7,58.21z"/>
    <path class="fil3" d="M2657.94 3005.17c-185.47,-39.38 -505.71,-77.83 -752.77,-103.92 -247.06,-26.09 -420.92,-39.83 -581.69,-45.14 -160.77,-5.31 -308.44,-2.2 -448.67,3.49 -140.23,5.69 -273.02,13.96 -425.05,29.69 -152.04,15.73 -323.3,38.93 -416.79,73.02 -93.49,34.09 -109.2,79.09 -67.46,134.03 41.74,54.94 140.92,119.83 192.42,179.18 51.5,59.35 55.32,113.16 451.05,140.1 395.73,26.93 1183.38,27 1647.83,4.13 464.45,-22.87 605.72,-68.67 666.51,-121.58 60.79,-52.92 41.11,-112.96 5.93,-163.13 -35.18,-50.18 -85.85,-90.48 -271.32,-129.86z"/>
    <path class="fil1 str1" d="M267.02 3324.06c69.47,13.1 170.34,25.55 280.72,34.64 110.38,9.1 230.26,14.84 352.49,21.96 122.22,7.12 246.78,15.61 492.55,15.13 245.77,-0.48 612.77,-9.93 838.06,-28.91 225.29,-18.98 308.88,-47.49 372.61,-66.97 63.72,-19.49 107.58,-29.95 123.4,-61.89 15.82,-31.94 3.6,-85.36 57.4,-174.97 53.79,-89.61 173.6,-215.4 212.54,-378.64 38.94,-163.24 -3,-363.92 -97.91,-435.5 -94.91,-71.58 -242.8,-14.08 -397.73,-36.81 -154.93,-22.73 -316.89,-125.71 -431.62,-190.78 -114.73,-65.07 -182.23,-92.24 -238.17,-103.33 -55.93,-11.09 -100.3,-6.1 -166.6,-8.64 -66.31,-2.54 -154.55,-12.62 -240.56,-9.64 -86.01,2.97 -169.79,18.99 -250.87,40.21 -81.08,21.22 -159.45,47.63 -226.49,77.55 -67.04,29.92 -122.75,63.35 -232.97,133.41 -110.23,70.05 -274.97,176.74 -403.76,270.52 -128.8,93.78 -221.65,174.65 -295.78,269.75 -74.13,95.09 -129.54,204.42 -134.78,302.51 -5.24,98.09 39.69,184.95 88.36,231.38 48.67,46.42 101.09,52.42 146.34,62.29 45.24,9.87 83.31,23.62 152.78,36.72z"/>
   </g>
  </g>
  <g>
   <path class="fil4" d="M967.73 1754.67c-44.77,-29.16 -62.72,-19.47 -79.42,-5.75 -16.71,13.72 -24.74,24.99 -21.4,63.62 3.34,38.62 26.5,93.18 56.33,126.59 29.83,33.41 39.61,53.69 52.73,65.03 13.12,11.33 -5.23,21.46 -31.48,41.15 -26.25,19.69 -191.83,107.6 -267.6,191.72 -75.77,84.12 -191.17,204.16 -261.57,355.1 -36.47,78.2 -65.42,132.14 -87.43,238.83 -13.75,66.65 -19.54,121.69 -11.16,121.69 291.05,0 2026.93,0 2252.46,0 53.72,0 84.41,0 100.47,0 15.46,0 16.07,-103.9 11.33,-120.23 -32.21,-110.96 -81.45,-289.14 -180.49,-449.63 -99.04,-160.48 -153.64,-177.81 -284.29,-256.55 -9.01,-5.43 -195.78,-88.56 -203.8,-116.37 -7.92,-27.46 43.71,-120.4 56.24,-157.39 12.53,-36.99 24.46,-78.75 16.11,-106.79 -8.35,-28.04 -36.99,-42.36 -62.64,-44.74 -25.65,-2.38 -48.33,7.16 -75.17,48.32 -26.85,41.17 -57.87,113.95 -74.58,151.54 -16.71,37.59 -19.09,39.97 -41.16,40.57 -22.07,0.6 -413.57,-21.47 -468.46,-16.11 -39.21,3.83 -133.12,29.25 -197.84,36.8 -25.86,3.02 -45.4,19.96 -57.48,5.85 -23.63,-27.61 -40.84,-58.35 -42.43,-59.82 -36.98,-34 -52.49,-124.26 -97.26,-153.42zm1742.06 1053.78l4.17 14.39c2.53,8.71 4.09,28.14 4.09,49.09 0,17.96 -1,38.93 -3.33,56.56 -3.78,28.46 -14.12,50.96 -34.41,56.93l0.01 0.04c-3.7,1.1 -7.25,1.62 -10.65,1.62l-100.47 0 -2252.46 0c-2.46,0 -4.84,-0.26 -7.1,-0.71l-0.13 -0.13c-15.97,-3.29 -25.57,-13.74 -29.32,-30.45l0 -0.13c-1.21,-5.43 -1.8,-11.59 -1.8,-18.31 0,-22.72 5.98,-65.37 15.86,-113.27 20.46,-99.22 46.32,-154 78.25,-221.68 0.76,-1.62 1.52,-3.21 11.6,-24.82 66.37,-142.31 170.16,-256.62 246.58,-340.77 6.38,-7.03 12.57,-13.85 20.64,-22.8 61.02,-67.75 173.26,-135.56 235.57,-173.19 18.8,-11.36 32.85,-19.85 37.01,-22.97 2.28,-1.71 6.53,-4.81 10.57,-7.77l0.61 -0.45c-2.02,-2.68 -4.09,-5.51 -6.31,-8.54 -7.65,-10.44 -17.35,-23.69 -31.1,-39.08 -17.1,-19.16 -32.12,-43.77 -43.3,-68.91 -11.83,-26.59 -19.77,-54.37 -21.77,-77.6 -2.16,-24.95 -0.19,-42.23 5.47,-56.62 6.42,-16.34 15.89,-26.15 28.45,-36.47 13.2,-10.84 27.31,-20.11 49.65,-21.01 18.83,-0.76 41.15,5.5 70.29,24.47 32.86,21.41 50.73,60.34 68.09,98.18 11.09,24.16 21.91,47.75 33.6,58.61l0.01 -0.01c3.86,3.52 6.1,7.16 9.82,13.08 5.74,9.16 17.65,28.14 32.37,46.01l-1.36 -4.01c-0.53,-0.94 -0.79,-1.57 -0.56,-1.65 9.27,-3.16 19.62,-6.69 32.59,-8.21 33.38,-3.9 76,-13.01 114,-21.13 33.7,-7.2 63.93,-13.66 84.51,-15.68 40.26,-3.93 238.74,5.43 366.15,11.43 56.88,2.68 99.39,4.68 104.73,4.54 0.59,-0.01 0.43,0.62 0.03,1.41l0.02 0.99c1.7,-2.72 5,-10 10.53,-22.46l-0.11 -0.05 5.97 -13.51c17.85,-40.48 45.67,-103.57 71.3,-142.87 16.56,-25.4 32.7,-41.56 49.34,-51.4 19.26,-11.39 38.01,-14.24 57.73,-12.41 19.46,1.81 40.27,8.59 57.3,20.76 16.07,11.48 29,27.48 35.22,48.35 5.92,19.89 5.02,42.72 0.58,66.19 -3.9,20.7 -10.44,41.81 -17.1,61.46 -4.51,13.32 -12.63,31.16 -21.57,50.82 -16.42,36.11 -36.17,79.54 -34.27,86.12 2.23,7.73 118.87,62.95 165.34,84.94 11.91,5.64 19.89,9.42 23.12,11.37l0.13 0c22.56,13.59 34.47,20.59 45.45,27.02 104.02,61.01 159.2,93.38 250.28,240.97 97.33,157.72 147.29,330.38 180.09,443.71zm-880.09 -898c0.2,-0.2 0.45,-0.54 0.75,-1.01l-0.02 -0.99c-0.88,1.72 -2.91,4.15 -0.73,2zm-696.17 35.11c6.11,7.14 -2.13,-3.53 -4.56,-7.83l1.36 4.01c1.05,1.28 2.13,2.56 3.21,3.82z"/>
  </g>
  <path class="fil5" d="M1141.74 2450.97c82.65,0 149.66,66.01 149.66,147.43 0,81.42 -67.01,147.43 -149.66,147.43 -82.65,0 -149.66,-66.01 -149.66,-147.43 0,-81.42 67.01,-147.43 149.66,-147.43z"/>
  <path class="fil5" d="M1902.72 2450.97c82.65,0 149.66,66.01 149.66,147.43 0,81.42 -67.01,147.43 -149.66,147.43 -82.65,0 -149.66,-66.01 -149.66,-147.43 0,-81.42 67.01,-147.43 149.66,-147.43z"/>
  <polygon class="fil6" points="471.3,413.92 809.7,698.2 471.3,983.17 393.55,903.88 642.21,699.23 393.55,493.21 "/>
  <polygon id="_1_0" class="fil6" points="860.9,1177.37 860.9,1080.78 1426.04,1080.78 1426.04,1177.37 "/>
 </g>
</svg>
