<?xml version="1.0" encoding="UTF-8"?>
<!DOCTYPE svg PUBLIC "-//W3C//DTD SVG 1.0//EN" "http://www.w3.org/TR/2001/REC-SVG-20010904/DTD/svg10.dtd">
<!-- Creator: CorelDRAW -->
<svg xmlns="http://www.w3.org/2000/svg" xml:space="preserve" width="254mm" height="152.4mm" version="1.0" style="shape-rendering:geometricPrecision; text-rendering:geometricPrecision; image-rendering:optimizeQuality; fill-rule:evenodd; clip-rule:evenodd"
viewBox="0 0 7146.75 4288.05"
 xmlns:xlink="http://www.w3.org/1999/xlink"
 xmlns:xodm="http://www.corel.com/coreldraw/odm/2003">
 <defs>
  <style type="text/css">
   <![CDATA[
    .str2 {stroke:#373435;stroke-width:5.63;stroke-miterlimit:22.9256;stroke-opacity:0.278431}
    .str0 {stroke:#BAD44C;stroke-width:28.14;stroke-miterlimit:22.9256}
    .str1 {stroke:#BDBFC1;stroke-width:14.07;stroke-miterlimit:22.9256}
    .fil0 {fill:none}
    .fil6 {fill:#606062}
    .fil2 {fill:#65AD4F}
    .fil4 {fill:#68B750}
    .fil1 {fill:#6DBE4F}
    .fil7 {fill:#96989A}
    .fil3 {fill:#BDBFC1}
    .fil5 {fill:#FEFEFE}
    .fil10 {fill:white}
    .fil9 {fill:#373435;fill-rule:nonzero}
    .fil8 {fill:#BFBFBF;fill-opacity:0.278431}
   ]]>
  </style>
   <clipPath id="id0">
    <path d="M5838.16 3488.67c22.53,85.04 67.62,251.64 89.18,337.89 21.56,86.24 19.6,92.12 54.88,106.82 35.28,14.7 107.8,38.22 197.96,51.94 90.16,13.72 197.96,17.64 278.32,1.96 80.36,-15.68 133.28,-50.96 158.76,-70.56 25.48,-19.6 23.52,-23.52 11.76,-151.9 -11.76,-128.38 -33.32,-381.22 -45.08,-507.64 -11.76,-126.42 -13.72,-126.42 0,-135.24 13.72,-8.82 43.12,-26.46 57.82,-157.78 14.7,-131.32 14.7,-376.32 14.7,-603.69 0,-227.36 0,-437.08 -1.92,-551.21 -1.92,-114.13 -5.76,-132.65 -33.02,-155.55 -27.26,-22.91 -77.93,-50.19 -105.21,-63.83 -27.29,-13.64 -31.19,-13.64 -34.6,-13.64 -3.41,0 -6.33,0 4.39,-6.33 10.72,-6.33 35.08,-19 63.83,-40.93 28.75,-21.93 61.88,-53.11 79.42,-82.83 17.54,-29.72 19.49,-57.98 -6.82,-148.61 -26.31,-90.63 -80.88,-243.62 -161.76,-374.69 -80.88,-131.07 -188.07,-240.21 -294.78,-304.52 -106.71,-64.32 -212.92,-83.81 -266.03,-93.55 -53.11,-9.75 -53.11,-9.75 -47.75,-22.9 5.36,-13.16 16.08,-39.47 26.31,-69.68 10.23,-30.21 19.98,-64.32 13.16,-87.22 -6.82,-22.9 -30.21,-34.59 -51.16,-36.54 -20.95,-1.95 -39.47,5.84 -61.39,39.46 -21.93,33.62 -47.26,93.06 -60.91,123.76 -13.64,30.7 -15.59,32.64 -33.62,33.13 -18.03,0.49 -52.13,-0.49 -96.96,3.9 -44.83,4.38 -100.37,14.13 -150.56,31.67 -50.19,17.54 -95.01,42.87 -118.4,55.54 -23.39,12.67 -25.34,12.67 -55.54,-15.1 -30.21,-27.77 -88.68,-83.32 -125.24,-107.13 -36.56,-23.82 -51.22,-15.9 -64.86,-4.7 -13.64,11.21 -26.27,25.71 -17.48,51.96 8.79,26.25 39,64.26 63.36,91.54 24.36,27.28 42.88,43.85 53.6,53.11 10.72,9.26 13.64,11.2 -7.8,27.28 -21.44,16.08 -67.24,46.29 -129.12,114.99 -61.88,68.7 -139.84,175.89 -197.33,299.16 -57.49,123.27 -94.52,262.62 -106.7,354.22 -12.18,91.6 0.49,135.45 8.77,158.35 8.28,22.9 12.18,24.85 44.34,28.75 32.16,3.9 92.57,9.74 124.24,12.67 31.67,2.92 34.59,2.92 16.54,14.23 -18.06,11.3 -57.1,33.9 -94.02,60.03 -36.92,26.12 -71.72,55.76 -106.51,88.63 -34.8,32.86 -69.59,68.95 -93.43,106.97 -23.84,38.02 -36.73,77.97 -40.6,130.16 -3.87,52.19 1.29,116.63 22.55,166.89 21.26,50.26 58.64,86.35 90.86,110.19 32.22,23.84 59.28,35.44 72.17,43.82 12.89,8.38 11.6,13.53 9.66,83.77 -1.93,70.24 -4.51,205.55 -7.09,312.52 -2.58,106.96 -5.15,185.58 -0.26,234.1 4.89,48.52 17.25,66.93 37.52,91.52 20.28,24.59 48.47,55.34 66.41,72.64 17.94,17.3 25.63,21.14 30.11,24.99 4.49,3.84 5.77,7.69 31.72,101.88 25.95,94.19 76.57,278.72 101.56,370.35 24.99,91.62 24.35,90.34 41.97,98.67 17.62,8.33 53.5,26.27 96.75,40.37 43.25,14.09 93.87,24.35 165.63,25.63 71.76,1.28 164.67,-6.41 231.95,-20.18 67.28,-13.78 108.93,-33.64 129.11,-47.42 20.18,-13.78 18.9,-21.46 14.41,-80.41 -4.49,-58.95 -12.17,-169.16 -16.66,-227.46 -4.49,-58.31 -5.77,-64.71 8.33,-66.32 14.09,-1.6 43.57,1.6 62.48,2.42 18.9,0.82 27.24,-0.75 31.4,0.21 4.16,0.96 4.16,4.44 26.69,89.48z"/>
   </clipPath>
   <clipPath id="id1">
    <path d="M4633.94 2396.9c33.97,-0.74 73.11,-5.91 122.96,-16.24 49.85,-10.34 110.41,-25.85 147.33,-44.31 36.93,-18.46 50.22,-39.88 60.56,-67.2 10.34,-27.33 17.72,-60.56 19.93,-97.85 2.21,-37.3 -0.74,-78.65 -7.75,-114.47 -7.02,-35.82 -18.09,-66.1 -32.13,-92.31 -14.03,-26.22 -31.02,-48.37 -50.96,-64.99 -19.94,-16.62 -42.84,-27.7 -62.63,-36.56 -19.79,-8.86 -36.49,-15.49 -63.81,-20.29 -27.33,-4.8 -65.28,-7.77 -95.71,-8.14 -30.42,-0.37 -53.32,1.84 -77.32,8.12 -24,6.28 -49.11,16.61 -76.43,39.14 -27.33,22.53 -56.87,57.24 -75.84,84.41 -18.97,27.17 -27.37,46.82 -32.54,73.4 -5.17,26.58 -7.11,60.12 -6.96,91.28 0.14,31.17 2.36,59.97 7.89,86.55 5.54,26.59 14.4,50.96 25.48,68.68 11.07,17.72 24.37,28.8 42.46,45.05 18.09,16.25 40.98,37.66 66.83,50.22 25.85,12.55 54.65,16.25 88.62,15.51z"/>
   </clipPath>
   <clipPath id="id2">
    <path d="M6396.22 1850.31c-23.24,-42.81 -62.38,-91.73 -108.85,-123.53 -46.48,-31.8 -100.29,-46.48 -166.95,-51.37 -66.66,-4.89 -146.16,-0 -199.97,1.22 -53.82,1.22 -81.95,-1.22 -111.91,-4.89 -29.97,-3.67 -61.77,-8.56 -107.63,-25.07 -45.87,-16.51 -105.79,-44.64 -143.1,-72.16 -37.3,-27.52 -51.98,-54.43 -68.49,-72.77 -16.51,-18.35 -34.86,-28.13 -51.98,-29.36 -17.12,-1.22 -33.02,6.11 -45.26,28.13 -12.23,22.01 -20.79,58.7 -23.85,92.34 -3.06,33.63 -0.61,64.21 5.5,103.35 6.11,39.14 15.9,86.84 35.47,133.32 19.57,46.48 48.92,91.73 77.05,130.26 28.13,38.52 55.04,70.33 101.51,104.57 46.48,34.25 112.52,70.94 179.79,94.79 67.27,23.85 135.76,34.86 195.69,42.81 59.93,7.95 111.3,12.84 159,13.45 47.7,0.61 91.73,-3.06 132.7,-14.68 40.97,-11.62 78.89,-31.19 104.57,-51.98 25.68,-20.79 39.14,-42.81 49.53,-73.39 10.39,-30.58 17.73,-69.71 17.73,-107.63 0,-37.92 -7.34,-74.61 -30.58,-117.41z"/>
   </clipPath>
 </defs>
 <g id="Capa_x0020_1">
  <metadata id="CorelCorpID_0Corel-Layer"/>
  <rect class="fil0" x="-0" y="-0" width="7146.75" height="4288.05" rx="293.84" ry="394.19"/>
  <path class="fil1" d="M5838.16 3488.67c22.53,85.04 67.62,251.64 89.18,337.89 21.56,86.24 19.6,92.12 54.88,106.82 35.28,14.7 107.8,38.22 197.96,51.94 90.16,13.72 197.96,17.64 278.32,1.96 80.36,-15.68 133.28,-50.96 158.76,-70.56 25.48,-19.6 23.52,-23.52 11.76,-151.9 -11.76,-128.38 -33.32,-381.22 -45.08,-507.64 -11.76,-126.42 -13.72,-126.42 0,-135.24 13.72,-8.82 43.12,-26.46 57.82,-157.78 14.7,-131.32 14.7,-376.32 14.7,-603.69 0,-227.36 0,-437.08 -1.92,-551.21 -1.92,-114.13 -5.76,-132.65 -33.02,-155.55 -27.26,-22.91 -77.93,-50.19 -105.21,-63.83 -27.29,-13.64 -31.19,-13.64 -34.6,-13.64 -3.41,0 -6.33,0 4.39,-6.33 10.72,-6.33 35.08,-19 63.83,-40.93 28.75,-21.93 61.88,-53.11 79.42,-82.83 17.54,-29.72 19.49,-57.98 -6.82,-148.61 -26.31,-90.63 -80.88,-243.62 -161.76,-374.69 -80.88,-131.07 -188.07,-240.21 -294.78,-304.52 -106.71,-64.32 -212.92,-83.81 -266.03,-93.55 -53.11,-9.75 -53.11,-9.75 -47.75,-22.9 5.36,-13.16 16.08,-39.47 26.31,-69.68 10.23,-30.21 19.98,-64.32 13.16,-87.22 -6.82,-22.9 -30.21,-34.59 -51.16,-36.54 -20.95,-1.95 -39.47,5.84 -61.39,39.46 -21.93,33.62 -47.26,93.06 -60.91,123.76 -13.64,30.7 -15.59,32.64 -33.62,33.13 -18.03,0.49 -52.13,-0.49 -96.96,3.9 -44.83,4.38 -100.37,14.13 -150.56,31.67 -50.19,17.54 -95.01,42.87 -118.4,55.54 -23.39,12.67 -25.34,12.67 -55.54,-15.1 -30.21,-27.77 -88.68,-83.32 -125.24,-107.13 -36.56,-23.82 -51.22,-15.9 -64.86,-4.7 -13.64,11.21 -26.27,25.71 -17.48,51.96 8.79,26.25 39,64.26 63.36,91.54 24.36,27.28 42.88,43.85 53.6,53.11 10.72,9.26 13.64,11.2 -7.8,27.28 -21.44,16.08 -67.24,46.29 -129.12,114.99 -61.88,68.7 -139.84,175.89 -197.33,299.16 -57.49,123.27 -94.52,262.62 -106.7,354.22 -12.18,91.6 0.49,135.45 8.77,158.35 8.28,22.9 12.18,24.85 44.34,28.75 32.16,3.9 92.57,9.74 124.24,12.67 31.67,2.92 34.59,2.92 16.54,14.23 -18.06,11.3 -57.1,33.9 -94.02,60.03 -36.92,26.12 -71.72,55.76 -106.51,88.63 -34.8,32.86 -69.59,68.95 -93.43,106.97 -23.84,38.02 -36.73,77.97 -40.6,130.16 -3.87,52.19 1.29,116.63 22.55,166.89 21.26,50.26 58.64,86.35 90.86,110.19 32.22,23.84 59.28,35.44 72.17,43.82 12.89,8.38 11.6,13.53 9.66,83.77 -1.93,70.24 -4.51,205.55 -7.09,312.52 -2.58,106.96 -5.15,185.58 -0.26,234.1 4.89,48.52 17.25,66.93 37.52,91.52 20.28,24.59 48.47,55.34 66.41,72.64 17.94,17.3 25.63,21.14 30.11,24.99 4.49,3.84 5.77,7.69 31.72,101.88 25.95,94.19 76.57,278.72 101.56,370.35 24.99,91.62 24.35,90.34 41.97,98.67 17.62,8.33 53.5,26.27 96.75,40.37 43.25,14.09 93.87,24.35 165.63,25.63 71.76,1.28 164.67,-6.41 231.95,-20.18 67.28,-13.78 108.93,-33.64 129.11,-47.42 20.18,-13.78 18.9,-21.46 14.41,-80.41 -4.49,-58.95 -12.17,-169.16 -16.66,-227.46 -4.49,-58.31 -5.77,-64.71 8.33,-66.32 14.09,-1.6 43.57,1.6 62.48,2.42 18.9,0.82 27.24,-0.75 31.4,0.21 4.16,0.96 4.16,4.44 26.69,89.48z"/>
  <g style="clip-path:url(#id0)">
   <g id="_2669424033344">
    <path id="_1" class="fil0 str0" d="M4769.38 3119.77c65.33,31.57 181.12,94.29 321.85,146.97 140.72,52.67 306.38,95.29 420.14,115.32 113.76,20.03 175.62,17.47 216.99,16.56 41.37,-0.91 62.24,-0.17 72.68,0.2 10.44,0.37 10.44,0.37 13.7,-18.83 3.26,-19.19 9.78,-57.58 33.55,-100.1 23.77,-42.51 64.78,-89.15 120.66,-130.97 55.89,-41.82 126.65,-78.81 194.2,-97.3 67.55,-18.5 131.88,-18.5 193.8,-5.23 61.92,13.27 121.42,39.8 160.42,62.32 39,22.52 57.5,41.01 88.46,47.85 30.96,6.83 74.38,2.01 119.82,-36.59 45.43,-38.6 92.88,-110.97 118.75,-342.04 25.87,-231.07 30.16,-620.84 2.39,-827.04 -27.78,-206.21 -87.62,-228.85 -142.06,-271.4 -54.44,-42.55 -103.47,-105.01 -185.39,-136.26 -81.91,-31.25 -196.71,-31.29 -397.46,-34.46 -200.75,-3.17 -487.45,-9.46 -703.68,13.39 -216.23,22.85 -362.01,74.84 -486.82,125.88 -124.82,51.05 -228.68,101.15 -334.81,160.11 -106.13,58.97 -214.51,126.79 -260.31,299.86 -45.8,173.07 -29.02,451.37 19.23,623.39 48.25,172.02 127.97,237.75 186.36,279.35 58.39,41.61 95.45,59.09 121.4,68.04 25.96,8.95 40.82,9.38 106.14,40.96z"/>
    <path class="fil2" d="M6639.55 1350.57c-152.65,-25.95 -415.26,-46.66 -617.73,-59.73 -202.48,-13.06 -344.81,-18.48 -476.17,-17.46 -131.37,1.02 -251.77,8.48 -366.01,17.79 -114.24,9.31 -222.33,20.49 -345.86,38.39 -123.54,17.9 -262.52,42.54 -337.68,73.48 -75.15,30.94 -86.48,68.17 -50.58,111.62 35.89,43.44 118.99,93.09 322.7,138.92 203.72,45.83 528.06,87.85 851.88,96.64 323.82,8.8 647.12,-15.63 865.65,-48.88 218.52,-33.25 332.27,-75.33 380.11,-120.54 47.84,-45.21 29.78,-93.55 -0.59,-133.32 -30.38,-39.77 -73.07,-70.97 -225.72,-96.93z"/>
    <path class="fil1 str0" d="M4692.76 1651.07c56.74,10.7 139.11,20.86 229.26,28.29 90.14,7.43 188.06,12.12 287.87,17.94 99.82,5.81 201.54,12.75 363.09,2.76 161.55,-9.99 382.93,-36.89 531.12,-54.34 148.2,-17.45 223.21,-25.45 278.63,-33.72 55.42,-8.27 91.23,-16.81 139.95,-40.94 48.72,-24.13 110.34,-63.86 190.07,-135.08 79.73,-71.23 177.58,-173.97 209.38,-307.28 31.8,-133.32 -2.45,-297.21 -69.72,-431.13 -67.27,-133.93 -167.56,-237.89 -294.76,-259.29 -127.2,-21.4 -281.31,39.75 -383.06,65.65 -101.75,25.9 -151.15,16.54 -196.16,10.32 -45.01,-6.22 -85.63,-9.3 -141.97,-14.95 -56.34,-5.65 -128.41,-13.88 -213.05,-11.94 -84.64,1.94 -181.85,14.03 -239.79,34.74 -57.95,20.7 -76.64,50 -109.69,77.44 -33.06,27.44 -80.48,53.01 -178.76,106.85 -98.28,53.84 -247.44,135.95 -359.93,210.03 -112.49,74.08 -188.32,140.12 -248.86,217.79 -60.54,77.66 -105.8,166.95 -110.08,247.06 -4.28,80.11 32.41,151.05 72.16,188.96 39.75,37.91 82.56,42.81 119.51,50.87 36.95,8.06 68.04,19.29 124.78,29.99z"/>
   </g>
  </g>
  <g>
   <path class="fil3" d="M5838.16 3488.67c22.53,85.04 67.62,251.64 89.18,337.89 21.56,86.24 19.6,92.12 54.88,106.82 35.28,14.7 107.8,38.22 197.96,51.94 90.16,13.72 197.96,17.64 278.32,1.96 80.36,-15.68 133.28,-50.96 158.76,-70.56 25.48,-19.6 23.52,-23.52 11.76,-151.9 -11.76,-128.38 -33.32,-381.22 -45.08,-507.64 -11.76,-126.42 -13.72,-126.42 0,-135.24 13.72,-8.82 43.12,-26.46 57.82,-157.78 14.7,-131.32 14.7,-376.32 14.7,-603.69 0,-227.36 0,-437.08 -1.92,-551.21 -1.92,-114.13 -5.76,-132.65 -33.02,-155.55 -27.26,-22.91 -77.93,-50.19 -105.21,-63.83 -27.29,-13.64 -31.19,-13.64 -34.6,-13.64 -3.41,0 -6.33,0 4.39,-6.33 10.72,-6.33 35.08,-19 63.83,-40.93 28.75,-21.93 61.88,-53.11 79.42,-82.83 17.54,-29.72 19.49,-57.98 -6.82,-148.61 -26.31,-90.63 -80.88,-243.62 -161.76,-374.69 -80.88,-131.07 -188.07,-240.21 -294.78,-304.52 -106.71,-64.32 -212.92,-83.81 -266.03,-93.55 -53.11,-9.75 -53.11,-9.75 -47.75,-22.9 5.36,-13.16 16.08,-39.47 26.31,-69.68 10.23,-30.21 19.98,-64.32 13.16,-87.22 -6.82,-22.9 -30.21,-34.59 -51.16,-36.54 -20.95,-1.95 -39.47,5.84 -61.39,39.46 -21.93,33.62 -47.26,93.06 -60.91,123.76 -13.64,30.7 -15.59,32.64 -33.62,33.13 -18.03,0.49 -52.13,-0.49 -96.96,3.9 -44.83,4.38 -100.37,14.13 -150.56,31.67 -50.19,17.54 -95.01,42.87 -118.4,55.54 -23.39,12.67 -25.34,12.67 -55.54,-15.1 -30.21,-27.77 -88.68,-83.32 -125.24,-107.13 -36.56,-23.82 -51.22,-15.9 -64.86,-4.7 -13.64,11.21 -26.27,25.71 -17.48,51.96 8.79,26.25 39,64.26 63.36,91.54 24.36,27.28 42.88,43.85 53.6,53.11 10.72,9.26 13.64,11.2 -7.8,27.28 -21.44,16.08 -67.24,46.29 -129.12,114.99 -61.88,68.7 -139.84,175.89 -197.33,299.16 -57.49,123.27 -94.52,262.62 -106.7,354.22 -12.18,91.6 0.49,135.45 8.77,158.35 8.28,22.9 12.18,24.85 44.34,28.75 32.16,3.9 92.57,9.74 124.24,12.67 31.67,2.92 34.59,2.92 16.54,14.23 -18.06,11.3 -57.1,33.9 -94.02,60.03 -36.92,26.12 -71.72,55.76 -106.51,88.63 -34.8,32.86 -69.59,68.95 -93.43,106.97 -23.84,38.02 -36.73,77.97 -40.6,130.16 -3.87,52.19 1.29,116.63 22.55,166.89 21.26,50.26 58.64,86.35 90.86,110.19 32.22,23.84 59.28,35.44 72.17,43.82 12.89,8.38 11.6,13.53 9.66,83.77 -1.93,70.24 -4.51,205.55 -7.09,312.52 -2.58,106.96 -5.15,185.58 -0.26,234.1 4.89,48.52 17.25,66.93 37.52,91.52 20.28,24.59 48.47,55.34 66.41,72.64 17.94,17.3 25.63,21.14 30.11,24.99 4.49,3.84 5.77,7.69 31.72,101.88 25.95,94.19 76.57,278.72 101.56,370.35 24.99,91.62 24.35,90.34 41.97,98.67 17.62,8.33 53.5,26.27 96.75,40.37 43.25,14.09 93.87,24.35 165.63,25.63 71.76,1.28 164.67,-6.41 231.95,-20.18 67.28,-13.78 108.93,-33.64 129.11,-47.42 20.18,-13.78 18.9,-21.46 14.41,-80.41 -4.49,-58.95 -12.17,-169.16 -16.66,-227.46 -4.49,-58.31 -5.77,-64.71 8.33,-66.32 14.09,-1.6 43.57,1.6 62.48,2.42 18.9,0.82 27.24,-0.75 31.4,0.21 4.16,0.96 4.16,4.44 26.69,89.48zm-5.14 89.78c-6.66,-24.93 -12.37,-46.24 -22.01,-82.63 -4.29,-16.19 -7.77,-29.44 -10.61,-40.26l0 -0.11c-7.95,-30.31 17.96,-25.86 4.8,-28.89 -1.51,-0.35 0.13,0.39 -1.97,0.47 -5.52,0.19 -13.31,0.46 -24.38,-0.01 -7.55,-0.33 -13.77,-0.77 -20.24,-1.22 -14.74,-1.03 -30.64,-2.14 -37.94,-1.31 -13.68,1.55 13.92,1.48 15.95,27.6l0.68 8.71c2.22,28.84 5.5,74.33 8.74,119.27 2.83,39.23 5.63,78.01 7.92,108.19l0.42 5.45c5.21,68.11 5.94,77.73 -27.03,100.24 -12.96,8.84 -33.28,19.74 -61.39,30.07 -20.94,7.69 -46.79,15.26 -77.95,21.64 -34.76,7.12 -75.29,12.62 -115.92,16.15 -41.42,3.6 -84.18,5.25 -122.08,4.58 -37.53,-0.67 -69.45,-3.67 -97.58,-8.34 -28.73,-4.77 -53.54,-11.2 -76.3,-18.61 -39.9,-13 -73.95,-29.28 -93.84,-38.79l-0.04 0.09 -6.28 -2.99 0.02 -0.04 -0.54 -0.26c-14.83,-7 -22.21,-10.5 -31.41,-32.14 -5.59,-13.13 -11.62,-35.26 -23.62,-79.28l-1.36 -4.98c-12.13,-44.48 -30.31,-110.87 -48.76,-178.17 -19.54,-71.28 -39.42,-143.61 -52.77,-192.07l-0.03 0.01c-12.7,-46.09 -19.39,-70.18 -23.69,-83.94 -1.89,-6.04 2.61,-2.51 0.77,-4.09 -0.57,-0.49 -1.49,-1.15 -2.62,-1.96l-0.05 0.07c-5.44,-3.9 -13.87,-9.95 -28.65,-24.2 -9.05,-8.73 -21.16,-21.37 -33.85,-35.25 -12.27,-13.42 -24.63,-27.53 -34.76,-39.81 -11.57,-14.04 -20.95,-26.45 -28.49,-43.05 -7.42,-16.36 -12.51,-35.83 -15.3,-63.52 -4.58,-45.49 -2.87,-114.91 -0.57,-207.98l0.72 -29.52c1.17,-48.63 2.31,-101.51 3.39,-151.73 1.37,-63.46 2.65,-122.8 3.69,-160.9l0.44 -15.62c1.18,-41.05 3.98,-42.99 2.64,-43.86 -2.82,-1.83 -8.07,-4.67 -14.4,-8.09 -14.99,-8.09 -35.47,-19.17 -59.19,-36.72 -17.46,-12.92 -36.38,-29.23 -53.94,-49.26 -17.79,-20.3 -34.11,-44.38 -46.05,-72.58 -10.94,-25.87 -17.99,-54.77 -21.92,-83.89 -4.46,-32.99 -5.02,-66.36 -2.83,-95.86 2.1,-28.32 6.68,-53.45 14.01,-76.77 7.41,-23.58 17.62,-45.23 30.87,-66.36l0.05 0.03c12.9,-20.57 28.5,-40.32 45.41,-59.19 16.94,-18.89 34.81,-36.62 52.48,-53.31 17.91,-16.92 35.73,-32.93 53.67,-47.94 17.65,-14.77 36.16,-29.12 55.92,-43.1 14.26,-10.09 28.7,-19.59 42.14,-28.14 -8.1,-0.79 -16.23,-1.6 -24.01,-2.4 -21.36,-2.18 -40.61,-4.22 -52.02,-5.6 -20.31,-2.46 -32.08,-4.56 -42.88,-11.43l0 -0.11c-12.94,-8.23 -18.23,-18.12 -24.54,-35.57 -4.67,-12.91 -10.58,-31.72 -13.59,-60.01l-0.01 0c-2.87,-27.09 -3.03,-63.17 3.4,-111.53 6.72,-50.53 20.62,-114.68 41,-182.31 17.86,-59.3 40.69,-121.57 68.02,-180.16 26.62,-57.08 57.87,-111.22 90.07,-160.04 38.34,-58.13 77.61,-108 111.88,-146.05 56.15,-62.35 99.9,-94.26 124.78,-112.42 0.6,-0.44 1.18,-0.86 1.78,-1.3 -3.06,-2.81 -6.36,-5.91 -9.91,-9.33 -9.24,-8.93 -20.39,-20.35 -33.34,-34.85 -14.42,-16.15 -30.8,-35.89 -44.01,-54.98 -11.11,-16.05 -20.3,-32.12 -25.06,-46.35 -6.99,-20.88 -5.14,-37.8 1.32,-52.06 5.99,-13.23 15.37,-22.58 24.95,-30.45 10.78,-8.85 22.3,-16.42 40.55,-17.16 15.38,-0.62 33.61,4.49 57.4,19.99 33.85,22.05 83.94,68.42 116.63,98.69 3.75,3.47 -7.69,-7.12 12.35,11.3 11.65,10.71 17.43,15.96 18.46,16.23 3.1,0.81 -0.52,-2.33 4.77,-5.19l0.02 0.04 6.16 -3.35c25.39,-13.84 68.2,-37.18 116.28,-53.99 24.38,-8.52 49.81,-15.27 74.69,-20.5 28.77,-6.05 57.17,-10.13 82.46,-12.6 35.55,-3.48 64.63,-3.68 84.6,-3.82 5.37,-0.04 10.02,-0.07 14.34,-0.19 0.49,-0.01 0.35,0.51 0.03,1.15l0.02 0.8c1.39,-2.22 4.08,-8.17 8.6,-18.34l-0.09 -0.04 4.88 -11.05c14.58,-33.06 37.3,-84.57 58.22,-116.66 13.53,-20.75 26.7,-33.94 40.29,-41.98 15.73,-9.3 31.04,-11.63 47.15,-10.13 15.89,1.47 32.89,7.02 46.8,16.95 13.13,9.38 23.69,22.45 28.76,39.49 4.84,16.24 4.1,34.89 0.48,54.06 -3.19,16.9 -8.53,34.15 -13.96,50.2 -5.04,14.86 -10.49,29.55 -15.42,42.33 -5.88,15.26 -9.21,23.41 -11.44,28.88 -7.64,18.75 7.64,-18.75 26.76,-15.24 27.1,4.97 67.75,12.43 115.99,27.08 48.56,14.75 104.06,36.57 159.49,69.99 55.78,33.62 111.62,78.99 163.96,133.06 51.1,52.8 98.95,114.02 140.16,180.81 35.59,57.67 65.98,118.89 91.14,177.17 33.54,77.7 58.3,151.37 73.7,204.44 13.85,47.7 20.28,79.57 20.96,104.18 0.78,28.53 -5.53,47.28 -16.88,66.52 -9.16,15.51 -21.83,31.17 -35.92,45.86 -16.05,16.74 -34.07,32.34 -50.65,44.99 -9.62,7.34 -18.75,13.68 -27.1,19.14 15.43,7.98 34.86,18.54 53.49,29.84 17.1,10.38 33.65,21.47 46.19,32.01 18.62,15.65 29.23,29.74 35.46,59.18 5.02,23.7 6.56,58.29 7.55,117.37 2.03,120.65 2.03,327.45 2.03,551.64 0,110.79 -0,225.88 -1.95,338.3 -1.86,107.25 -5.57,202.3 -12.97,268.47 -16.05,143.32 -52.62,166.81 -70.15,178.07l-0.11 0 -0.34 0.22 0.03 0.05c-2.28,1.46 2.35,-0.72 8.99,69.11 0.87,9.15 1.89,19.91 3.76,39.97 7.99,85.92 16.32,180.97 24.45,273.73 8.83,100.77 17.52,199.9 20.63,233.91l1.86 20.17c11.4,123.43 11.87,128.57 -24.39,156.46 -13.69,10.53 -34.8,25.3 -63.42,39.61 -28.56,14.28 -64.33,28 -107.11,36.34 -39.67,7.74 -85.76,10.9 -133.25,10.57 -52.56,-0.37 -106.32,-4.96 -154.63,-12.31 -39.45,-6 -76.1,-14 -108.06,-22.38 -42.26,-11.09 -75.67,-22.75 -96.5,-31.43 -44.96,-18.73 -46.74,-26 -65.7,-103.14 -0.9,-3.66 -1.89,-7.68 -5.67,-22.8 -15.69,-62.76 -44.13,-169.14 -67.06,-254.93zm-149.65 -3098.9c0.17,-0.16 0.37,-0.44 0.61,-0.83l-0.02 -0.8c-0.72,1.4 -2.37,3.39 -0.59,1.63z"/>
  </g>
  <path class="fil4" d="M4633.94 2396.9c33.97,-0.74 73.11,-5.91 122.96,-16.24 49.85,-10.34 110.41,-25.85 147.33,-44.31 36.93,-18.46 50.22,-39.88 60.56,-67.2 10.34,-27.33 17.72,-60.56 19.93,-97.85 2.21,-37.3 -0.74,-78.65 -7.75,-114.47 -7.02,-35.82 -18.09,-66.1 -32.13,-92.31 -14.03,-26.22 -31.02,-48.37 -50.96,-64.99 -19.94,-16.62 -42.84,-27.7 -62.63,-36.56 -19.79,-8.86 -36.49,-15.49 -63.81,-20.29 -27.33,-4.8 -65.28,-7.77 -95.71,-8.14 -30.42,-0.37 -53.32,1.84 -77.32,8.12 -24,6.28 -49.11,16.61 -76.43,39.14 -27.33,22.53 -56.87,57.24 -75.84,84.41 -18.97,27.17 -27.37,46.82 -32.54,73.4 -5.17,26.58 -7.11,60.12 -6.96,91.28 0.14,31.17 2.36,59.97 7.89,86.55 5.54,26.59 14.4,50.96 25.48,68.68 11.07,17.72 24.37,28.8 42.46,45.05 18.09,16.25 40.98,37.66 66.83,50.22 25.85,12.55 54.65,16.25 88.62,15.51z"/>
  <g style="clip-path:url(#id1)">
   <g id="_2669424033680">
    <path id="_1_0" class="fil2" d="M5050.25 1713.79c-40.08,-1.78 -107.15,5.15 -158.62,11.72 -51.48,6.56 -87.36,12.75 -120.01,20.98 -32.65,8.23 -62.05,18.49 -89.78,29.17 -27.73,10.68 -53.77,21.77 -83.13,36.59 -29.36,14.82 -62.04,33.37 -78.31,50.76 -16.27,17.39 -16.15,33.63 -3.77,49.66 12.38,16.03 37.01,31.85 91.39,38.91 54.38,7.06 138.51,5.36 219.88,-10.19 81.37,-15.55 159.98,-44.96 211.79,-71.84 51.81,-26.87 76.82,-51.22 85.16,-72.96 8.34,-21.74 0.02,-40.87 -10.7,-55.69 -10.71,-14.82 -23.82,-25.33 -63.9,-27.11z"/>
   </g>
  </g>
  <path class="fil0 str1" d="M4633.94 2396.9c33.97,-0.74 73.11,-5.91 122.96,-16.24 49.85,-10.34 110.41,-25.85 147.33,-44.31 36.93,-18.46 50.22,-39.88 60.56,-67.2 10.34,-27.33 17.72,-60.56 19.93,-97.85 2.21,-37.3 -0.74,-78.65 -7.75,-114.47 -7.02,-35.82 -18.09,-66.1 -32.13,-92.31 -14.03,-26.22 -31.02,-48.37 -50.96,-64.99 -19.94,-16.62 -42.84,-27.7 -62.63,-36.56 -19.79,-8.86 -36.49,-15.49 -63.81,-20.29 -27.33,-4.8 -65.28,-7.77 -95.71,-8.14 -30.42,-0.37 -53.32,1.84 -77.32,8.12 -24,6.28 -49.11,16.61 -76.43,39.14 -27.33,22.53 -56.87,57.24 -75.84,84.41 -18.97,27.17 -27.37,46.82 -32.54,73.4 -5.17,26.58 -7.11,60.12 -6.96,91.28 0.14,31.17 2.36,59.97 7.89,86.55 5.54,26.59 14.4,50.96 25.48,68.68 11.07,17.72 24.37,28.8 42.46,45.05 18.09,16.25 40.98,37.66 66.83,50.22 25.85,12.55 54.65,16.25 88.62,15.51z"/>
  <path class="fil4" d="M6396.22 1850.31c-23.24,-42.81 -62.38,-91.73 -108.85,-123.53 -46.48,-31.8 -100.29,-46.48 -166.95,-51.37 -66.66,-4.89 -146.16,-0 -199.97,1.22 -53.82,1.22 -81.95,-1.22 -111.91,-4.89 -29.97,-3.67 -61.77,-8.56 -107.63,-25.07 -45.87,-16.51 -105.79,-44.64 -143.1,-72.16 -37.3,-27.52 -51.98,-54.43 -68.49,-72.77 -16.51,-18.35 -34.86,-28.13 -51.98,-29.36 -17.12,-1.22 -33.02,6.11 -45.26,28.13 -12.23,22.01 -20.79,58.7 -23.85,92.34 -3.06,33.63 -0.61,64.21 5.5,103.35 6.11,39.14 15.9,86.84 35.47,133.32 19.57,46.48 48.92,91.73 77.05,130.26 28.13,38.52 55.04,70.33 101.51,104.57 46.48,34.25 112.52,70.94 179.79,94.79 67.27,23.85 135.76,34.86 195.69,42.81 59.93,7.95 111.3,12.84 159,13.45 47.7,0.61 91.73,-3.06 132.7,-14.68 40.97,-11.62 78.89,-31.19 104.57,-51.98 25.68,-20.79 39.14,-42.81 49.53,-73.39 10.39,-30.58 17.73,-69.71 17.73,-107.63 0,-37.92 -7.34,-74.61 -30.58,-117.41z"/>
  <g style="clip-path:url(#id2)">
   <g id="_2669424033104">
    <path id="_1_1" class="fil2" d="M6550.96 1967c-94.16,-4.19 -251.7,12.1 -372.62,27.52 -120.92,15.42 -205.23,29.95 -281.92,49.28 -76.69,19.33 -145.77,43.44 -210.89,68.52 -65.13,25.08 -126.3,51.13 -195.27,85.94 -68.97,34.81 -145.73,78.39 -183.96,119.25 -38.23,40.86 -37.93,79.01 -8.85,116.66 29.08,37.65 86.94,74.81 214.68,91.39 127.74,16.58 325.37,12.6 516.51,-23.93 191.14,-36.54 375.81,-105.61 497.52,-168.75 121.71,-63.13 180.45,-120.32 200.05,-171.38 19.59,-51.07 0.04,-96.01 -25.13,-130.82 -25.17,-34.81 -55.96,-59.5 -150.12,-63.68z"/>
   </g>
  </g>
  <path class="fil0 str1" d="M6396.22 1850.31c-23.24,-42.81 -62.38,-91.73 -108.85,-123.53 -46.48,-31.8 -100.29,-46.48 -166.95,-51.37 -66.66,-4.89 -146.16,-0 -199.97,1.22 -53.82,1.22 -81.95,-1.22 -111.91,-4.89 -29.97,-3.67 -61.77,-8.56 -107.63,-25.07 -45.87,-16.51 -105.79,-44.64 -143.1,-72.16 -37.3,-27.52 -51.98,-54.43 -68.49,-72.77 -16.51,-18.35 -34.86,-28.13 -51.98,-29.36 -17.12,-1.22 -33.02,6.11 -45.26,28.13 -12.23,22.01 -20.79,58.7 -23.85,92.34 -3.06,33.63 -0.61,64.21 5.5,103.35 6.11,39.14 15.9,86.84 35.47,133.32 19.57,46.48 48.92,91.73 77.05,130.26 28.13,38.52 55.04,70.33 101.51,104.57 46.48,34.25 112.52,70.94 179.79,94.79 67.27,23.85 135.76,34.86 195.69,42.81 59.93,7.95 111.3,12.84 159,13.45 47.7,0.61 91.73,-3.06 132.7,-14.68 40.97,-11.62 78.89,-31.19 104.57,-51.98 25.68,-20.79 39.14,-42.81 49.53,-73.39 10.39,-30.58 17.73,-69.71 17.73,-107.63 0,-37.92 -7.34,-74.61 -30.58,-117.41z"/>
  <path class="fil5" d="M5116.82 1032.06c67.5,0 122.23,53.91 122.23,120.4 0,66.5 -54.72,120.4 -122.23,120.4 -67.5,0 -122.23,-53.91 -122.23,-120.4 0,-66.5 54.72,-120.4 122.23,-120.4z"/>
  <path class="fil5" d="M5913.51 1096.56c67.5,0 122.23,53.91 122.23,120.4 0,66.5 -54.72,120.4 -122.23,120.4 -67.5,0 -122.23,-53.91 -122.23,-120.4 0,-66.5 54.72,-120.4 122.23,-120.4z"/>
  <path class="fil6" d="M4652.47 1892.89c6.76,3.29 19.27,8.3 31.68,9 12.41,0.69 24.71,-2.93 31.22,-4.74 6.51,-1.81 7.23,-1.81 8.32,-23.15 1.08,-21.34 2.53,-64.03 2.9,-92.98 0.36,-28.94 -0.36,-44.14 -0.72,-56.8 -0.36,-12.66 -0.36,-22.79 -2.17,-32.56 -1.81,-9.77 -5.43,-19.18 -11.94,-25.33 -6.51,-6.15 -15.92,-9.05 -23.88,-9.41 -7.96,-0.36 -14.47,1.81 -19.9,3.98 -5.43,2.17 -9.77,4.34 -13.39,7.24 -3.62,2.89 -6.51,6.51 -8.68,26.77 -2.17,20.26 -3.62,57.16 -4.34,90.68 -0.72,33.52 -0.72,63.66 -0.24,79.9 0.48,16.24 1.43,18.58 2.41,20.55 0.98,1.96 1.97,3.55 8.73,6.84z"/>
  <path class="fil7" d="M4725.6 449.74c364.02,0 659.12,284.62 659.12,635.72 0,351.1 -295.1,635.73 -659.12,635.73 -364.02,0 -659.12,-284.62 -659.12,-635.73 0,-351.1 295.1,-635.72 659.12,-635.72zm0 79.68c318.4,0 576.51,248.95 576.51,556.05 0,307.1 -258.11,556.05 -576.51,556.05 -318.39,0 -576.51,-248.95 -576.51,-556.05 0,-307.09 258.11,-556.05 576.51,-556.05z"/>
  <path class="fil8 str2" d="M4725.6 529.42c318.4,0 576.51,248.95 576.51,556.05 0,307.1 -258.11,556.05 -576.51,556.05 -318.39,0 -576.51,-248.95 -576.51,-556.05 0,-307.09 258.11,-556.05 576.51,-556.05z"/>
  <polygon class="fil9" points="679.6,1960.86 548.45,1960.86 548.45,1364.73 679.6,1364.73 "/>
  <polygon id="_1_2" class="fil9" points="1039.12,1960.86 904.42,1960.86 814.3,1643.21 814.3,1960.86 705.29,1960.86 705.29,1364.73 854.32,1364.73 930.11,1636.54 930.11,1364.73 1039.12,1364.73 "/>
  <path id="_2" class="fil9" d="M1354.07 1960.86l-62.59 0 -17.03 -32.79c-28.81,25.26 -59.19,37.9 -91.26,37.9 -31.23,0 -58.48,-8.09 -81.9,-24.27 -23.42,-16.18 -35.06,-42.01 -35.06,-77.5l0 -388.76c0,-77.21 49.25,-115.82 147.61,-115.82 93.54,0 140.23,35.2 140.23,105.6l0 110.71 -119.22 0 0 -120.08c0,-9.65 -6.25,-14.48 -18.74,-14.48 -12.49,0 -18.74,4.83 -18.74,14.48l0 412.18c0,9.65 6.25,14.48 18.74,14.48 12.49,0 18.74,-4.83 18.74,-14.62l0 -111.42 -25.55 0 0 -91.12 144.77 0 0 295.51z"/>
  <path id="_3" class="fil9" d="M1705.08 1961.71l-130.44 0c-14.05,-16.89 -21.15,-64.86 -21.15,-143.92l0 -0.85 0.71 -35.77c0.71,-49.68 0.99,-74.94 0.99,-76.08 0,-20.3 -13.34,-30.37 -40.03,-30.37l0 286.14 -131.15 0 0 -596.13 161.66 0c36.9,0 68.98,8.52 96.23,25.41 27.39,16.89 41.02,43.57 41.02,80.05l0 71.54c0,46.27 -26.97,77.5 -81.05,93.82 54.08,12.77 81.05,45.7 81.05,98.64l-1.71 65.29c0,95.38 7.95,149.46 23.85,162.23zm-149.88 -391.03l0 -98.08c0,-20.86 -13.34,-31.23 -40.03,-31.23l0 160.95c26.68,0 40.03,-10.5 40.03,-31.65z"/>
  <polygon id="_4" class="fil9" points="1980.01,1960.86 1723.67,1960.86 1723.67,1364.73 1978.3,1364.73 1978.3,1441.38 1854.82,1441.38 1854.82,1602.33 1966.24,1602.33 1966.24,1674.72 1854.82,1674.72 1854.82,1884.21 1980.01,1884.21 "/>
  <path id="_5" class="fil9" d="M2000.59 1721.84l119.22 0 0 136.83c0,13.63 8.23,20.44 24.7,20.44 15.9,0 23.85,-6.81 23.85,-20.3l0 -70.54c0,-21.57 -14.48,-46.98 -43.29,-76.08 -55.78,-53.94 -90.41,-90.27 -104.04,-108.72 -13.63,-18.59 -20.44,-38.89 -20.44,-61.18l0 -66.85c0,-77.21 50.67,-115.82 151.87,-115.82 90.7,0 135.97,35.2 135.97,105.6l0 103.19 -119.22 0 0 -109.29c0,-11.78 -6.67,-17.74 -20.01,-17.74 -15.61,0 -23.42,11.21 -23.42,33.64l2.55 38.75c0,22.14 14.76,47.83 44.28,77.21 54.79,52.37 89.7,88.85 104.61,109.57 14.9,20.86 22.28,44.28 22.28,70.68l0 75.94c0,79.2 -50.67,118.8 -152.16,118.8 -97.79,0 -146.76,-36.05 -146.76,-108.16l0 -135.97z"/>
  <path id="_6" class="fil9" d="M2681.73 1960.86l-130.3 0 -22 -160.1 -57.91 0 -22.28 160.1 -130.3 0 97.65 -596.13 167.34 0 97.79 596.13zm-162.8 -242.71l-18.74 -177.99 -17.88 177.99 36.62 0z"/>
  <path id="_7" class="fil9" d="M3024.93 1961.71l-130.44 0c-14.05,-16.89 -21.15,-64.86 -21.15,-143.92l0 -0.85 0.71 -35.77c0.71,-49.68 0.99,-74.94 0.99,-76.08 0,-20.3 -13.34,-30.37 -40.03,-30.37l0 286.14 -131.15 0 0 -596.13 161.66 0c36.9,0 68.98,8.52 96.23,25.41 27.39,16.89 41.02,43.57 41.02,80.05l0 71.54c0,46.27 -26.97,77.5 -81.05,93.82 54.08,12.77 81.05,45.7 81.05,98.64l-1.71 65.29c0,95.38 7.95,149.46 23.85,162.23zm-149.88 -391.03l0 -98.08c0,-20.86 -13.34,-31.23 -40.03,-31.23l0 160.95c26.68,0 40.03,-10.5 40.03,-31.65z"/>
  <path id="_8" class="fil9" d="M664.56 2459.19l-119.22 0 0 -117.52c0,-9.65 -6.1,-14.48 -18.31,-14.48 -12.77,0 -19.16,4.83 -19.16,14.48l0 412.18c0,9.65 6.39,14.48 19.16,14.48 12.21,0 18.31,-4.83 18.31,-14.62l0 -147.19 119.22 0 0 151.59c0,28.24 -13.91,50.95 -41.73,68.13 -27.82,17.03 -59.19,25.55 -94.24,25.55 -101.2,0 -151.87,-35.77 -151.87,-107.16l0 -383.36c0,-77.21 50.67,-115.82 151.87,-115.82 90.7,0 135.97,35.2 135.97,105.6l0 108.16z"/>
  <path id="_9" class="fil9" d="M691.95 2744.62l0 -383.36c0,-77.21 49.96,-115.82 150.03,-115.82 98.64,0 148.04,38.32 148.04,114.97l0 383.37c0,34.63 -13.77,61.32 -41.3,80.05 -27.39,18.6 -63.3,27.96 -107.45,27.96 -99.49,0 -149.31,-35.77 -149.31,-107.16zm170.32 5.82l0 -405.37c0,-11.92 -6.96,-17.88 -20.86,-17.88 -14.48,0 -21.72,5.96 -21.72,17.88l0 405.37c0,11.92 7.24,17.88 21.72,17.88 13.91,0 20.86,-5.96 20.86,-17.88z"/>
  <polygon id="_10" class="fil9" points="1474.43,2846.67 1357.76,2846.67 1357.76,2511.99 1289.49,2846.67 1199.22,2846.67 1121.02,2511.99 1121.02,2846.67 1018.82,2846.67 1018.82,2250.55 1187.16,2250.55 1247.05,2559.82 1299.14,2250.55 1474.43,2250.55 "/>
  <path id="_11" class="fil9" d="M1857.52 2846.67l-130.3 0 -22 -160.1 -57.91 0 -22.28 160.1 -130.3 0 97.65 -596.13 167.34 0 97.79 596.13zm-162.8 -242.71l-18.74 -177.99 -17.88 177.99 36.62 0z"/>
  <polygon id="_12" class="fil9" points="2211.79,2846.67 2077.09,2846.67 1986.96,2529.02 1986.96,2846.67 1877.95,2846.67 1877.95,2250.55 2026.99,2250.55 2102.78,2522.35 2102.78,2250.55 2211.79,2250.55 "/>
  <path id="_13" class="fil9" d="M2238.04 2846.67l0 -596.13 163.22 0c35.48,0 67.13,9.65 94.96,28.96 27.68,19.16 41.59,48.83 41.59,88.71l0 360.8c0,37.19 -12.92,66 -38.89,86.72 -25.97,20.58 -58.19,30.94 -96.8,30.94l-164.08 0zm168.62 -108.3l0 -379.96c0,-20.86 -12.49,-31.23 -37.47,-31.23l0 442.84c24.98,0 37.47,-10.5 37.47,-31.65z"/>
  <path id="_14" class="fil9" d="M2564.07 2744.62l0 -383.36c0,-77.21 49.96,-115.82 150.03,-115.82 98.64,0 148.04,38.32 148.04,114.97l0 383.37c0,34.63 -13.77,61.32 -41.3,80.05 -27.39,18.6 -63.3,27.96 -107.45,27.96 -99.49,0 -149.31,-35.77 -149.31,-107.16zm170.32 5.82l0 -405.37c0,-11.92 -6.96,-17.88 -20.86,-17.88 -14.48,0 -21.72,5.96 -21.72,17.88l0 405.37c0,11.92 7.24,17.88 21.72,17.88 13.91,0 20.86,-5.96 20.86,-17.88z"/>
  <path id="_15" class="fil9" d="M2889.24 2607.65l119.22 0 0 136.83c0,13.63 8.23,20.44 24.7,20.44 15.9,0 23.85,-6.81 23.85,-20.3l0 -70.54c0,-21.57 -14.48,-46.98 -43.29,-76.08 -55.78,-53.94 -90.41,-90.27 -104.04,-108.72 -13.63,-18.59 -20.44,-38.89 -20.44,-61.18l0 -66.85c0,-77.21 50.67,-115.82 151.87,-115.82 90.7,0 135.97,35.2 135.97,105.6l0 103.19 -119.22 0 0 -109.29c0,-11.78 -6.67,-17.74 -20.01,-17.74 -15.61,0 -23.42,11.21 -23.42,33.64l2.55 38.75c0,22.14 14.76,47.83 44.28,77.21 54.79,52.37 89.7,88.85 104.61,109.57 14.9,20.86 22.28,44.28 22.28,70.68l0 75.94c0,79.2 -50.67,118.8 -152.16,118.8 -97.79,0 -146.76,-36.05 -146.76,-108.16l0 -135.97z"/>
  <g>
   <path id="_16" class="fil10" d="M679.6 1965.82l-131.15 0 -4.96 0 0 -4.96 0 -596.13 0 -4.96 4.96 0 131.15 0 4.96 0 0 4.96 0 596.13 0 4.96 -4.96 0zm0 -4.96l-131.15 0 0 -596.13 131.15 0 0 596.13z"/>
  </g>
  <g>
   <path id="_17" class="fil10" d="M1039.12 1965.82l-134.7 0 -3.74 0 -1.03 -3.63 -80.4 -283.35 0 282.01 0 4.96 -4.96 0 -109.01 0 -4.96 0 0 -4.96 0 -596.13 0 -4.96 4.96 0 149.03 0 3.75 0 1.02 3.64 66.06 236.9 0 -235.58 0 -4.96 4.96 0 109.01 0 4.96 0 0 4.96 0 596.13 0 4.96 -4.96 0zm0 -4.96l-134.7 0 -90.13 -317.65 0 317.65 -109.01 0 0 -596.13 149.03 0 75.79 271.8 0 -271.8 109.01 0 0 596.13z"/>
  </g>
  <g>
   <path id="_18" class="fil10" d="M1354.07 1965.82l-62.59 0 -3.01 0 -1.39 -2.68 -14.17 -27.27c-13.31,10.98 -26.97,19.38 -40.97,25.2 -15.83,6.57 -32.08,9.86 -48.76,9.86 -16.06,0 -31.15,-2.1 -45.27,-6.28 -14.15,-4.2 -27.29,-10.49 -39.44,-18.88 -12.47,-8.62 -21.81,-19.81 -28.02,-33.54 -6.13,-13.57 -9.19,-29.58 -9.19,-48.02l0 -388.76c0,-40.19 12.95,-70.45 38.83,-90.75l-0.01 -0.01c25.51,-20.01 63.44,-30.02 113.75,-30.02 47.86,0 83.92,9.14 108.18,27.41 24.68,18.59 37.02,46.31 37.02,83.16l0 110.71 0 4.96 -4.96 0 -119.22 0 -4.96 0 0 -4.96 0 -120.08c0,-3.21 -0.92,-5.53 -2.75,-6.94 -2.22,-1.71 -5.9,-2.57 -11.03,-2.57 -9.18,0 -13.77,3.17 -13.77,9.51l0 412.18c0,3.21 0.92,5.53 2.75,6.94 2.22,1.71 5.89,2.57 11.03,2.57 5.11,0 8.79,-0.86 11.01,-2.59 1.84,-1.43 2.77,-3.79 2.77,-7.07l0 -106.46 -20.58 0 -4.96 0 0 -4.96 0 -91.12 0 -4.96 4.96 0 144.77 0 4.96 0 0 4.96 0 295.51 0 4.96 -4.96 0zm0 -4.96l-62.59 0 -17.03 -32.79c-28.81,25.26 -59.19,37.9 -91.26,37.9 -31.23,0 -58.48,-8.09 -81.9,-24.27 -23.42,-16.18 -35.06,-42.01 -35.06,-77.5l0 -388.76c0,-77.21 49.25,-115.82 147.61,-115.82 93.54,0 140.23,35.2 140.23,105.6l0 110.71 -119.22 0 0 -120.08c0,-9.65 -6.25,-14.48 -18.74,-14.48 -12.49,0 -18.74,4.83 -18.74,14.48l0 412.18c0,9.65 6.25,14.48 18.74,14.48 12.49,0 18.74,-4.83 18.74,-14.62l0 -111.42 -25.55 0 0 -91.12 144.77 0 0 295.51z"/>
  </g>
  <g>
   <path id="_19" class="fil10" d="M1705.08 1966.67l-130.44 0 -2.3 0 -1.5 -1.8c-7.63,-9.18 -13.29,-26.24 -16.96,-51.17 -3.56,-24.24 -5.35,-56.22 -5.35,-95.92l0 -0.85 0.02 -0.1 0.71 -35.77c0.26,-18.67 0.48,-33.9 0.63,-45.69 0.24,-18.49 0.35,-29.16 0.35,-30.29 0,-15.73 -10.03,-24.12 -30.1,-25.27l0 281.04 0 4.96 -4.96 0 -131.15 0 -4.96 0 0 -4.96 0 -596.13 0 -4.96 4.96 0 161.66 0c18.83,0 36.48,2.18 52.94,6.53 16.52,4.36 31.82,10.92 45.89,19.64 14.48,8.93 25.34,20.48 32.59,34.64 7.21,14.07 10.8,30.62 10.8,49.62l0 71.54c0,24.35 -7.15,44.81 -21.47,61.38 -11.47,13.28 -27.49,23.94 -48.07,32 20.59,7.02 36.63,17.54 48.13,31.53 14.28,17.38 21.41,39.9 21.41,67.55l-0.02 0.12 -1.7 65.18 0.02 0c0,93.8 7.33,146.6 21.99,158.37l10.98 8.82 -14.08 0zm0 -4.96l-130.44 0c-14.05,-16.89 -21.15,-64.86 -21.15,-143.92l0 -0.85 0.71 -35.77c0.71,-49.68 0.99,-74.94 0.99,-76.08 0,-20.3 -13.34,-30.37 -40.03,-30.37l0 286.14 -131.15 0 0 -596.13 161.66 0c36.9,0 68.98,8.52 96.23,25.41 27.39,16.89 41.02,43.57 41.02,80.05l0 71.54c0,46.27 -26.97,77.5 -81.05,93.82 54.08,12.77 81.05,45.7 81.05,98.64l-1.71 65.29c0,95.38 7.95,149.46 23.85,162.23zm-149.88 -391.03l0 -98.08c0,-20.86 -13.34,-31.23 -40.03,-31.23l0 160.95c26.68,0 40.03,-10.5 40.03,-31.65zm-4.96 0l0 -98.08c0,-16.26 -10.03,-24.93 -30.1,-26.12l0 150.75c9.72,-0.55 17.05,-2.77 21.99,-6.67 5.4,-4.27 8.11,-10.89 8.11,-19.88z"/>
  </g>
  <g>
   <path id="_20" class="fil10" d="M1980.01 1965.82l-256.33 0 -4.96 0 0 -4.96 0 -596.13 0 -4.96 4.96 0 254.63 0 4.96 0 0 4.96 0 76.64 0 4.96 -4.96 0 -118.52 0 0 151.03 106.46 0 4.96 0 0 4.96 0 72.39 0 4.96 -4.96 0 -106.46 0 0 199.57 120.22 0 4.96 0 0 4.96 0 76.64 0 4.96 -4.96 0zm0 -4.96l-256.33 0 0 -596.13 254.63 0 0 76.64 -123.48 0 0 160.95 111.42 0 0 72.39 -111.42 0 0 209.5 125.19 0 0 76.64z"/>
  </g>
  <g>
   <path id="_21" class="fil10" d="M2000.59 1716.88l119.22 0 2.92 0c-0.37,-0.37 -0.73,-0.75 -1.11,-1.12 -27.54,-26.63 -50.06,-49.11 -67.54,-67.38 -17.74,-18.54 -30.09,-32.55 -37.04,-41.97l-0.02 -0.02c-7.12,-9.71 -12.46,-19.89 -16.03,-30.56 -3.59,-10.72 -5.38,-21.89 -5.38,-33.54l0 -66.85c0,-40.24 13.32,-70.51 39.94,-90.8 26.21,-19.99 65.18,-29.98 116.89,-29.98 46.48,0 81.49,9.15 105.04,27.45 23.93,18.59 35.89,46.3 35.89,83.12l0 103.19 0 4.96 -4.96 0 -119.22 0 -4.96 0 0 -4.96 0 -109.29c0,-8.48 -5.02,-12.78 -15.05,-12.78 -12.3,0 -18.45,9.56 -18.45,28.66l2.54 38.45 0.02 0.31c0,20.76 14.25,45.26 42.73,73.63 27.45,26.24 49.94,48.52 67.44,66.83 17.57,18.39 30.17,32.87 37.77,43.44l0.02 0.02c7.75,10.86 13.56,22.4 17.43,34.66 3.86,12.26 5.79,25.2 5.79,38.89l0 75.94c0,41.2 -13.31,72.2 -39.94,93 -26.26,20.51 -65.32,30.77 -117.18,30.77 -101.1,0 -151.72,-37.71 -151.72,-113.12l0 -135.97 0 -4.96 4.96 0zm0 4.96l119.22 0 0 136.83c0,13.63 8.23,20.44 24.7,20.44 15.9,0 23.85,-6.81 23.85,-20.3l0 -70.54c0,-21.57 -14.48,-46.98 -43.29,-76.08 -55.78,-53.94 -90.41,-90.27 -104.04,-108.72 -13.63,-18.59 -20.44,-38.89 -20.44,-61.18l0 -66.85c0,-77.21 50.67,-115.82 151.87,-115.82 90.7,0 135.97,35.2 135.97,105.6l0 103.19 -119.22 0 0 -109.29c0,-11.78 -6.67,-17.74 -20.01,-17.74 -15.61,0 -23.42,11.21 -23.42,33.64l2.55 38.75c0,22.14 14.76,47.83 44.28,77.21 54.79,52.37 89.7,88.85 104.61,109.57 14.9,20.86 22.28,44.28 22.28,70.68l0 75.94c0,79.2 -50.67,118.8 -152.16,118.8 -97.79,0 -146.76,-36.05 -146.76,-108.16l0 -135.97zm124.19 -2.86l0 2.86 0 136.83c0,5.26 1.46,9.1 4.37,11.51 3.19,2.64 8.32,3.96 15.36,3.96 6.74,0 11.63,-1.3 14.66,-3.89 2.81,-2.39 4.22,-6.22 4.22,-11.44l0 -70.54c0,-9.92 -3.4,-20.86 -10.17,-32.76 -6.46,-11.35 -15.95,-23.54 -28.44,-36.53z"/>
  </g>
  <g>
   <path id="_22" class="fil10" d="M2681.73 1965.82l-130.3 0 -4.31 0 -0.59 -4.3 -21.41 -155.8 -49.29 0 -21.69 155.82 -0.59 4.29 -4.31 0 -130.3 0 -5.83 0 0.94 -5.76 97.65 -596.13 0.68 -4.17 4.2 0 167.34 0 4.2 0 0.68 4.17 97.79 596.13 0.95 5.76 -5.83 0zm0 -4.96l-130.3 0 -22 -160.1 -57.91 0 -22.28 160.1 -130.3 0 97.65 -596.13 167.34 0 97.79 596.13zm-162.8 -242.71l-18.74 -177.99 -17.88 177.99 36.62 0zm-5.5 -4.96l-13.12 -124.66 -12.52 124.66 25.65 0z"/>
  </g>
  <g>
   <path id="_23" class="fil10" d="M3024.93 1966.67l-130.44 0 -2.3 0 -1.5 -1.8c-7.63,-9.18 -13.29,-26.24 -16.96,-51.17 -3.56,-24.24 -5.35,-56.22 -5.35,-95.92l0 -0.85 0.02 -0.1 0.71 -35.77c0.26,-18.67 0.48,-33.9 0.63,-45.69 0.24,-18.49 0.35,-29.16 0.35,-30.29 0,-15.73 -10.03,-24.12 -30.1,-25.27l0 281.04 0 4.96 -4.96 0 -131.15 0 -4.96 0 0 -4.96 0 -596.13 0 -4.96 4.96 0 161.66 0c18.83,0 36.48,2.18 52.94,6.53 16.52,4.36 31.82,10.92 45.89,19.64 14.48,8.93 25.34,20.48 32.59,34.64 7.21,14.07 10.8,30.62 10.8,49.62l0 71.54c0,24.35 -7.15,44.81 -21.47,61.38 -11.47,13.28 -27.49,23.94 -48.07,32 20.59,7.02 36.63,17.54 48.13,31.53 14.28,17.38 21.41,39.9 21.41,67.55l-0.02 0.12 -1.7 65.18 0.02 0c0,93.8 7.33,146.6 21.99,158.37l10.98 8.82 -14.08 0zm0 -4.96l-130.44 0c-14.05,-16.89 -21.15,-64.86 -21.15,-143.92l0 -0.85 0.71 -35.77c0.71,-49.68 0.99,-74.94 0.99,-76.08 0,-20.3 -13.34,-30.37 -40.03,-30.37l0 286.14 -131.15 0 0 -596.13 161.66 0c36.9,0 68.98,8.52 96.23,25.41 27.39,16.89 41.02,43.57 41.02,80.05l0 71.54c0,46.27 -26.97,77.5 -81.05,93.82 54.08,12.77 81.05,45.7 81.05,98.64l-1.71 65.29c0,95.38 7.95,149.46 23.85,162.23zm-149.88 -391.03l0 -98.08c0,-20.86 -13.34,-31.23 -40.03,-31.23l0 160.95c26.68,0 40.03,-10.5 40.03,-31.65zm-4.96 0l0 -98.08c0,-16.26 -10.03,-24.93 -30.1,-26.12l0 150.75c9.72,-0.55 17.05,-2.77 21.99,-6.67 5.4,-4.27 8.11,-10.89 8.11,-19.88z"/>
  </g>
  <g>
   <path id="_24" class="fil10" d="M664.56 2464.16l-119.22 0 -4.96 0 0 -4.96 0 -117.52c0,-3.24 -0.89,-5.57 -2.68,-6.98 -2.13,-1.69 -5.69,-2.53 -10.67,-2.53 -9.47,0 -14.2,3.17 -14.2,9.51l0 412.18c0,6.34 4.73,9.52 14.2,9.52 4.96,0 8.51,-0.85 10.65,-2.55 1.8,-1.43 2.7,-3.8 2.7,-7.1l0 -147.19 0 -4.96 4.96 0 119.22 0 4.96 0 0 4.96 0 151.59c0,15.04 -3.73,28.64 -11.17,40.79 -7.36,12.02 -18.34,22.54 -32.93,31.54l-0.02 0.02c-14.33,8.77 -29.56,15.35 -45.69,19.72l-0.02 0c-16.13,4.37 -33.16,6.56 -51.12,6.56 -51.63,0 -90.55,-9.25 -116.73,-27.72 -26.73,-18.86 -40.1,-47 -40.1,-84.41l0 -383.36c0,-40.24 13.32,-70.51 39.94,-90.8 26.21,-19.99 65.18,-29.98 116.89,-29.98 46.48,0 81.49,9.15 105.04,27.45 23.93,18.59 35.89,46.3 35.89,83.12l0 108.16 0 4.96 -4.96 0zm0 -4.96l-119.22 0 0 -117.52c0,-9.65 -6.1,-14.48 -18.31,-14.48 -12.77,0 -19.16,4.83 -19.16,14.48l0 412.18c0,9.65 6.39,14.48 19.16,14.48 12.21,0 18.31,-4.83 18.31,-14.62l0 -147.19 119.22 0 0 151.59c0,28.24 -13.91,50.95 -41.73,68.13 -27.82,17.03 -59.19,25.55 -94.24,25.55 -101.2,0 -151.87,-35.77 -151.87,-107.16l0 -383.36c0,-77.21 50.67,-115.82 151.87,-115.82 90.7,0 135.97,35.2 135.97,105.6l0 108.16z"/>
  </g>
  <g>
   <path id="_25" class="fil10" d="M686.99 2744.62l0 -383.36c0,-40.22 13.14,-70.48 39.43,-90.78 25.9,-20 64.42,-30 115.56,-30 101.95,0 153,39.98 153,119.93l0 383.37c0,36.37 -14.49,64.42 -43.47,84.14l-0.02 0c-14.18,9.62 -30.53,16.85 -49,21.66 -18.36,4.78 -38.78,7.17 -61.22,7.17 -50.79,0 -89.08,-9.26 -114.85,-27.76 -26.27,-18.86 -39.42,-46.99 -39.42,-84.37zm4.96 0l0 -383.36c0,-77.21 49.96,-115.82 150.03,-115.82 98.64,0 148.04,38.32 148.04,114.97l0 383.37c0,34.63 -13.77,61.32 -41.3,80.05 -27.39,18.6 -63.3,27.96 -107.45,27.96 -99.49,0 -149.31,-35.77 -149.31,-107.16zm170.32 5.82l0 -405.37c0,-11.92 -6.96,-17.88 -20.86,-17.88 -14.48,0 -21.72,5.96 -21.72,17.88l0 405.37c0,11.92 7.24,17.88 21.72,17.88 13.91,0 20.86,-5.96 20.86,-17.88zm-4.96 0l0 -405.37c0,-4.45 -1.16,-7.67 -3.47,-9.65 -2.54,-2.18 -6.69,-3.27 -12.43,-3.27 -6.07,0 -10.46,1.11 -13.15,3.33 -2.4,1.98 -3.6,5.18 -3.6,9.59l0 405.37c0,4.42 1.2,7.62 3.6,9.59 2.69,2.21 7.08,3.33 13.15,3.33 5.74,0 9.89,-1.09 12.43,-3.27 2.31,-1.98 3.47,-5.2 3.47,-9.65z"/>
  </g>
  <g>
   <path id="_26" class="fil10" d="M1474.43 2851.64l-116.67 0 -4.96 0 0 -4.96 0 -285.59 -58.46 286.58 -0.81 3.98 -4.04 0 -90.27 0 -3.93 0 -0.9 -3.84 -68.41 -292.78 0 291.65 0 4.96 -4.96 0 -102.19 0 -4.96 0 0 -4.96 0 -596.13 0 -4.96 4.96 0 168.33 0 4.09 0 0.78 4.03 54.69 282.4 47.54 -282.28 0.7 -4.15 4.18 0 175.29 0 4.96 0 0 4.96 0 596.13 0 4.96 -4.96 0zm0 -4.96l-116.67 0 0 -334.68 -68.27 334.68 -90.27 0 -78.21 -334.68 0 334.68 -102.19 0 0 -596.13 168.33 0 59.9 309.28 52.09 -309.28 175.29 0 0 596.13z"/>
  </g>
  <g>
   <path id="_27" class="fil10" d="M1857.52 2851.64l-130.3 0 -4.31 0 -0.59 -4.3 -21.41 -155.8 -49.29 0 -21.69 155.82 -0.59 4.29 -4.31 0 -130.3 0 -5.83 0 0.94 -5.76 97.65 -596.13 0.68 -4.17 4.2 0 167.34 0 4.2 0 0.68 4.17 97.79 596.13 0.95 5.76 -5.83 0zm0 -4.96l-130.3 0 -22 -160.1 -57.91 0 -22.28 160.1 -130.3 0 97.65 -596.13 167.34 0 97.79 596.13zm-162.8 -242.71l-18.74 -177.99 -17.88 177.99 36.62 0zm-5.5 -4.96l-13.12 -124.66 -12.52 124.66 25.65 0z"/>
  </g>
  <g>
   <path id="_28" class="fil10" d="M2211.79 2851.64l-134.7 0 -3.74 0 -1.03 -3.63 -80.4 -283.35 0 282.01 0 4.96 -4.96 0 -109.01 0 -4.96 0 0 -4.96 0 -596.13 0 -4.96 4.96 0 149.03 0 3.75 0 1.02 3.64 66.06 236.9 0 -235.58 0 -4.96 4.96 0 109.01 0 4.96 0 0 4.96 0 596.13 0 4.96 -4.96 0zm0 -4.96l-134.7 0 -90.13 -317.65 0 317.65 -109.01 0 0 -596.13 149.03 0 75.79 271.8 0 -271.8 109.01 0 0 596.13z"/>
  </g>
  <g>
   <path id="_29" class="fil10" d="M2233.08 2846.67l0 -596.13 0 -4.96 4.96 0 163.22 0c18.18,0 35.45,2.49 51.79,7.47 16.33,4.98 31.66,12.44 45.98,22.37 14.57,10.08 25.52,22.96 32.84,38.56 7.26,15.48 10.9,33.57 10.9,54.22l0 360.8c0,19.27 -3.38,36.45 -10.15,51.55 -6.81,15.18 -17.02,28.19 -30.62,39.05l-0.02 0c-13.46,10.66 -28.53,18.68 -45.22,24.02 -16.65,5.33 -34.87,8 -54.65,8l-164.08 0 -4.96 0 0 -4.96zm4.96 0l0 -596.13 163.22 0c35.48,0 67.13,9.65 94.96,28.96 27.68,19.16 41.59,48.83 41.59,88.71l0 360.8c0,37.19 -12.92,66 -38.89,86.72 -25.97,20.58 -58.19,30.94 -96.8,30.94l-164.08 0zm168.62 -108.3l0 -379.96c0,-20.86 -12.49,-31.23 -37.47,-31.23l0 442.84c24.98,0 37.47,-10.5 37.47,-31.65zm-4.96 0l0 -379.96c0,-16.15 -9.18,-24.82 -27.54,-26.1l0 432.59c8.79,-0.58 15.44,-2.76 19.94,-6.56 5.06,-4.27 7.6,-10.93 7.6,-19.97z"/>
  </g>
  <g>
   <path id="_30" class="fil10" d="M2559.1 2744.62l0 -383.36c0,-40.22 13.14,-70.48 39.43,-90.78 25.9,-20 64.42,-30 115.56,-30 101.95,0 153,39.98 153,119.93l0 383.37c0,36.37 -14.49,64.42 -43.47,84.14l-0.02 0c-14.18,9.62 -30.53,16.85 -49,21.66 -18.36,4.78 -38.78,7.17 -61.22,7.17 -50.79,0 -89.08,-9.26 -114.85,-27.76 -26.27,-18.86 -39.42,-46.99 -39.42,-84.37zm4.96 0l0 -383.36c0,-77.21 49.96,-115.82 150.03,-115.82 98.64,0 148.04,38.32 148.04,114.97l0 383.37c0,34.63 -13.77,61.32 -41.3,80.05 -27.39,18.6 -63.3,27.96 -107.45,27.96 -99.49,0 -149.31,-35.77 -149.31,-107.16zm170.32 5.82l0 -405.37c0,-11.92 -6.96,-17.88 -20.86,-17.88 -14.48,0 -21.72,5.96 -21.72,17.88l0 405.37c0,11.92 7.24,17.88 21.72,17.88 13.91,0 20.86,-5.96 20.86,-17.88zm-4.96 0l0 -405.37c0,-4.45 -1.16,-7.67 -3.47,-9.65 -2.54,-2.18 -6.69,-3.27 -12.43,-3.27 -6.07,0 -10.46,1.11 -13.15,3.33 -2.4,1.98 -3.6,5.18 -3.6,9.59l0 405.37c0,4.42 1.2,7.62 3.6,9.59 2.69,2.21 7.08,3.33 13.15,3.33 5.74,0 9.89,-1.09 12.43,-3.27 2.31,-1.98 3.47,-5.2 3.47,-9.65z"/>
  </g>
  <g>
   <path id="_31" class="fil10" d="M2889.24 2602.69l119.22 0 2.92 0c-0.37,-0.37 -0.73,-0.75 -1.11,-1.12 -27.54,-26.63 -50.06,-49.11 -67.54,-67.38 -17.74,-18.54 -30.09,-32.55 -37.04,-41.97l-0.02 -0.02c-7.12,-9.71 -12.46,-19.89 -16.03,-30.56 -3.59,-10.72 -5.38,-21.89 -5.38,-33.54l0 -66.85c0,-40.24 13.32,-70.51 39.94,-90.8 26.21,-19.99 65.18,-29.98 116.89,-29.98 46.48,0 81.49,9.15 105.04,27.45 23.93,18.59 35.89,46.3 35.89,83.12l0 103.19 0 4.96 -4.96 0 -119.22 0 -4.96 0 0 -4.96 0 -109.29c0,-8.48 -5.02,-12.78 -15.05,-12.78 -12.3,0 -18.45,9.56 -18.45,28.66l2.54 38.45 0.02 0.31c0,20.76 14.25,45.26 42.73,73.63 27.45,26.24 49.94,48.52 67.44,66.83 17.57,18.39 30.17,32.87 37.77,43.44l0.02 0.02c7.75,10.86 13.56,22.4 17.43,34.66 3.86,12.26 5.79,25.2 5.79,38.89l0 75.94c0,41.2 -13.31,72.2 -39.94,93 -26.26,20.51 -65.32,30.77 -117.18,30.77 -101.1,0 -151.72,-37.71 -151.72,-113.12l0 -135.97 0 -4.96 4.96 0zm0 4.96l119.22 0 0 136.83c0,13.63 8.23,20.44 24.7,20.44 15.9,0 23.85,-6.81 23.85,-20.3l0 -70.54c0,-21.57 -14.48,-46.98 -43.29,-76.08 -55.78,-53.94 -90.41,-90.27 -104.04,-108.72 -13.63,-18.59 -20.44,-38.89 -20.44,-61.18l0 -66.85c0,-77.21 50.67,-115.82 151.87,-115.82 90.7,0 135.97,35.2 135.97,105.6l0 103.19 -119.22 0 0 -109.29c0,-11.78 -6.67,-17.74 -20.01,-17.74 -15.61,0 -23.42,11.21 -23.42,33.64l2.55 38.75c0,22.14 14.76,47.83 44.28,77.21 54.79,52.37 89.7,88.85 104.61,109.57 14.9,20.86 22.28,44.28 22.28,70.68l0 75.94c0,79.2 -50.67,118.8 -152.16,118.8 -97.79,0 -146.76,-36.05 -146.76,-108.16l0 -135.97zm124.19 -2.86l0 2.86 0 136.83c0,5.26 1.46,9.1 4.37,11.51 3.19,2.64 8.32,3.96 15.36,3.96 6.74,0 11.63,-1.3 14.66,-3.89 2.81,-2.39 4.22,-6.22 4.22,-11.44l0 -70.54c0,-9.92 -3.4,-20.86 -10.17,-32.76 -6.46,-11.35 -15.95,-23.54 -28.44,-36.53z"/>
  </g>
 </g>
</svg>
