<?xml version="1.0" encoding="UTF-8"?>
<!DOCTYPE svg PUBLIC "-//W3C//DTD SVG 1.0//EN" "http://www.w3.org/TR/2001/REC-SVG-20010904/DTD/svg10.dtd">
<!-- Creator: CorelDRAW -->
<svg xmlns="http://www.w3.org/2000/svg" xml:space="preserve" width="254mm" height="152.4mm" version="1.0" style="shape-rendering:geometricPrecision; text-rendering:geometricPrecision; image-rendering:optimizeQuality; fill-rule:evenodd; clip-rule:evenodd"
viewBox="0 0 7236.49 4341.89"
 xmlns:xlink="http://www.w3.org/1999/xlink"
 xmlns:xodm="http://www.corel.com/coreldraw/odm/2003">
 <defs>
  <style type="text/css">
   <![CDATA[
    .str4 {stroke:#BAD44C;stroke-width:28.49;stroke-miterlimit:22.9256}
    .str3 {stroke:#BDBFC1;stroke-width:14.24;stroke-miterlimit:22.9256}
    .str5 {stroke:white;stroke-width:20.1;stroke-miterlimit:22.9256}
    .str6 {stroke:#CCCCCC;stroke-width:10.05;stroke-miterlimit:22.9256}
    .str0 {stroke:black;stroke-width:5.7;stroke-miterlimit:22.9256}
    .str2 {stroke:#CCCCCC;stroke-width:5.7;stroke-miterlimit:22.9256}
    .str1 {stroke:#BA1212;stroke-width:5.7;stroke-linecap:round;stroke-miterlimit:22.9256}
    .fil0 {fill:none}
    .fil16 {fill:none;fill-rule:nonzero}
    .fil6 {fill:black}
    .fil14 {fill:#61240E}
    .fil9 {fill:#65AD4F}
    .fil8 {fill:#68B750}
    .fil10 {fill:#6DBE4F}
    .fil3 {fill:#9C6F48}
    .fil13 {fill:#B3B3B3}
    .fil11 {fill:#BDBFC1}
    .fil4 {fill:#CCCCCC}
    .fil12 {fill:#FEFEFE}
    .fil7 {fill:red}
    .fil5 {fill:#FFEABD}
    .fil2 {fill:white}
    .fil1 {fill:#373435;fill-rule:nonzero}
    .fil15 {fill:white;fill-rule:nonzero}
   ]]>
  </style>
   <clipPath id="id0">
    <path d="M5150.2 3575.06c-129.1,-12.1 -248.45,65.07 -276.8,185.53 -3.19,13.58 -5.09,27.17 -5.8,40.69 -9.57,1.28 -18.68,1.83 -25.03,2.83 -6.43,1.02 -10.03,2.5 -10.91,4.26 -0.88,1.77 0.96,3.83 4.54,5.37 3.59,1.54 8.92,2.56 12.66,3.44 3.74,0.88 5.89,1.62 6.43,2.79 0.54,1.17 -0.54,2.78 -3.05,3.58 -2.51,0.8 -6.46,0.8 -10.18,1.32 -3.72,0.52 -7.22,1.55 -8.16,2.61 -0.95,1.05 0.66,2.13 3.5,3.38 2.84,1.25 6.92,2.67 10.6,3.31 3.68,0.64 6.97,0.48 6.38,1.5 -0.59,1.02 -5.06,3.23 -9.5,4.85 -4.45,1.62 -8.87,2.67 -12.03,4.25 -3.16,1.58 -5.05,3.69 -4.25,5.74 0.8,2.05 4.28,4.03 10.93,4.89 6.65,0.87 16.46,0.62 27.67,-2.08 1.13,-0.27 2.27,-0.57 3.43,-0.89 16.85,98.22 95.98,183.58 205.97,209.47 108.38,25.51 215.7,-14.05 275.15,-92.15l0.25 0.25c3.1,3.1 6.63,6.2 10.72,8.5 4.1,2.3 8.76,3.82 12.28,4.23 3.52,0.41 5.92,-0.28 7.07,-1.05 1.15,-0.77 1.08,-1.63 -0.56,-3.27 -1.63,-1.64 -4.82,-4.06 -7.76,-7.26 -2.94,-3.2 -5.62,-7.17 -7.24,-10.44 -1.62,-3.26 -2.17,-5.81 -1.66,-5.91 0.51,-0.09 2.07,2.28 5.21,5 3.14,2.72 7.85,5.77 11.9,7.22 4.05,1.44 7.43,1.26 7.97,0.14 0.55,-1.13 -1.75,-3.2 -3.79,-5.21 -2.03,-2.01 -3.8,-3.96 -5.12,-6.36 -1.31,-2.4 -2.18,-5.25 -1.34,-5.59 0.83,-0.34 3.36,1.83 7.12,3.5 3.77,1.67 8.77,2.85 11.25,1.32 2.47,-1.53 2.41,-5.77 -1.34,-11.03 -3.76,-5.26 -11.21,-11.55 -16.39,-20.96l-0.49 -0.92c5.41,-12.44 9.79,-25.48 12.99,-39.09 27.4,-116.41 -39.31,-234.54 -152.98,-284.54 0.68,-2.42 1.33,-4.7 1.9,-6.98 2.16,-8.67 3.02,-17.29 3.56,-24.02 0.54,-6.73 0.75,-11.55 0.2,-15.63 -0.55,-4.08 -1.86,-7.41 -3.86,-9.27 -2,-1.86 -4.7,-2.26 -5.79,-0.55 -1.1,1.71 -0.61,5.55 -3.09,10.65 -2.48,5.11 -7.93,11.49 -11.77,15.46 -3.84,3.97 -6.07,5.54 -7.46,6.03 -1.39,0.48 -1.95,-0.11 -1.27,-2.51 0.68,-2.4 2.6,-6.59 4.55,-10.43 1.95,-3.84 3.93,-7.32 4.6,-10.65 0.67,-3.33 0.02,-6.5 -0.58,-8.38 -0.6,-1.88 -1.16,-2.48 -3.34,-1.13 -2.17,1.34 -5.97,4.63 -8.85,8.48 -2.88,3.85 -4.85,8.26 -6.78,11.53 -1.93,3.26 -3.82,5.37 -5.99,7.19 -2.17,1.81 -4.62,3.33 -5.24,2.02 -0.62,-1.31 0.58,-5.44 1.5,-8.82 0.91,-3.39 1.54,-6.03 1.41,-9.43 -0.13,-3.4 -1.01,-7.56 -2.05,-9.07 -1.04,-1.52 -2.23,-0.41 -3.52,3.59 -1.29,3.99 -2.67,10.87 -6.62,15.28 -3.94,4.42 -10.44,6.37 -12.03,6.23 -1.59,-0.14 1.72,-2.38 3.3,-5.61 1.58,-3.23 1.41,-7.45 0.63,-12.05 -0.77,-4.6 -2.16,-9.57 -3.25,-10.87 -1.09,-1.3 -1.88,1.07 -2.54,2.89 -0.66,1.82 -1.19,3.09 -3.95,5.92 -2.76,2.83 -7.74,7.24 -10.46,10.89 -2.72,3.66 -3.17,6.57 -3.09,10.19 0.04,1.78 0.2,3.72 0.26,5.81z"/>
   </clipPath>
    <clipPath id="id1">
     <path d="M5132.3 3897.94c14.09,11.3 24.4,29.3 29.95,44.91 5.55,15.62 6.35,28.87 9.36,42.31 3.01,13.45 8.23,27.09 14.65,35.32 6.42,8.23 14.05,11.04 20.67,11.24 6.62,0.2 12.24,-2.21 16.66,-8.83 4.41,-6.62 7.62,-17.46 9.03,-25.48 1.4,-8.03 1.01,-13.25 0.2,-21.68 -0.8,-8.43 -2.01,-20.07 -5.4,-28.03 -3.4,-7.96 -8.99,-12.25 -14.71,-16.37 -5.72,-4.11 -11.57,-8.05 -16.2,-12.53 -4.63,-4.48 -8.04,-9.49 -14.76,-14.21 -6.72,-4.72 -16.76,-9.13 -33.86,-13.61 -17.11,-4.48 -41.29,-9.01 -44.43,-8.98 -3.15,0.03 14.74,4.64 28.84,15.94z"/>
    </clipPath>
    <clipPath id="id2">
     <path d="M5150.2 3575.06c-129.1,-12.1 -248.45,65.07 -276.8,185.53 -3.19,13.58 -5.09,27.17 -5.8,40.69 -9.57,1.28 -18.68,1.83 -25.03,2.83 -6.43,1.02 -10.03,2.5 -10.91,4.26 -0.88,1.77 0.96,3.83 4.54,5.37 3.59,1.54 8.92,2.56 12.66,3.44 3.74,0.88 5.89,1.62 6.43,2.79 0.54,1.17 -0.54,2.78 -3.05,3.58 -2.51,0.8 -6.46,0.8 -10.18,1.32 -3.72,0.52 -7.22,1.55 -8.16,2.61 -0.95,1.05 0.66,2.13 3.5,3.38 2.84,1.25 6.92,2.67 10.6,3.31 3.68,0.64 6.97,0.48 6.38,1.5 -0.59,1.02 -5.06,3.23 -9.5,4.85 -4.45,1.62 -8.87,2.67 -12.03,4.25 -3.16,1.58 -5.05,3.69 -4.25,5.74 0.8,2.05 4.28,4.03 10.93,4.89 6.65,0.87 16.46,0.62 27.67,-2.08 1.13,-0.27 2.27,-0.57 3.43,-0.89 16.85,98.22 95.98,183.58 205.97,209.47 108.38,25.51 215.7,-14.05 275.15,-92.15l0.25 0.25c3.1,3.1 6.63,6.2 10.72,8.5 4.1,2.3 8.76,3.82 12.28,4.23 3.52,0.41 5.92,-0.28 7.07,-1.05 1.15,-0.77 1.08,-1.63 -0.56,-3.27 -1.63,-1.64 -4.82,-4.06 -7.76,-7.26 -2.94,-3.2 -5.62,-7.17 -7.24,-10.44 -1.62,-3.26 -2.17,-5.81 -1.66,-5.91 0.51,-0.09 2.07,2.28 5.21,5 3.14,2.72 7.85,5.77 11.9,7.22 4.05,1.44 7.43,1.26 7.97,0.14 0.55,-1.13 -1.75,-3.2 -3.79,-5.21 -2.03,-2.01 -3.8,-3.96 -5.12,-6.36 -1.31,-2.4 -2.18,-5.25 -1.34,-5.59 0.83,-0.34 3.36,1.83 7.12,3.5 3.77,1.67 8.77,2.85 11.25,1.32 2.47,-1.53 2.41,-5.77 -1.34,-11.03 -3.76,-5.26 -11.21,-11.55 -16.39,-20.96l-0.49 -0.92c5.41,-12.44 9.79,-25.48 12.99,-39.09 27.4,-116.41 -39.31,-234.54 -152.98,-284.54 0.68,-2.42 1.33,-4.7 1.9,-6.98 2.16,-8.67 3.02,-17.29 3.56,-24.02 0.54,-6.73 0.75,-11.55 0.2,-15.63 -0.55,-4.08 -1.86,-7.41 -3.86,-9.27 -2,-1.86 -4.7,-2.26 -5.79,-0.55 -1.1,1.71 -0.61,5.55 -3.09,10.65 -2.48,5.11 -7.93,11.49 -11.77,15.46 -3.84,3.97 -6.07,5.54 -7.46,6.03 -1.39,0.48 -1.95,-0.11 -1.27,-2.51 0.68,-2.4 2.6,-6.59 4.55,-10.43 1.95,-3.84 3.93,-7.32 4.6,-10.65 0.67,-3.33 0.02,-6.5 -0.58,-8.38 -0.6,-1.88 -1.16,-2.48 -3.34,-1.13 -2.17,1.34 -5.97,4.63 -8.85,8.48 -2.88,3.85 -4.85,8.26 -6.78,11.53 -1.93,3.26 -3.82,5.37 -5.99,7.19 -2.17,1.81 -4.62,3.33 -5.24,2.02 -0.62,-1.31 0.58,-5.44 1.5,-8.82 0.91,-3.39 1.54,-6.03 1.41,-9.43 -0.13,-3.4 -1.01,-7.56 -2.05,-9.07 -1.04,-1.52 -2.23,-0.41 -3.52,3.59 -1.29,3.99 -2.67,10.87 -6.62,15.28 -3.94,4.42 -10.44,6.37 -12.03,6.23 -1.59,-0.14 1.72,-2.38 3.3,-5.61 1.58,-3.23 1.41,-7.45 0.63,-12.05 -0.77,-4.6 -2.16,-9.57 -3.25,-10.87 -1.09,-1.3 -1.88,1.07 -2.54,2.89 -0.66,1.82 -1.19,3.09 -3.95,5.92 -2.76,2.83 -7.74,7.24 -10.46,10.89 -2.72,3.66 -3.17,6.57 -3.09,10.19 0.04,1.78 0.2,3.72 0.26,5.81z"/>
    </clipPath>
   <clipPath id="id3">
    <path d="M4559.36 2522.09c43.78,0.85 99.39,-8 144.89,-30.2 45.5,-22.2 80.87,-57.74 114.3,-107.66 33.43,-49.92 64.92,-114.22 87.87,-156.82 22.95,-42.6 37.35,-63.5 53.53,-85.29 16.18,-21.79 34.13,-44.47 67.4,-72.98 33.28,-28.51 81.88,-62.85 119.95,-79.78 38.08,-16.93 65.62,-16.45 87.3,-21.21 21.67,-4.76 37.47,-14.75 46.03,-27.58 8.56,-12.84 9.89,-28.52 -1.88,-47.86 -11.77,-19.34 -36.64,-42.32 -61.57,-59.65 -24.93,-17.33 -49.91,-29 -83.22,-41.6 -33.3,-12.61 -74.93,-26.15 -119.94,-31.5 -45.01,-5.35 -93.42,-2.51 -136.02,2.36 -42.6,4.87 -79.4,11.78 -126.81,32.89 -47.41,21.11 -105.42,56.43 -153.94,98.41 -48.52,41.98 -87.54,90.62 -120.37,133.92 -32.83,43.3 -59.47,81.28 -81.14,118.28 -21.66,37.01 -38.35,73.05 -47.47,110.23 -9.12,37.18 -10.67,75.5 -5.83,104.81 4.84,29.31 16.07,49.6 35.35,71.31 19.28,21.7 46.61,44.82 76.24,61.66 29.63,16.84 61.57,27.4 105.34,28.26z"/>
   </clipPath>
   <clipPath id="id4">
    <path d="M6001.77 3874.6c21.83,87.32 19.85,93.27 55.57,108.16 35.72,14.88 109.16,38.7 200.45,52.59 91.29,13.89 161.18,26.13 242.55,10.25 81.37,-15.88 160.58,-28.12 186.38,-47.96 25.8,-19.85 -18.65,-147.23 -20.31,-248.31 -1.66,-101.07 5.1,-318.45 0.21,-451.27 -4.89,-132.82 -13.89,-128.01 0,-136.94 13.89,-8.93 43.66,-26.79 58.55,-159.76 14.88,-132.97 14.88,-381.05 14.88,-611.27 0,-230.22 0,-442.57 -1.94,-558.13 -1.94,-115.56 -5.83,-134.31 -33.43,-157.51 -27.6,-23.19 -78.91,-50.82 -106.53,-64.64 -27.63,-13.81 -31.58,-13.81 -35.03,-13.81 -3.45,0 -6.41,0 4.44,-6.41 10.85,-6.41 35.52,-19.24 64.63,-41.44 29.11,-22.2 62.66,-53.78 80.42,-83.87 17.76,-30.1 19.73,-58.71 -6.91,-150.47 -26.64,-91.77 -81.9,-246.68 -163.8,-379.39 -81.9,-132.72 -190.43,-243.23 -298.48,-308.35 -108.05,-65.12 -300.15,-93.17 -353.93,-103.04 -53.78,-9.87 -88.74,-3.9 -93.93,-19.77 -5.19,-15.87 -11.06,-20.59 -24.63,-62.57 -13.57,-41.98 -10.53,-58.29 -17.44,-81.48 -6.91,-23.19 -11.12,-52.05 -32.33,-54.02 -21.21,-1.97 -50.02,-3.95 -72.22,30.09 -22.2,34.04 -4.89,101.12 -6.15,135.11 -0.77,20.81 10.83,37.72 -3.08,53.51 -10.23,11.61 -53.31,21.59 -60.52,24.38 -113.94,44.06 -242.8,98.16 -315.17,137.36 -23.68,12.82 -25.66,12.83 -56.24,-15.29 -30.59,-28.12 -89.79,-84.36 -126.82,-108.48 -37.02,-24.11 -51.86,-16.1 -65.68,-4.76 -13.81,11.35 -26.6,26.03 -17.7,52.61 8.9,26.58 39.49,65.07 64.16,92.69 24.67,27.63 43.42,44.4 54.27,53.78 10.85,9.37 13.81,11.35 -7.89,27.63 -21.71,16.28 -21.07,15.53 -83.72,85.09 -62.66,69.56 -147.86,145.56 -183.62,269.91 -35.76,124.35 -37.47,248 -49.8,340.75 -12.33,92.75 0.49,137.15 8.88,160.34 8.38,23.19 12.33,25.16 44.89,29.11 32.56,3.95 93.74,9.87 125.8,12.83 32.07,2.96 35.03,2.96 16.74,14.4 -18.29,11.44 -86.13,15.89 -95.2,60.78 -60.9,301.43 -38.03,454.89 -45.87,739.6 -1.95,71.05 -10.13,179.13 -1.83,261.47 4.95,49.13 17.46,67.78 37.99,92.67 20.53,24.89 49.08,56.04 67.24,73.55 18.17,17.52 25.95,21.41 30.49,25.3 4.54,3.89 -208.05,342.25 -316.55,381.46 -75.35,27.23 -191.72,74.04 -245.45,140.68 -23.63,29.31 -26.98,96.37 -23.19,109.97 12.42,44.53 23.29,79.74 42.5,99.91 19.21,20.17 54.17,26.6 97.97,40.87 43.79,14.27 95.05,24.66 167.71,25.95 72.66,1.29 245.85,-123.59 313.97,-137.54 46.5,-9.52 184.62,-7.96 226.91,-31.58 65.01,-36.31 42.83,-192.77 92.95,-244.33 73.17,-75.27 242.72,-220.57 340.2,-260.16 65.91,-26.77 85.27,-21.21 135.72,8.28 61.91,36.17 104.84,170.06 117.94,219.15 26.34,98.71 32.46,418.25 70.96,572.28z"/>
   </clipPath>
   <clipPath id="id5">
    <path d="M6544.45 1854.69c37.34,32.22 77.3,81.49 98.74,134.33 21.44,52.84 24.35,109.25 14.81,176.25 -9.54,67 -31.52,144.6 -44.34,197.57 -12.82,52.98 -16.46,81.33 -19.29,111.77 -2.83,30.44 -4.85,62.95 1.59,111.89 6.44,48.94 21.35,114.29 40.53,157.13 19.18,42.84 42.64,63.17 57.22,83.46 14.59,20.29 20.31,40.56 17.83,57.76 -2.48,17.21 -13.17,31.35 -37.59,38.7 -24.42,7.35 -62.56,7.91 -96.5,3.68 -33.93,-4.23 -63.66,-13.25 -101.06,-27.74 -37.4,-14.49 -82.48,-34.46 -124.24,-63.84 -41.76,-29.38 -80.2,-68.18 -112.25,-104.32 -32.05,-36.14 -57.7,-69.62 -81.56,-122.98 -23.86,-53.37 -45.91,-126.62 -55,-198.32 -9.09,-71.7 -5.21,-141.83 -0.15,-202.84 5.06,-61.01 11.3,-112.88 20.98,-160.2 9.68,-47.32 22.81,-90.09 43.14,-128.12 20.33,-38.03 47.87,-71.32 73.98,-92.25 26.11,-20.92 50.8,-29.49 83.29,-33.18 32.49,-3.69 72.8,-2.51 110.31,5.67 37.51,8.18 72.23,23.35 109.57,55.58z"/>
   </clipPath>
 </defs>
 <g id="Capa_x0020_1">
  <metadata id="CorelCorpID_0Corel-Layer"/>
  <rect class="fil0" x="-0" y="-0" width="7236.49" height="4341.89" rx="297.53" ry="399.14"/>
  <polygon class="fil1" points="1205.73,1985.48 1087.59,1985.48 1087.59,1646.6 1018.46,1985.48 927.06,1985.48 847.87,1646.6 847.87,1985.48 744.4,1985.48 744.4,1381.87 914.84,1381.87 975.49,1695.03 1028.24,1381.87 1205.73,1381.87 "/>
  <polygon id="_1" class="fil1" points="1365.97,1985.48 1233.18,1985.48 1233.18,1381.87 1365.97,1381.87 "/>
  <polygon id="_2" class="fil1" points="1668.78,1460.34 1594.63,1460.34 1594.63,1985.48 1461.83,1985.48 1461.83,1460.34 1387.67,1460.34 1387.67,1381.87 1668.78,1381.87 "/>
  <polygon id="_3" class="fil1" points="1825.01,1985.48 1692.21,1985.48 1692.21,1381.87 1825.01,1381.87 "/>
  <path id="_4" class="fil1" d="M2141.61 1985.48l-63.38 0 -17.25 -33.2c-29.17,25.58 -59.93,38.37 -92.41,38.37 -31.62,0 -59.21,-8.19 -82.93,-24.58 -23.71,-16.38 -35.5,-42.54 -35.5,-78.47l0 -393.64c0,-78.18 49.87,-117.27 149.46,-117.27 94.71,0 141.99,35.64 141.99,106.93l0 112.1 -120.72 0 0 -121.59c0,-9.77 -6.32,-14.66 -18.97,-14.66 -12.65,0 -18.97,4.89 -18.97,14.66l0 417.35c0,9.77 6.32,14.66 18.97,14.66 12.65,0 18.97,-4.89 18.97,-14.8l0 -112.82 -25.87 0 0 -92.27 146.59 0 0 299.22z"/>
  <path id="_5" class="fil1" d="M2528.93 1985.48l-131.93 0 -22.28 -162.11 -58.64 0 -22.56 162.11 -131.93 0 98.87 -603.61 169.45 0 99.02 603.61zm-164.84 -245.76l-18.97 -180.22 -18.11 180.22 37.08 0z"/>
  <path id="_6" class="fil1" d="M2876.44 1986.34l-132.07 0c-14.23,-17.1 -21.42,-65.68 -21.42,-145.73l0 -0.86 0.72 -36.22c0.72,-50.3 1.01,-75.88 1.01,-77.03 0,-20.55 -13.51,-30.76 -40.53,-30.76l0 289.73 -132.79 0 0 -603.61 163.69 0c37.37,0 69.85,8.62 97.44,25.73 27.74,17.1 41.54,44.12 41.54,81.05l0 72.43c0,46.85 -27.31,78.47 -82.06,95 54.76,12.93 82.06,46.28 82.06,99.88l-1.73 66.11c0,96.58 8.05,151.33 24.15,164.27zm-151.76 -395.94l0 -99.31c0,-21.13 -13.51,-31.62 -40.53,-31.62l0 162.97c27.02,0 40.53,-10.64 40.53,-32.05z"/>
  <path id="_7" class="fil1" d="M1008.33 2882.42l-131.93 0 -22.28 -162.11 -58.64 0 -22.56 162.11 -131.93 0 98.87 -603.61 169.45 0 99.02 603.61zm-164.84 -245.76l-18.97 -180.22 -18.11 180.22 37.08 0z"/>
  <polygon id="_8" class="fil1" points="1305.82,2357.28 1231.67,2357.28 1231.67,2882.42 1098.87,2882.42 1098.87,2357.28 1024.72,2357.28 1024.72,2278.81 1305.82,2278.81 "/>
  <path id="_9" class="fil1" d="M1689.7 2882.42l-131.93 0 -22.28 -162.11 -58.64 0 -22.56 162.11 -131.93 0 98.87 -603.61 169.45 0 99.02 603.61zm-164.84 -245.76l-18.97 -180.22 -18.11 180.22 37.08 0z"/>
  <path id="_10" class="fil1" d="M2012.19 2965.2l-52.6 0c-54.18,0 -81.2,-25.87 -81.2,-77.61 -112.53,0 -168.87,-36.22 -168.87,-108.51l0 -388.18c0,-78.18 50.73,-117.27 152.34,-117.27 100.17,0 150.33,38.8 150.33,116.41l0 388.18c0,42.11 -22.13,73.73 -66.54,95.14 0,9.77 3.45,15.81 10.21,18.25 6.61,2.44 25.44,3.74 56.34,3.74l0 69.85zm-129.35 -180.22l0 -410.46c0,-12.07 -7.19,-18.11 -21.7,-18.11 -14.8,0 -22.28,6.04 -22.28,18.11l0 410.46c0,12.07 7.47,18.11 22.28,18.11 14.52,0 21.7,-6.04 21.7,-18.11z"/>
  <path id="_11" class="fil1" d="M2039.65 2278.81l132.79 0 0 506.17c0,12.07 7.48,18.11 22.28,18.11 14.52,0 21.7,-6.04 21.7,-18.11l0 -506.17 132.8 0 0 499.42c0,34.78 -14.52,61.65 -43.4,80.77 -28.89,19.11 -65.97,28.6 -111.09,28.6 -41.97,0 -78.18,-8.62 -108.94,-25.73 -30.76,-17.1 -46.13,-44.7 -46.13,-82.78l0 -500.28z"/>
  <polygon id="_12" class="fil1" points="2637.36,2882.42 2377.81,2882.42 2377.81,2278.81 2635.64,2278.81 2635.64,2356.41 2510.6,2356.41 2510.6,2519.39 2623.42,2519.39 2623.42,2592.68 2510.6,2592.68 2510.6,2804.81 2637.36,2804.81 "/>
  <path id="_13" class="fil1" d="M2658.2 2640.4l120.72 0 0 138.54c0,13.8 8.34,20.7 25.01,20.7 16.1,0 24.15,-6.9 24.15,-20.55l0 -71.43c0,-21.84 -14.66,-47.57 -43.83,-77.03 -56.48,-54.61 -91.55,-91.4 -105.34,-110.09 -13.8,-18.83 -20.7,-39.38 -20.7,-61.94l0 -67.69c0,-78.18 51.31,-117.27 153.78,-117.27 91.84,0 137.68,35.64 137.68,106.93l0 104.48 -120.72 0 0 -110.66c0,-11.93 -6.76,-17.97 -20.27,-17.97 -15.81,0 -23.71,11.35 -23.71,34.06l2.59 39.24c0,22.42 14.95,48.43 44.84,78.18 55.48,53.03 90.83,89.97 105.92,110.95 15.09,21.13 22.56,44.84 22.56,71.57l0 76.89c0,80.19 -51.31,120.29 -154.07,120.29 -99.02,0 -148.6,-36.5 -148.6,-109.51l0 -137.68z"/>
  <g>
   <path id="_14" class="fil2" d="M1205.73 1990.51l-118.14 0 -5.03 0 0 -5.03 0 -289.18 -59.19 290.18 -0.82 4.03 -4.09 0 -91.4 0 -3.98 0 -0.91 -3.89 -69.27 -296.45 0 295.31 0 5.03 -5.03 0 -103.48 0 -5.03 0 0 -5.03 0 -603.61 0 -5.03 5.03 0 170.45 0 4.14 0 0.79 4.08 55.38 285.94 48.14 -285.82 0.71 -4.2 4.24 0 177.49 0 5.03 0 0 5.03 0 603.61 0 5.03 -5.03 0zm0 -5.03l-118.14 0 0 -338.88 -69.13 338.88 -91.4 0 -79.19 -338.88 0 338.88 -103.48 0 0 -603.61 170.45 0 60.65 313.16 52.74 -313.16 177.49 0 0 603.61z"/>
  </g>
  <g>
   <path id="_15" class="fil2" d="M1365.97 1990.51l-132.8 0 -5.03 0 0 -5.03 0 -603.61 0 -5.03 5.03 0 132.8 0 5.03 0 0 5.03 0 603.61 0 5.03 -5.03 0zm0 -5.03l-132.8 0 0 -603.61 132.8 0 0 603.61z"/>
  </g>
  <g>
   <path id="_16" class="fil2" d="M1668.78 1465.36l-69.13 0 0 520.12 0 5.03 -5.03 0 -132.8 0 -5.03 0 0 -5.03 0 -520.12 -69.13 0 -5.03 0 0 -5.03 0 -78.47 0 -5.03 5.03 0 281.11 0 5.03 0 0 5.03 0 78.47 0 5.03 -5.03 0zm0 -5.03l-74.16 0 0 525.14 -132.8 0 0 -525.14 -74.16 0 0 -78.47 281.11 0 0 78.47z"/>
  </g>
  <g>
   <path id="_17" class="fil2" d="M1825.01 1990.51l-132.8 0 -5.03 0 0 -5.03 0 -603.61 0 -5.03 5.03 0 132.8 0 5.03 0 0 5.03 0 603.61 0 5.03 -5.03 0zm0 -5.03l-132.8 0 0 -603.61 132.8 0 0 603.61z"/>
  </g>
  <g>
   <path id="_18" class="fil2" d="M2141.61 1990.51l-63.38 0 -3.05 0 -1.41 -2.71 -14.34 -27.62c-13.48,11.11 -27.31,19.62 -41.49,25.51 -16.02,6.66 -32.48,9.99 -49.37,9.99 -16.27,0 -31.54,-2.12 -45.84,-6.36 -14.33,-4.25 -27.64,-10.62 -39.93,-19.12 -12.63,-8.72 -22.08,-20.05 -28.37,-33.97 -6.21,-13.74 -9.3,-29.95 -9.3,-48.63l0 -393.64c0,-40.7 13.11,-71.33 39.32,-91.89l-0.01 -0.01c25.83,-20.27 64.24,-30.4 115.18,-30.4 48.46,0 84.97,9.25 109.54,27.75 24.99,18.82 37.48,46.89 37.48,84.2l0 112.1 0 5.03 -5.03 0 -120.72 0 -5.03 0 0 -5.03 0 -121.59c0,-3.25 -0.93,-5.6 -2.78,-7.03 -2.25,-1.73 -5.97,-2.6 -11.17,-2.6 -9.3,0 -13.95,3.21 -13.95,9.63l0 417.35c0,3.25 0.93,5.6 2.78,7.03 2.25,1.73 5.97,2.6 11.17,2.6 5.17,0 8.9,-0.87 11.15,-2.62 1.87,-1.45 2.8,-3.83 2.8,-7.15l0 -107.79 -20.84 0 -5.03 0 0 -5.03 0 -92.27 0 -5.03 5.03 0 146.59 0 5.03 0 0 5.03 0 299.22 0 5.03 -5.03 0zm0 -5.03l-63.38 0 -17.25 -33.2c-29.17,25.58 -59.93,38.37 -92.41,38.37 -31.62,0 -59.21,-8.19 -82.93,-24.58 -23.71,-16.38 -35.5,-42.54 -35.5,-78.47l0 -393.64c0,-78.18 49.87,-117.27 149.46,-117.27 94.71,0 141.99,35.64 141.99,106.93l0 112.1 -120.72 0 0 -121.59c0,-9.77 -6.32,-14.66 -18.97,-14.66 -12.65,0 -18.97,4.89 -18.97,14.66l0 417.35c0,9.77 6.32,14.66 18.97,14.66 12.65,0 18.97,-4.89 18.97,-14.8l0 -112.82 -25.87 0 0 -92.27 146.59 0 0 299.22z"/>
  </g>
  <g>
   <path id="_19" class="fil2" d="M2528.93 1990.51l-131.93 0 -4.36 0 -0.6 -4.36 -21.68 -157.75 -49.91 0 -21.96 157.77 -0.6 4.34 -4.36 0 -131.93 0 -5.9 0 0.95 -5.83 98.87 -603.61 0.69 -4.22 4.25 0 169.45 0 4.26 0 0.69 4.22 99.02 603.61 0.96 5.83 -5.9 0zm0 -5.03l-131.93 0 -22.28 -162.11 -58.64 0 -22.56 162.11 -131.93 0 98.87 -603.61 169.45 0 99.02 603.61zm-164.84 -245.76l-18.97 -180.22 -18.11 180.22 37.08 0zm-5.57 -5.03l-13.29 -126.23 -12.68 126.23 25.97 0z"/>
  </g>
  <g>
   <path id="_20" class="fil2" d="M2876.44 1991.37l-132.07 0 -2.33 0 -1.52 -1.83c-7.73,-9.29 -13.46,-26.57 -17.17,-51.81 -3.61,-24.55 -5.42,-56.92 -5.42,-97.12l0 -0.86 0.02 -0.1 0.72 -36.22c0.27,-18.91 0.48,-34.33 0.64,-46.26 0.25,-18.72 0.35,-29.53 0.35,-30.67 0,-15.93 -10.16,-24.43 -30.48,-25.59l0 284.57 0 5.03 -5.03 0 -132.79 0 -5.03 0 0 -5.03 0 -603.61 0 -5.03 5.03 0 163.69 0c19.07,0 36.94,2.21 53.6,6.61 16.73,4.42 32.22,11.05 46.47,19.88 14.66,9.04 25.66,20.73 32.99,35.07 7.3,14.25 10.94,31 10.94,50.24l0 72.43c0,24.66 -7.24,45.37 -21.74,62.15 -11.61,13.44 -27.84,24.25 -48.67,32.4 20.85,7.11 37.09,17.76 48.73,31.93 14.46,17.6 21.68,40.4 21.68,68.4l-0.02 0.12 -1.72 65.99 0.02 0c0,94.98 7.42,148.44 22.26,160.36l11.12 8.93 -14.26 0zm0 -5.03l-132.07 0c-14.23,-17.1 -21.42,-65.68 -21.42,-145.73l0 -0.86 0.72 -36.22c0.72,-50.3 1.01,-75.88 1.01,-77.03 0,-20.55 -13.51,-30.76 -40.53,-30.76l0 289.73 -132.79 0 0 -603.61 163.69 0c37.37,0 69.85,8.62 97.44,25.73 27.74,17.1 41.54,44.12 41.54,81.05l0 72.43c0,46.85 -27.31,78.47 -82.06,95 54.76,12.93 82.06,46.28 82.06,99.88l-1.73 66.11c0,96.58 8.05,151.33 24.15,164.27zm-151.76 -395.94l0 -99.31c0,-21.13 -13.51,-31.62 -40.53,-31.62l0 162.97c27.02,0 40.53,-10.64 40.53,-32.05zm-5.03 0l0 -99.31c0,-16.46 -10.16,-25.25 -30.48,-26.45l0 152.64c9.84,-0.56 17.26,-2.81 22.27,-6.76 5.47,-4.32 8.21,-11.03 8.21,-20.13z"/>
  </g>
  <g>
   <path id="_21" class="fil2" d="M1008.33 2887.44l-131.93 0 -4.36 0 -0.6 -4.36 -21.68 -157.75 -49.91 0 -21.96 157.77 -0.6 4.34 -4.36 0 -131.93 0 -5.9 0 0.95 -5.83 98.87 -603.61 0.69 -4.22 4.25 0 169.45 0 4.26 -0 0.69 4.22 99.02 603.61 0.96 5.83 -5.9 0zm0 -5.03l-131.93 0 -22.28 -162.11 -58.64 0 -22.56 162.11 -131.93 0 98.87 -603.61 169.45 0 99.02 603.61zm-164.84 -245.76l-18.97 -180.22 -18.11 180.22 37.08 0zm-5.57 -5.03l-13.29 -126.23 -12.68 126.23 25.97 0z"/>
  </g>
  <g>
   <path id="_22" class="fil2" d="M1305.82 2362.3l-69.13 0 0 520.12 0 5.03 -5.03 0 -132.8 0 -5.03 0 0 -5.03 0 -520.12 -69.13 0 -5.03 0 0 -5.03 0 -78.47 0 -5.03 5.02 0 281.11 0 5.03 0 0 5.03 0 78.47 0 5.03 -5.03 0zm0 -5.03l-74.16 0 0 525.14 -132.8 0 0 -525.14 -74.16 0 0 -78.47 281.11 0 0 78.47z"/>
  </g>
  <g>
   <path id="_23" class="fil2" d="M1689.7 2887.44l-131.93 0 -4.36 0 -0.6 -4.36 -21.68 -157.75 -49.91 0 -21.96 157.77 -0.6 4.34 -4.36 0 -131.93 0 -5.9 0 0.95 -5.83 98.87 -603.61 0.69 -4.22 4.25 0 169.45 0 4.26 -0 0.69 4.22 99.02 603.61 0.96 5.83 -5.9 0zm0 -5.03l-131.93 0 -22.28 -162.11 -58.64 0 -22.56 162.11 -131.93 0 98.87 -603.61 169.45 0 99.02 603.61zm-164.84 -245.76l-18.97 -180.22 -18.11 180.22 37.08 0zm-5.57 -5.03l-13.29 -126.23 -12.68 126.23 25.97 0z"/>
  </g>
  <g>
   <path id="_24" class="fil2" d="M2012.19 2970.22l-52.6 0c-55.76,0 -84.43,-25.88 -86.14,-77.63 -54.78,-0.52 -96.25,-9.84 -124.39,-27.92 -29.7,-19.08 -44.56,-47.62 -44.56,-85.58l0 -388.18c0,-40.73 13.34,-71.37 40.03,-91.92 26.3,-20.25 65.41,-30.38 117.34,-30.38 103.52,0 155.35,40.48 155.35,121.44l0 388.18c0,22.09 -5.84,41.48 -17.54,58.2 -11.09,15.84 -27.37,29.17 -48.86,39.99 0.25,2.59 0.84,4.71 1.77,6.36 1.09,1.95 2.75,3.33 4.96,4.13l0.04 0c2.88,1.07 8.82,1.91 17.8,2.5 9.17,0.61 21.45,0.92 36.81,0.92l5.03 0 0 5.03 0 69.85 0 5.03 -5.03 0zm0 -5.03l-52.6 0c-54.18,0 -81.2,-25.87 -81.2,-77.61 -112.53,0 -168.87,-36.22 -168.87,-108.51l0 -388.18c0,-78.18 50.73,-117.27 152.34,-117.27 100.17,0 150.33,38.8 150.33,116.41l0 388.18c0,42.11 -22.13,73.73 -66.54,95.14 0,9.77 3.45,15.81 10.21,18.25 6.61,2.44 25.44,3.74 56.34,3.74l0 69.85zm-129.35 -180.22l0 -410.46c0,-12.07 -7.19,-18.11 -21.7,-18.11 -14.8,0 -22.28,6.04 -22.28,18.11l0 410.46c0,12.07 7.47,18.11 22.28,18.11 14.52,0 21.7,-6.04 21.7,-18.11zm-5.03 0l0 -410.46c0,-4.48 -1.2,-7.72 -3.6,-9.73 -2.67,-2.23 -7.03,-3.35 -13.07,-3.35 -6.23,0 -10.76,1.13 -13.54,3.4 -2.47,2.01 -3.71,5.24 -3.71,9.69l0 410.46c0,4.45 1.25,7.68 3.71,9.69 2.78,2.26 7.3,3.4 13.54,3.4 6.05,0 10.41,-1.12 13.07,-3.35 2.4,-2.01 3.6,-5.26 3.6,-9.73z"/>
  </g>
  <g>
   <path id="_25" class="fil2" d="M2039.65 2273.78l132.79 0 5.03 0 0 5.03 0 506.17c0,4.45 1.25,7.68 3.71,9.69 2.78,2.26 7.3,3.4 13.54,3.4 6.05,0 10.41,-1.12 13.07,-3.35 2.4,-2.01 3.6,-5.26 3.6,-9.73l0 -506.17 0 -5.03 5.03 0 132.8 0 5.03 0 0 5.03 0 499.42c0,18.22 -3.83,34.43 -11.48,48.63 -7.64,14.2 -19.04,26.3 -34.18,36.32 -14.87,9.84 -31.86,17.21 -50.92,22.11 -18.99,4.89 -39.99,7.33 -62.95,7.33 -21.36,0 -41.29,-2.21 -59.81,-6.59 -18.58,-4.4 -35.76,-11 -51.56,-19.79 -16.21,-9.01 -28.39,-20.83 -36.54,-35.46 -8.12,-14.57 -12.18,-31.81 -12.18,-51.7l0 -500.28 0 -5.03 5.03 0zm0 5.03l132.79 0 0 506.17c0,12.07 7.48,18.11 22.28,18.11 14.52,0 21.7,-6.04 21.7,-18.11l0 -506.17 132.8 0 0 499.42c0,34.78 -14.52,61.65 -43.4,80.77 -28.89,19.11 -65.97,28.6 -111.09,28.6 -41.97,0 -78.18,-8.62 -108.94,-25.73 -30.76,-17.1 -46.13,-44.7 -46.13,-82.78l0 -500.28z"/>
  </g>
  <g>
   <path id="_26" class="fil2" d="M2637.36 2887.44l-259.55 0 -5.03 0 0 -5.03 0 -603.61 0 -5.03 5.03 0 257.83 0 5.03 0 0 5.03 0 77.61 0 5.03 -5.03 0 -120.01 0 0 152.92 107.79 0 5.03 0 0 5.03 0 73.3 0 5.03 -5.03 0 -107.79 0 0 202.07 121.73 0 5.03 0 0 5.03 0 77.61 0 5.03 -5.03 0zm0 -5.03l-259.55 0 0 -603.61 257.83 0 0 77.61 -125.03 0 0 162.97 112.82 0 0 73.3 -112.82 0 0 212.13 126.76 0 0 77.61z"/>
  </g>
  <g>
   <path id="_27" class="fil2" d="M2658.2 2635.37l120.72 0 2.96 0c-0.37,-0.38 -0.74,-0.75 -1.12,-1.13 -27.89,-26.97 -50.69,-49.73 -68.38,-68.22 -17.97,-18.78 -30.46,-32.95 -37.51,-42.49l-0.02 -0.02c-7.21,-9.83 -12.62,-20.14 -16.23,-30.94 -3.63,-10.85 -5.45,-22.17 -5.45,-33.96l0 -67.69c0,-40.74 13.49,-71.39 40.44,-91.94 26.54,-20.24 66,-30.36 118.36,-30.36 47.06,0 82.51,9.27 106.36,27.79 24.23,18.82 36.34,46.88 36.34,84.16l0 104.48 0 5.03 -5.03 0 -120.72 0 -5.03 0 0 -5.03 0 -110.66c0,-8.59 -5.08,-12.94 -15.24,-12.94 -12.45,0 -18.68,9.68 -18.69,29.02l2.57 38.93 0.02 0.31c0,21.01 14.42,45.83 43.27,74.55l0 -0c27.79,26.57 50.57,49.13 68.28,67.67 17.79,18.62 30.55,33.29 38.25,43.99l0.02 0.02c7.85,11 13.74,22.68 17.65,35.1 3.91,12.41 5.86,25.52 5.86,39.38l0 76.89c0,41.71 -13.48,73.11 -40.44,94.17 -26.59,20.77 -66.14,31.15 -118.65,31.15 -102.37,0 -153.63,-38.18 -153.63,-114.54l0 -137.68 0 -5.03 5.03 0zm0 5.03l120.72 0 0 138.54c0,13.8 8.34,20.7 25.01,20.7 16.1,0 24.15,-6.9 24.15,-20.55l0 -71.43c0,-21.84 -14.66,-47.57 -43.83,-77.03 -56.48,-54.61 -91.55,-91.4 -105.34,-110.09 -13.8,-18.83 -20.7,-39.38 -20.7,-61.94l0 -67.69c0,-78.18 51.31,-117.27 153.78,-117.27 91.84,0 137.68,35.64 137.68,106.93l0 104.48 -120.72 0 0 -110.66c0,-11.93 -6.76,-17.97 -20.27,-17.97 -15.81,0 -23.71,11.35 -23.71,34.06l2.59 39.24c0,22.42 14.95,48.43 44.84,78.18 55.48,53.03 90.83,89.97 105.92,110.95 15.09,21.13 22.56,44.84 22.56,71.57l0 76.89c0,80.19 -51.31,120.29 -154.07,120.29 -99.02,0 -148.6,-36.5 -148.6,-109.51l0 -137.68zm125.75 -2.9l0 2.9 0 138.54c0,5.33 1.48,9.22 4.42,11.66 3.23,2.68 8.42,4.01 15.56,4.01 6.82,0 11.78,-1.32 14.85,-3.94 2.85,-2.42 4.27,-6.29 4.27,-11.59l0 -71.43c0,-10.05 -3.44,-21.12 -10.3,-33.17 -6.54,-11.49 -16.15,-23.83 -28.8,-36.99z"/>
  </g>
  <g>
   <path class="fil3" d="M4899.95 3661.64c-65.25,-22.45 -147.6,-38.76 -245.68,-42.22 -98.08,-3.46 -211.88,5.94 -306.37,30.48 -94.49,24.54 -169.66,64.21 -214.86,103.58 -45.2,39.38 -60.42,78.45 -74.24,104.37 -13.82,25.93 -26.23,38.71 -76.57,34.31 -50.33,-4.4 -138.59,-25.97 -203.6,-40.41 -65.01,-14.44 -106.77,-21.75 -163.15,-31.15 -56.38,-9.4 -127.37,-20.88 -204.63,-6.27 -77.26,14.62 -160.79,55.34 -242.74,80.4 -81.96,25.06 -162.35,34.45 -219.25,45.42 -56.9,10.96 -90.31,23.49 -92.4,34.45 -2.09,10.96 27.15,20.36 65.25,20.36 38.11,0 85.09,-9.4 143.03,-23.49 57.95,-14.09 126.85,-32.89 192.63,-48.55 65.78,-15.66 128.42,-28.19 184.8,-38.11 56.38,-9.92 106.5,-17.23 163.92,-13.05 57.42,4.18 122.15,19.84 261.01,58.99 138.86,39.15 351.85,101.8 500.1,137.3 148.26,35.5 231.78,43.85 306.43,50.11 74.65,6.26 140.43,10.44 197.33,5.74 56.9,-4.7 104.93,-18.27 141.72,-29.32 36.79,-11.05 62.33,-19.57 91.05,-29.48 28.71,-9.92 60.59,-21.24 78.09,-49.86 17.5,-28.63 20.64,-74.57 -1.81,-123.12 -22.45,-48.55 -70.47,-99.71 -118.57,-139.58 -48.09,-39.87 -96.25,-68.45 -161.51,-90.9z"/>
   <path id="_1_0" class="fil4" d="M4899.95 3661.64c-65.25,-22.45 -147.6,-38.76 -245.68,-42.22 -98.08,-3.46 -211.88,5.94 -306.37,30.48 -94.49,24.54 -169.66,64.21 -214.86,103.58 -45.2,39.38 -60.42,78.45 -74.24,104.37 -13.82,25.93 -26.23,38.71 -76.57,34.31 -50.33,-4.4 -138.59,-25.97 -203.6,-40.41 -65.01,-14.44 -106.77,-21.75 -163.15,-31.15 -56.38,-9.4 -127.37,-20.88 -204.63,-6.27 -77.26,14.62 -160.79,55.34 -242.74,80.4 -81.96,25.06 -162.35,34.45 -219.25,45.42 -56.9,10.96 -90.31,23.49 -92.4,34.45 -2.09,10.96 27.15,20.36 65.25,20.36 38.11,0 85.09,-9.4 143.03,-23.49 57.95,-14.09 126.85,-32.89 192.63,-48.55 65.78,-15.66 128.42,-28.19 184.8,-38.11 56.38,-9.92 106.5,-17.23 163.92,-13.05 57.42,4.18 122.15,19.84 261.01,58.99 138.86,39.15 351.85,101.8 500.1,137.3 148.26,35.5 231.78,43.85 306.43,50.11 74.65,6.26 140.43,10.44 197.33,5.74 56.9,-4.7 104.93,-18.27 141.72,-29.32 36.79,-11.05 62.33,-19.57 91.05,-29.48 28.71,-9.92 60.59,-21.24 78.09,-49.86 17.5,-28.63 20.64,-74.57 -1.81,-123.12 -22.45,-48.55 -70.47,-99.71 -118.57,-139.58 -48.09,-39.87 -96.25,-68.45 -161.51,-90.9zm-114.23 -39.07c43.75,7.52 82.99,17.7 117.49,29.57 33.15,11.4 62.06,24.42 88.87,39.7 26.81,15.28 51.34,32.72 75.77,52.96 26.07,21.62 52.18,46.56 74.37,72.68 19.53,22.99 36.05,46.94 46.91,70.43 11.29,24.42 16.46,48.36 16.78,70.08 0.36,24.32 -5.41,45.93 -15.52,62.46 -9.78,16 -23.42,27.07 -38.53,35.48 -14.44,8.03 -30.06,13.51 -44.86,18.62 -15.23,5.26 -29.11,9.99 -42.65,14.4 -14.72,4.8 -30.39,9.72 -48.79,15.24 -18.45,5.54 -39.78,11.73 -63.98,17.2 -24.21,5.47 -50.92,10.13 -79.78,12.51 -28.72,2.37 -59.8,2.5 -93.19,1.24 -33.58,-1.26 -68.68,-3.87 -105.79,-6.98 -37.46,-3.14 -77.17,-6.81 -126.25,-14.17 -48.81,-7.32 -107,-18.34 -181.68,-36.22 -117.82,-28.21 -274.65,-72.99 -403.71,-109.84 -36.34,-10.38 -70.47,-20.12 -96.78,-27.54 -69.28,-19.53 -120.05,-33.21 -160.58,-42.49 -40.17,-9.2 -70.24,-14.1 -98.43,-16.15 -28.2,-2.05 -54.54,-1.29 -80.7,1.2 -26.11,2.48 -52.61,6.78 -80.78,11.74 -30.09,5.29 -61.44,11.22 -93.34,17.79 -28.71,5.92 -59.05,12.62 -90.87,20.2 -38.43,9.15 -74.7,18.5 -109.58,27.48 -29.38,7.57 -57.82,14.9 -83.01,21.03 -29.32,7.13 -55.82,13.07 -79.62,17.19 -24.33,4.21 -46.16,6.62 -65.77,6.62 -13.76,0 -26.55,-1.2 -37.34,-3.26 -10.04,-1.91 -18.5,-4.63 -24.6,-7.89 -8.61,-4.6 -13.47,-10.75 -13.47,-18.16 0,-0.93 0.1,-1.93 0.3,-2.99l0.01 0c1.77,-9.17 12.87,-17.6 32.08,-24.76 16.3,-6.08 39.4,-12.1 68.28,-17.67 14.98,-2.88 31.69,-5.68 49.62,-8.68 49.69,-8.31 108.97,-18.23 168.62,-36.46 31.27,-9.56 63.3,-21.64 95.11,-33.64 50.55,-19.07 100.56,-37.93 148.7,-47.03 39.57,-7.48 77.45,-8.29 112.62,-6.03 34.96,2.25 67.08,7.52 95.51,12.25 28.1,4.68 52.63,8.86 78.54,13.72 25.48,4.78 52.25,10.24 85.13,17.54 13.35,2.97 24.79,5.57 36.56,8.24 58.27,13.24 124.86,28.37 165.74,31.94 23.09,2.02 37.07,0.32 46.44,-4.64 8.82,-4.67 14.39,-13.04 20.43,-24.36 1.74,-3.26 3.92,-7.6 6.23,-12.2 13.05,-25.93 30.32,-60.26 70.24,-95.04 24.21,-21.09 56.74,-42.23 96.02,-61.17 35.7,-17.21 77.07,-32.62 122.92,-44.53 46.17,-11.99 96.85,-20.4 148.05,-25.49 54.69,-5.44 110.05,-7.1 161.19,-5.3 47.47,1.68 91.21,6.31 131.09,13.17z"/>
  </g>
  <path class="fil3" d="M5150.2 3575.06c-129.1,-12.1 -248.45,65.07 -276.8,185.53 -3.19,13.58 -5.09,27.17 -5.8,40.69 -9.57,1.28 -18.68,1.83 -25.03,2.83 -6.43,1.02 -10.03,2.5 -10.91,4.26 -0.88,1.77 0.96,3.83 4.54,5.37 3.59,1.54 8.92,2.56 12.66,3.44 3.74,0.88 5.89,1.62 6.43,2.79 0.54,1.17 -0.54,2.78 -3.05,3.58 -2.51,0.8 -6.46,0.8 -10.18,1.32 -3.72,0.52 -7.22,1.55 -8.16,2.61 -0.95,1.05 0.66,2.13 3.5,3.38 2.84,1.25 6.92,2.67 10.6,3.31 3.68,0.64 6.97,0.48 6.38,1.5 -0.59,1.02 -5.06,3.23 -9.5,4.85 -4.45,1.62 -8.87,2.67 -12.03,4.25 -3.16,1.58 -5.05,3.69 -4.25,5.74 0.8,2.05 4.28,4.03 10.93,4.89 6.65,0.87 16.46,0.62 27.67,-2.08 1.13,-0.27 2.27,-0.57 3.43,-0.89 16.85,98.22 95.98,183.58 205.97,209.47 108.38,25.51 215.7,-14.05 275.15,-92.15l0.25 0.25c3.1,3.1 6.63,6.2 10.72,8.5 4.1,2.3 8.76,3.82 12.28,4.23 3.52,0.41 5.92,-0.28 7.07,-1.05 1.15,-0.77 1.08,-1.63 -0.56,-3.27 -1.63,-1.64 -4.82,-4.06 -7.76,-7.26 -2.94,-3.2 -5.62,-7.17 -7.24,-10.44 -1.62,-3.26 -2.17,-5.81 -1.66,-5.91 0.51,-0.09 2.07,2.28 5.21,5 3.14,2.72 7.85,5.77 11.9,7.22 4.05,1.44 7.43,1.26 7.97,0.14 0.55,-1.13 -1.75,-3.2 -3.79,-5.21 -2.03,-2.01 -3.8,-3.96 -5.12,-6.36 -1.31,-2.4 -2.18,-5.25 -1.34,-5.59 0.83,-0.34 3.36,1.83 7.12,3.5 3.77,1.67 8.77,2.85 11.25,1.32 2.47,-1.53 2.41,-5.77 -1.34,-11.03 -3.76,-5.26 -11.21,-11.55 -16.39,-20.96l-0.49 -0.92c5.41,-12.44 9.79,-25.48 12.99,-39.09 27.4,-116.41 -39.31,-234.54 -152.98,-284.54 0.68,-2.42 1.33,-4.7 1.9,-6.98 2.16,-8.67 3.02,-17.29 3.56,-24.02 0.54,-6.73 0.75,-11.55 0.2,-15.63 -0.55,-4.08 -1.86,-7.41 -3.86,-9.27 -2,-1.86 -4.7,-2.26 -5.79,-0.55 -1.1,1.71 -0.61,5.55 -3.09,10.65 -2.48,5.11 -7.93,11.49 -11.77,15.46 -3.84,3.97 -6.07,5.54 -7.46,6.03 -1.39,0.48 -1.95,-0.11 -1.27,-2.51 0.68,-2.4 2.6,-6.59 4.55,-10.43 1.95,-3.84 3.93,-7.32 4.6,-10.65 0.67,-3.33 0.02,-6.5 -0.58,-8.38 -0.6,-1.88 -1.16,-2.48 -3.34,-1.13 -2.17,1.34 -5.97,4.63 -8.85,8.48 -2.88,3.85 -4.85,8.26 -6.78,11.53 -1.93,3.26 -3.82,5.37 -5.99,7.19 -2.17,1.81 -4.62,3.33 -5.24,2.02 -0.62,-1.31 0.58,-5.44 1.5,-8.82 0.91,-3.39 1.54,-6.03 1.41,-9.43 -0.13,-3.4 -1.01,-7.56 -2.05,-9.07 -1.04,-1.52 -2.23,-0.41 -3.52,3.59 -1.29,3.99 -2.67,10.87 -6.62,15.28 -3.94,4.42 -10.44,6.37 -12.03,6.23 -1.59,-0.14 1.72,-2.38 3.3,-5.61 1.58,-3.23 1.41,-7.45 0.63,-12.05 -0.77,-4.6 -2.16,-9.57 -3.25,-10.87 -1.09,-1.3 -1.88,1.07 -2.54,2.89 -0.66,1.82 -1.19,3.09 -3.95,5.92 -2.76,2.83 -7.74,7.24 -10.46,10.89 -2.72,3.66 -3.17,6.57 -3.09,10.19 0.04,1.78 0.2,3.72 0.26,5.81z"/>
  <g style="clip-path:url(#id0)">
   <g id="_2340804316368">
    <path id="_1_1" class="fil5" d="M5195.11 4077.04c18.79,-7.37 41.03,-18.69 57.15,-28.75 16.13,-10.05 26.15,-18.84 35.84,-33.36 9.69,-14.52 19.04,-34.79 25.76,-51.46 6.72,-16.68 10.8,-29.76 5.62,-40.77 -5.19,-11 -19.64,-19.92 -35.31,-26.87 -15.67,-6.95 -32.56,-11.93 -39.58,-22.61 -7.01,-10.68 -4.16,-27.07 2.87,-45.23 7.03,-18.17 18.25,-38.1 23.69,-55.88 5.44,-17.79 5.1,-33.41 9.48,-43.88 4.38,-10.47 13.47,-15.77 6.87,-25.67 -6.61,-9.89 -28.9,-24.38 -50.52,-35.53 -21.62,-11.15 -42.55,-18.96 -60.97,-24.24 -18.42,-5.28 -34.33,-8.01 -47.33,-9.2 -13,-1.19 -23.1,-0.82 -36.01,-0.35 -12.9,0.48 -28.62,1.06 -37.79,4.8 -9.17,3.74 -11.8,10.65 -18.86,35.32 -7.06,24.68 -18.56,67.13 -21.21,91.41 -2.65,24.28 3.55,30.4 6.02,38.01 2.47,7.61 1.23,16.7 -6.91,21.23 -8.14,4.53 -23.19,4.5 -35.23,3.42 -12.04,-1.08 -21.07,-3.2 -30.87,-0.99 -9.8,2.21 -20.37,8.75 -27.45,15.36 -7.07,6.62 -10.65,13.3 -13.09,27.11 -2.44,13.81 -3.73,34.74 -2.4,51.69 1.34,16.95 5.3,29.93 12.17,42.33 6.87,12.4 16.63,24.23 26.08,35.23 9.45,11.01 18.6,21.18 28.68,30.58 10.08,9.4 21.1,18.01 34.89,26.6 13.79,8.59 30.35,17.16 42.85,25.87 12.5,8.71 20.93,17.56 36.27,19.25 15.34,1.69 37.58,-3.77 56.37,-8.22 18.79,-4.44 34.15,-7.85 52.93,-15.22z"/>
    <path class="fil6" d="M4943.99 3755.85c-2.11,-13.74 -4.67,-36.41 -1.04,-55.29 3.63,-18.89 13.46,-34 22.78,-45.98 9.32,-11.98 18.14,-20.82 28.1,-26.6 9.96,-5.79 21.05,-8.52 31.57,-9.76 10.51,-1.24 20.44,-1 30.47,2.29 10.03,3.29 20.15,9.62 30.73,16.99 10.58,7.37 21.61,15.77 31.94,23.2 10.33,7.42 19.96,13.87 34.44,17.97 14.48,4.11 33.81,5.87 51.34,5.93 17.52,0.06 33.24,-1.58 47.13,-2.38 13.89,-0.79 25.96,-0.74 38.67,0.51 12.72,1.25 26.08,3.7 36.4,7.65 10.33,3.95 17.63,9.4 23.5,27.39 5.87,17.99 10.32,48.52 5.71,73.56 -4.61,25.04 -18.27,44.59 -32.46,55.07 -14.2,10.48 -28.93,11.89 -45.83,9.19 -16.9,-2.7 -35.97,-9.51 -52.98,-17.69 -17.01,-8.19 -31.95,-17.74 -44.18,-25.97 -12.23,-8.22 -21.76,-15.11 -29.34,-19.91 -7.58,-4.81 -13.21,-7.52 -21.32,-8.62 -8.1,-1.09 -18.68,-0.56 -30.23,1.6 -11.54,2.16 -24.05,5.95 -35,9.53 -10.94,3.58 -20.33,6.95 -31.99,8.62 -11.66,1.67 -25.59,1.64 -36.08,0.34 -10.49,-1.31 -17.55,-3.9 -24.79,-8.16 -7.24,-4.26 -14.67,-10.19 -19.22,-15.56 -4.54,-5.37 -6.2,-10.17 -8.31,-23.91z"/>
    <path class="fil6 str0" d="M5247.55 3718.14c-3.02,4.49 -16.52,9.97 -26.19,11.18 -9.66,1.21 -15.49,-1.83 -16.17,-5.44 -0.68,-3.62 3.8,-7.8 9.73,-10.77 5.94,-2.97 13.33,-4.72 20.76,-3.84 7.43,0.87 14.89,4.38 11.87,8.87z"/>
    <path class="fil6 str0" d="M5039.21 3663.7c5.3,-1.08 18.76,4.5 26.5,10.41 7.74,5.92 9.76,12.18 7.7,15.23 -2.05,3.05 -8.18,2.89 -14.48,0.84 -6.31,-2.06 -12.8,-5.99 -17.48,-11.83 -4.68,-5.84 -7.54,-13.57 -2.23,-14.65z"/>
    <path class="fil0 str0" d="M4966.23 3900.24c28.9,-8.83 57.8,-17.66 85.7,-20.27 27.89,-2.61 54.79,1 78.47,8.43 23.68,7.43 44.15,18.66 59.2,28.1 15.05,9.43 24.69,17.06 34.32,24.69"/>
    <path class="fil7" d="M5132.3 3897.94c14.09,11.3 24.4,29.3 29.95,44.91 5.55,15.62 6.35,28.87 9.36,42.31 3.01,13.45 8.23,27.09 14.65,35.32 6.42,8.23 14.05,11.04 20.67,11.24 6.62,0.2 12.24,-2.21 16.66,-8.83 4.41,-6.62 7.62,-17.46 9.03,-25.48 1.4,-8.03 1.01,-13.25 0.2,-21.68 -0.8,-8.43 -2.01,-20.07 -5.4,-28.03 -3.4,-7.96 -8.99,-12.25 -14.71,-16.37 -5.72,-4.11 -11.57,-8.05 -16.2,-12.53 -4.63,-4.48 -8.04,-9.49 -14.76,-14.21 -6.72,-4.72 -16.76,-9.13 -33.86,-13.61 -17.11,-4.48 -41.29,-9.01 -44.43,-8.98 -3.15,0.03 14.74,4.64 28.84,15.94z"/>
   </g>
   <g style="clip-path:url(#id1)">
    <g>
     <path id="_1_2" class="fil0 str1" d="M5152.44 3883.72c11.38,11.95 22.76,23.91 30.47,35.11 7.7,11.2 11.73,21.64 14.35,30.46 2.62,8.83 3.81,16.03 4.42,22.97 0.6,6.94 0.6,13.62 0.6,20.29"/>
     <path class="fil7" d="M5161.63 3893.4c1.3,3.33 4.97,7.61 10.7,13.13 5.72,5.52 13.5,12.28 19.4,22.61 5.89,10.33 9.91,24.22 13.69,35.08 3.78,10.86 7.33,18.68 9.89,14.25 2.56,-4.43 4.13,-21.11 5.57,-33.31 1.44,-12.21 2.75,-19.94 0.63,-26.89 -2.12,-6.95 -7.69,-13.12 -13.55,-18.33 -5.87,-5.21 -12.03,-9.46 -17.44,-12.52 -5.41,-3.06 -10.06,-4.93 -14.61,-5.08 -4.55,-0.15 -9,1.42 -11.76,3.39 -2.76,1.97 -3.82,4.35 -2.51,7.68z"/>
    </g>
   </g>
   <g style="clip-path:url(#id2)">
    <path class="fil0 str0" d="M5132.3 3897.94c14.09,11.3 24.4,29.3 29.95,44.91 5.55,15.62 6.35,28.87 9.36,42.31 3.01,13.45 8.23,27.09 14.65,35.32 6.42,8.23 14.05,11.04 20.67,11.24 6.62,0.2 12.24,-2.21 16.66,-8.83 4.41,-6.62 7.62,-17.46 9.03,-25.48 1.4,-8.03 1.01,-13.25 0.2,-21.68 -0.8,-8.43 -2.01,-20.07 -5.4,-28.03 -3.4,-7.96 -8.99,-12.25 -14.71,-16.37 -5.72,-4.11 -11.57,-8.05 -16.2,-12.53 -4.63,-4.48 -8.04,-9.49 -14.76,-14.21 -6.72,-4.72 -16.76,-9.13 -33.86,-13.61 -17.11,-4.48 -41.29,-9.01 -44.43,-8.98 -3.15,0.03 14.74,4.64 28.84,15.94z"/>
   </g>
  </g>
  <path class="fil0 str2" d="M5150.2 3575.06c-129.1,-12.1 -248.45,65.07 -276.8,185.53 -3.19,13.58 -5.09,27.17 -5.8,40.69 -9.57,1.28 -18.68,1.83 -25.03,2.83 -6.43,1.02 -10.03,2.5 -10.91,4.26 -0.88,1.77 0.96,3.83 4.54,5.37 3.59,1.54 8.92,2.56 12.66,3.44 3.74,0.88 5.89,1.62 6.43,2.79 0.54,1.17 -0.54,2.78 -3.05,3.58 -2.51,0.8 -6.46,0.8 -10.18,1.32 -3.72,0.52 -7.22,1.55 -8.16,2.61 -0.95,1.05 0.66,2.13 3.5,3.38 2.84,1.25 6.92,2.67 10.6,3.31 3.68,0.64 6.97,0.48 6.38,1.5 -0.59,1.02 -5.06,3.23 -9.5,4.85 -4.45,1.62 -8.87,2.67 -12.03,4.25 -3.16,1.58 -5.05,3.69 -4.25,5.74 0.8,2.05 4.28,4.03 10.93,4.89 6.65,0.87 16.46,0.62 27.67,-2.08 1.13,-0.27 2.27,-0.57 3.43,-0.89 16.85,98.22 95.98,183.58 205.97,209.47 108.38,25.51 215.7,-14.05 275.15,-92.15l0.25 0.25c3.1,3.1 6.63,6.2 10.72,8.5 4.1,2.3 8.76,3.82 12.28,4.23 3.52,0.41 5.92,-0.28 7.07,-1.05 1.15,-0.77 1.08,-1.63 -0.56,-3.27 -1.63,-1.64 -4.82,-4.06 -7.76,-7.26 -2.94,-3.2 -5.62,-7.17 -7.24,-10.44 -1.62,-3.26 -2.17,-5.81 -1.66,-5.91 0.51,-0.09 2.07,2.28 5.21,5 3.14,2.72 7.85,5.77 11.9,7.22 4.05,1.44 7.43,1.26 7.97,0.14 0.55,-1.13 -1.75,-3.2 -3.79,-5.21 -2.03,-2.01 -3.8,-3.96 -5.12,-6.36 -1.31,-2.4 -2.18,-5.25 -1.34,-5.59 0.83,-0.34 3.36,1.83 7.12,3.5 3.77,1.67 8.77,2.85 11.25,1.32 2.47,-1.53 2.41,-5.77 -1.34,-11.03 -3.76,-5.26 -11.21,-11.55 -16.39,-20.96l-0.49 -0.92c5.41,-12.44 9.79,-25.48 12.99,-39.09 27.4,-116.41 -39.31,-234.54 -152.98,-284.54 0.68,-2.42 1.33,-4.7 1.9,-6.98 2.16,-8.67 3.02,-17.29 3.56,-24.02 0.54,-6.73 0.75,-11.55 0.2,-15.63 -0.55,-4.08 -1.86,-7.41 -3.86,-9.27 -2,-1.86 -4.7,-2.26 -5.79,-0.55 -1.1,1.71 -0.61,5.55 -3.09,10.65 -2.48,5.11 -7.93,11.49 -11.77,15.46 -3.84,3.97 -6.07,5.54 -7.46,6.03 -1.39,0.48 -1.95,-0.11 -1.27,-2.51 0.68,-2.4 2.6,-6.59 4.55,-10.43 1.95,-3.84 3.93,-7.32 4.6,-10.65 0.67,-3.33 0.02,-6.5 -0.58,-8.38 -0.6,-1.88 -1.16,-2.48 -3.34,-1.13 -2.17,1.34 -5.97,4.63 -8.85,8.48 -2.88,3.85 -4.85,8.26 -6.78,11.53 -1.93,3.26 -3.82,5.37 -5.99,7.19 -2.17,1.81 -4.62,3.33 -5.24,2.02 -0.62,-1.31 0.58,-5.44 1.5,-8.82 0.91,-3.39 1.54,-6.03 1.41,-9.43 -0.13,-3.4 -1.01,-7.56 -2.05,-9.07 -1.04,-1.52 -2.23,-0.41 -3.52,3.59 -1.29,3.99 -2.67,10.87 -6.62,15.28 -3.94,4.42 -10.44,6.37 -12.03,6.23 -1.59,-0.14 1.72,-2.38 3.3,-5.61 1.58,-3.23 1.41,-7.45 0.63,-12.05 -0.77,-4.6 -2.16,-9.57 -3.25,-10.87 -1.09,-1.3 -1.88,1.07 -2.54,2.89 -0.66,1.82 -1.19,3.09 -3.95,5.92 -2.76,2.83 -7.74,7.24 -10.46,10.89 -2.72,3.66 -3.17,6.57 -3.09,10.19 0.04,1.78 0.2,3.72 0.26,5.81z"/>
  <path class="fil8" d="M4559.36 2522.09c43.78,0.85 99.39,-8 144.89,-30.2 45.5,-22.2 80.87,-57.74 114.3,-107.66 33.43,-49.92 64.92,-114.22 87.87,-156.82 22.95,-42.6 37.35,-63.5 53.53,-85.29 16.18,-21.79 34.13,-44.47 67.4,-72.98 33.28,-28.51 81.88,-62.85 119.95,-79.78 38.08,-16.93 65.62,-16.45 87.3,-21.21 21.67,-4.76 37.47,-14.75 46.03,-27.58 8.56,-12.84 9.89,-28.52 -1.88,-47.86 -11.77,-19.34 -36.64,-42.32 -61.57,-59.65 -24.93,-17.33 -49.91,-29 -83.22,-41.6 -33.3,-12.61 -74.93,-26.15 -119.94,-31.5 -45.01,-5.35 -93.42,-2.51 -136.02,2.36 -42.6,4.87 -79.4,11.78 -126.81,32.89 -47.41,21.11 -105.42,56.43 -153.94,98.41 -48.52,41.98 -87.54,90.62 -120.37,133.92 -32.83,43.3 -59.47,81.28 -81.14,118.28 -21.66,37.01 -38.35,73.05 -47.47,110.23 -9.12,37.18 -10.67,75.5 -5.83,104.81 4.84,29.31 16.07,49.6 35.35,71.31 19.28,21.7 46.61,44.82 76.24,61.66 29.63,16.84 61.57,27.4 105.34,28.26z"/>
  <g style="clip-path:url(#id3)">
   <g id="_2340810784496">
    <path id="_1_3" class="fil9" d="M4840.52 2325.75c60.91,-2.58 161.52,-21.9 238.58,-38.61 77.06,-16.71 130.58,-30.79 178.91,-47.54 48.34,-16.76 91.5,-36.16 132.07,-55.97 40.56,-19.81 78.52,-40.03 121.02,-66.32 42.5,-26.3 89.52,-58.68 111.87,-87.15 22.34,-28.47 20.02,-53.04 -0.83,-75.67 -20.85,-22.63 -60.22,-43.34 -143.47,-46.87 -83.24,-3.54 -210.37,10.1 -331.51,44.35 -121.13,34.25 -236.26,89.11 -311.15,136.61 -74.89,47.5 -109.55,87.64 -119.32,121.64 -9.77,34.01 5.35,61.87 23.52,82.9 18.18,21.02 39.39,35.2 100.31,32.63z"/>
   </g>
  </g>
  <path class="fil0 str3" d="M4559.36 2522.09c43.78,0.85 99.39,-8 144.89,-30.2 45.5,-22.2 80.87,-57.74 114.3,-107.66 33.43,-49.92 64.92,-114.22 87.87,-156.82 22.95,-42.6 37.35,-63.5 53.53,-85.29 16.18,-21.79 34.13,-44.47 67.4,-72.98 33.28,-28.51 81.88,-62.85 119.95,-79.78 38.08,-16.93 65.62,-16.45 87.3,-21.21 21.67,-4.76 37.47,-14.75 46.03,-27.58 8.56,-12.84 9.89,-28.52 -1.88,-47.86 -11.77,-19.34 -36.64,-42.32 -61.57,-59.65 -24.93,-17.33 -49.91,-29 -83.22,-41.6 -33.3,-12.61 -74.93,-26.15 -119.94,-31.5 -45.01,-5.35 -93.42,-2.51 -136.02,2.36 -42.6,4.87 -79.4,11.78 -126.81,32.89 -47.41,21.11 -105.42,56.43 -153.94,98.41 -48.52,41.98 -87.54,90.62 -120.37,133.92 -32.83,43.3 -59.47,81.28 -81.14,118.28 -21.66,37.01 -38.35,73.05 -47.47,110.23 -9.12,37.18 -10.67,75.5 -5.83,104.81 4.84,29.31 16.07,49.6 35.35,71.31 19.28,21.7 46.61,44.82 76.24,61.66 29.63,16.84 61.57,27.4 105.34,28.26z"/>
  <path class="fil10" d="M6001.77 3874.6c21.83,87.32 19.85,93.27 55.57,108.16 35.72,14.88 109.16,38.7 200.45,52.59 91.29,13.89 161.18,26.13 242.55,10.25 81.37,-15.88 160.58,-28.12 186.38,-47.96 25.8,-19.85 -18.65,-147.23 -20.31,-248.31 -1.66,-101.07 5.1,-318.45 0.21,-451.27 -4.89,-132.82 -13.89,-128.01 0,-136.94 13.89,-8.93 43.66,-26.79 58.55,-159.76 14.88,-132.97 14.88,-381.05 14.88,-611.27 0,-230.22 0,-442.57 -1.94,-558.13 -1.94,-115.56 -5.83,-134.31 -33.43,-157.51 -27.6,-23.19 -78.91,-50.82 -106.53,-64.64 -27.63,-13.81 -31.58,-13.81 -35.03,-13.81 -3.45,0 -6.41,0 4.44,-6.41 10.85,-6.41 35.52,-19.24 64.63,-41.44 29.11,-22.2 62.66,-53.78 80.42,-83.87 17.76,-30.1 19.73,-58.71 -6.91,-150.47 -26.64,-91.77 -81.9,-246.68 -163.8,-379.39 -81.9,-132.72 -190.43,-243.23 -298.48,-308.35 -108.05,-65.12 -300.15,-93.17 -353.93,-103.04 -53.78,-9.87 -88.74,-3.9 -93.93,-19.77 -5.19,-15.87 -11.06,-20.59 -24.63,-62.57 -13.57,-41.98 -10.53,-58.29 -17.44,-81.48 -6.91,-23.19 -11.12,-52.05 -32.33,-54.02 -21.21,-1.97 -50.02,-3.95 -72.22,30.09 -22.2,34.04 -4.89,101.12 -6.15,135.11 -0.77,20.81 10.83,37.72 -3.08,53.51 -10.23,11.61 -53.31,21.59 -60.52,24.38 -113.94,44.06 -242.8,98.16 -315.17,137.36 -23.68,12.82 -25.66,12.83 -56.24,-15.29 -30.59,-28.12 -89.79,-84.36 -126.82,-108.48 -37.02,-24.11 -51.86,-16.1 -65.68,-4.76 -13.81,11.35 -26.6,26.03 -17.7,52.61 8.9,26.58 39.49,65.07 64.16,92.69 24.67,27.63 43.42,44.4 54.27,53.78 10.85,9.37 13.81,11.35 -7.89,27.63 -21.71,16.28 -21.07,15.53 -83.72,85.09 -62.66,69.56 -147.86,145.56 -183.62,269.91 -35.76,124.35 -37.47,248 -49.8,340.75 -12.33,92.75 0.49,137.15 8.88,160.34 8.38,23.19 12.33,25.16 44.89,29.11 32.56,3.95 93.74,9.87 125.8,12.83 32.07,2.96 35.03,2.96 16.74,14.4 -18.29,11.44 -86.13,15.89 -95.2,60.78 -60.9,301.43 -38.03,454.89 -45.87,739.6 -1.95,71.05 -10.13,179.13 -1.83,261.47 4.95,49.13 17.46,67.78 37.99,92.67 20.53,24.89 49.08,56.04 67.24,73.55 18.17,17.52 25.95,21.41 30.49,25.3 4.54,3.89 -208.05,342.25 -316.55,381.46 -75.35,27.23 -191.72,74.04 -245.45,140.68 -23.63,29.31 -26.98,96.37 -23.19,109.97 12.42,44.53 23.29,79.74 42.5,99.91 19.21,20.17 54.17,26.6 97.97,40.87 43.79,14.27 95.05,24.66 167.71,25.95 72.66,1.29 245.85,-123.59 313.97,-137.54 46.5,-9.52 184.62,-7.96 226.91,-31.58 65.01,-36.31 42.83,-192.77 92.95,-244.33 73.17,-75.27 242.72,-220.57 340.2,-260.16 65.91,-26.77 85.27,-21.21 135.72,8.28 61.91,36.17 104.84,170.06 117.94,219.15 26.34,98.71 32.46,418.25 70.96,572.28z"/>
  <g style="clip-path:url(#id4)">
   <g id="_2340810784304">
    <path id="_1_4" class="fil0 str4" d="M4987.83 2962.97c66.15,31.97 183.39,95.48 336.42,114.13 153.03,18.65 341.82,-7.56 516.63,5.22 174.8,12.77 335.61,64.53 540.06,76.7 204.45,12.17 452.55,-15.25 577.53,-62.02 124.97,-46.78 126.83,-112.93 76.32,-139.68 -50.51,-26.75 -153.38,-14.11 -195.46,1.58 -42.07,15.68 -23.34,34.41 8,41.33 31.35,6.92 75.32,2.04 121.32,-37.05 46,-39.09 94.04,-112.37 93.81,-313.67 -0.23,-201.31 -48.74,-530.65 -103.29,-706.78 -54.55,-176.13 -115.15,-199.06 -170.27,-242.15 -55.12,-43.09 -104.77,-106.33 -187.71,-137.97 -82.94,-31.64 -199.18,-31.69 -402.45,-34.89 -203.27,-3.21 -493.57,-9.58 -712.52,13.56 -218.95,23.13 -366.55,75.78 -492.94,127.46 -126.39,51.69 -231.56,102.42 -339.01,162.12 -107.46,59.71 -217.21,128.39 -237.15,270.96 -19.95,142.58 49.89,359.06 125.18,500.57 75.28,141.52 156,208.07 215.12,250.2 59.12,42.13 96.64,59.83 122.93,68.89 26.28,9.07 41.33,9.5 107.48,41.47z"/>
    <path class="fil9" d="M6722.93 1367.53c-154.57,-26.28 -420.48,-47.25 -625.49,-60.48 -205.02,-13.23 -349.14,-18.71 -482.15,-17.68 -133.02,1.03 -254.93,8.58 -370.6,18.02 -115.68,9.43 -225.12,20.74 -350.2,38.87 -125.09,18.13 -265.82,43.07 -341.92,74.4 -76.1,31.32 -87.56,69.03 -51.22,113.02 36.34,43.99 120.48,94.26 326.76,140.66 206.28,46.41 534.69,88.95 862.58,97.86 327.88,8.91 655.25,-15.82 876.52,-49.49 221.27,-33.67 336.44,-76.27 384.89,-122.05 48.44,-45.78 30.16,-94.72 -0.6,-134.99 -30.76,-40.27 -73.99,-71.86 -228.56,-98.14z"/>
    <path class="fil10 str4" d="M4751.69 1671.81c57.45,10.83 140.86,21.13 232.14,28.65 91.28,7.52 190.42,12.27 291.49,18.16 101.07,5.89 204.07,12.91 367.65,2.79 163.58,-10.11 387.73,-37.36 537.79,-55.03 150.06,-17.67 226.02,-25.77 282.13,-34.15 56.11,-8.37 92.38,-17.02 141.71,-41.46 49.33,-24.44 111.72,-64.66 192.46,-136.78 80.73,-72.13 179.81,-176.15 212.01,-311.14 32.2,-134.99 -2.48,-300.94 -70.59,-436.55 -68.11,-135.61 -169.66,-240.88 -298.46,-262.55 -128.8,-21.67 -284.84,40.25 -387.87,66.47 -103.03,26.22 -153.05,16.75 -198.62,10.45 -45.57,-6.3 -86.7,-9.41 -143.87,-13.27 -57.17,-3.85 -130.38,-8.45 -200.38,0 -70,8.44 -136.78,29.92 -185.88,34.18 -49.1,4.26 -80.5,-8.71 -105.67,-0.36 -25.17,8.35 -44.09,38.02 -71.11,62.74 -27.02,24.72 -62.13,44.48 -113.36,79.35 -51.24,34.87 -118.61,84.84 -200.57,129.47 -81.97,44.63 -178.53,83.93 -265.2,137.02 -86.68,53.09 -163.46,119.96 -224.76,198.6 -61.3,78.64 -107.13,169.05 -111.46,250.16 -4.34,81.12 32.82,152.94 73.07,191.34 40.25,38.39 83.6,43.34 121.01,51.51 37.41,8.16 68.89,19.53 126.34,30.36z"/>
    <path class="fil9" d="M5958.09 3140.14c-20.28,-33.32 -53.88,-50.12 -110.06,-57.36 -56.18,-7.25 -134.93,-4.94 -194.59,-3.23 -59.67,1.72 -100.25,2.84 -130.55,8.91 -30.3,6.06 -50.32,17.08 -75.82,39.7 -25.5,22.62 -56.49,56.84 -78.46,88.17 -21.97,31.32 -34.93,59.75 -29.26,99.1 5.67,39.35 29.97,89.62 89.53,136.02 59.56,46.41 154.39,88.95 246.64,160.26 92.25,71.31 181.91,171.4 238.91,148.44 57,-22.96 81.33,-168.96 88.86,-270.64 7.53,-101.68 -1.74,-159.04 -9.85,-212.64 -8.11,-53.59 -15.07,-103.42 -35.34,-136.73z"/>
   </g>
  </g>
  <g>
   <path class="fil11" d="M6666.62 3298.07c-4.89,-132.82 -13.89,-128.01 0,-136.94 13.89,-8.93 43.66,-26.79 58.55,-159.76 14.88,-132.97 14.88,-381.05 14.88,-611.27 0,-230.22 0,-442.57 -1.94,-558.13 -1.94,-115.56 -5.83,-134.31 -33.43,-157.51 -27.6,-23.19 -78.91,-50.82 -106.53,-64.64 -27.63,-13.81 -31.58,-13.81 -35.03,-13.81 -3.45,0 -6.41,0 4.44,-6.41 10.85,-6.41 35.52,-19.24 64.63,-41.44 29.11,-22.2 62.66,-53.78 80.42,-83.87 17.76,-30.1 19.73,-58.71 -6.91,-150.47 -26.64,-91.77 -81.9,-246.68 -163.8,-379.39 -81.9,-132.72 -190.43,-243.23 -298.48,-308.35 -108.05,-65.12 -300.15,-93.17 -353.93,-103.04 -53.78,-9.87 -88.74,-3.9 -93.93,-19.77 -5.19,-15.87 -11.06,-20.59 -24.63,-62.57 -13.57,-41.98 -10.53,-58.29 -17.44,-81.48 -6.91,-23.19 -11.12,-52.05 -32.33,-54.02 -21.21,-1.97 -50.02,-3.95 -72.22,30.09 -22.2,34.04 -4.89,101.12 -6.15,135.11 -0.77,20.81 10.83,37.72 -3.08,53.51 -10.23,11.61 -53.31,21.59 -60.52,24.38 -113.94,44.06 -242.8,98.16 -315.17,137.36 -23.68,12.82 -25.66,12.83 -56.24,-15.29 -30.59,-28.12 -89.79,-84.36 -126.82,-108.48 -37.02,-24.11 -51.86,-16.1 -65.68,-4.76 -13.81,11.35 -26.6,26.03 -17.7,52.61 8.9,26.58 39.49,65.07 64.16,92.69 24.67,27.63 43.42,44.4 54.27,53.78 10.85,9.37 13.81,11.35 -7.89,27.63 -21.71,16.28 -21.07,15.53 -83.72,85.09 -62.66,69.56 -147.86,145.56 -183.62,269.91 -35.76,124.35 -37.47,248 -49.8,340.75 -12.33,92.75 0.49,137.15 8.88,160.34 8.38,23.19 12.33,25.16 44.89,29.11 32.56,3.95 93.74,9.87 125.8,12.83 32.07,2.96 35.03,2.96 16.74,14.4 -18.29,11.44 -86.13,15.89 -95.2,60.78 -60.9,301.43 -38.03,454.89 -45.87,739.6 -1.95,71.05 -10.13,179.13 -1.83,261.47 4.95,49.13 17.46,67.78 37.99,92.67 20.53,24.89 49.08,56.04 67.24,73.55 18.17,17.52 25.95,21.41 30.49,25.3 4.54,3.89 -208.05,342.25 -316.55,381.46 -75.35,27.23 -191.72,74.04 -245.45,140.68 -23.63,29.31 -26.98,96.37 -23.19,109.97 12.42,44.53 23.29,79.74 42.5,99.91 19.21,20.17 54.17,26.6 97.97,40.87 43.79,14.27 95.05,24.66 167.71,25.95 72.66,1.29 245.85,-123.59 313.97,-137.54 46.5,-9.52 184.62,-7.96 226.91,-31.58 65.01,-36.31 42.83,-192.77 92.95,-244.33 73.17,-75.27 242.72,-220.57 340.2,-260.16 65.91,-26.77 85.27,-21.21 135.72,8.28 61.91,36.17 104.84,170.06 117.94,219.15 26.34,98.71 32.46,418.25 70.96,572.28 21.83,87.32 19.85,93.27 55.57,108.16 35.72,14.88 109.16,38.7 200.45,52.59 91.29,13.89 161.18,26.13 242.55,10.25 81.37,-15.88 160.58,-28.12 186.38,-47.96 25.8,-19.85 -18.65,-147.23 -20.31,-248.31 -1.66,-101.07 5.1,-318.45 0.21,-451.27zm-686.71 606.51c-0.96,-3.91 -1.78,-7.26 -5.74,-23.08 -21.5,-86.04 -32.96,-219.72 -43.29,-340.18 -8.49,-99.12 -16.21,-189.12 -27.56,-231.65 -7.7,-28.86 -26.07,-88.08 -52.53,-137.25 -15.47,-28.75 -33.31,-53.56 -52.28,-64.65 -21.89,-12.79 -36.55,-20.35 -50.15,-21.56 -14.23,-1.27 -31.86,3.42 -60.53,15.06 -39.6,16.08 -92.91,51.53 -146.52,92.52 -71.8,54.91 -143.23,119.13 -184,161.07 -16.66,17.14 -23.74,58.13 -30.89,99.56 -10.58,61.29 -21.31,123.35 -68.62,149.78 -32.88,18.36 -103.47,23.36 -163.04,27.58 -30.4,2.15 -57.72,4.09 -71.99,7.01 -25.11,5.14 -71.9,30.59 -121.67,57.65 -71.89,39.1 -149.52,81.31 -198.42,80.44 -38,-0.67 -70.33,-3.72 -98.8,-8.44 -29.09,-4.83 -54.21,-11.34 -77.26,-18.85 -8.75,-2.85 -18.03,-5.64 -26.81,-8.27 -34.91,-10.47 -62.71,-18.81 -82.95,-40.06 -12.48,-13.1 -21.79,-29.93 -29.7,-49.95 -6.92,-17.51 -13.05,-38.5 -19.59,-61.98 -3.05,-10.95 -3.31,-44.63 3.25,-75.7 4.61,-21.85 12.55,-43.98 25.17,-59.64 29.71,-36.85 75.45,-67.56 123.74,-92.58 46.54,-24.11 95.63,-43.08 134.17,-57.01 29.6,-10.7 71.28,-51.04 114.1,-101.01 47.22,-55.1 94.57,-120.95 129.9,-173.6 24.95,-37.18 46.41,-57.73 53.3,-66.22 -5.15,-4.02 -11.97,-9.78 -21.26,-18.74 -9.17,-8.84 -21.42,-21.64 -34.27,-35.69 -12.42,-13.59 -24.94,-27.88 -35.2,-40.31 -11.72,-14.21 -21.21,-26.78 -28.84,-43.59 -7.52,-16.56 -12.67,-36.28 -15.49,-64.33 -6.57,-65.18 -3.18,-144.7 -0.36,-210.76 0.85,-19.98 1.66,-38.73 2.08,-54.26 2.11,-76.56 1.99,-143.29 1.89,-205.97 -0.29,-172.78 -0.54,-315.31 44.54,-538.41 4.52,-22.37 16.64,-37.5 31.7,-48.31 -0.63,-0.06 -1.26,-0.13 -1.88,-0.19 -21.63,-2.21 -41.12,-4.28 -52.67,-5.68 -20.42,-2.48 -32.29,-4.6 -43.42,-11.68 -13.1,-8.34 -18.46,-18.34 -24.85,-36.01 -4.74,-13.09 -10.73,-32.16 -13.77,-60.87 -2.9,-27.4 -3.07,-63.88 3.44,-112.82 3.47,-26.09 6.07,-54.46 8.84,-84.6 7.23,-78.71 15.53,-169.1 41.74,-260.27 32.29,-112.29 101.17,-185.88 161.12,-249.93 8.12,-8.68 16.01,-17.1 28.73,-31.23 57.74,-64.11 63.11,-70.03 81.19,-83.76 -3.11,-2.85 -6.47,-6.01 -10.08,-9.49 -9.36,-9.04 -20.65,-20.6 -33.76,-35.29 -14.6,-16.36 -31.19,-36.33 -44.56,-55.67 -11.25,-16.25 -20.56,-32.53 -25.38,-46.93 -7.08,-21.14 -5.21,-38.27 1.33,-52.72 6.06,-13.39 15.56,-22.85 25.27,-30.83 10.91,-8.96 22.58,-16.63 41.05,-17.38 15.57,-0.63 34.03,4.55 58.13,20.24 34.27,22.32 84.99,69.28 118.09,99.93 3.76,3.48 -7.54,-6.98 12.51,11.44 11.8,10.85 17.65,16.16 18.69,16.43 3.14,0.82 -0.53,-2.36 4.83,-5.26 33.97,-18.4 80.19,-40.03 131.5,-62.4 59.02,-25.72 125.08,-52.51 186.9,-76.41 2.66,-1.03 6.59,-2.16 11.7,-3.64 12.5,-3.61 35.14,-10.16 37.7,-13.06 0.12,-0.14 -0.68,-4.71 -1.58,-9.8 -1.33,-7.54 -2.74,-15.5 -2.35,-25.9 0.3,-8.26 -0.87,-20.41 -2.16,-33.66 -3.7,-38.08 -8.13,-83.7 12.87,-115.92 15.55,-23.85 34.1,-35.28 52.73,-40.46 17.39,-4.83 32.83,-3.64 45.87,-2.43 37.82,3.51 46.19,34.38 54.3,64.36 0.91,3.39 1.83,6.77 2.74,9.81 3.38,11.36 4.7,20.79 6.19,31.41 1.75,12.52 3.79,27.11 11.03,49.52 7.94,24.58 12.94,35.27 16.75,43.42 3.05,6.52 5.52,11.83 7.88,19.04 2.59,7.93 5.34,-7.25 18.04,-6.16l0.11 0c14.36,1.24 31.86,2.75 53.85,6.78l19.7 3.41c72.89,12.6 241.99,41.83 343.8,103.19 56.48,34.04 113.02,79.98 166.02,134.73 51.75,53.46 100.19,115.46 141.92,183.08 36.03,58.39 66.81,120.38 92.29,179.4 33.97,78.68 59.03,153.27 74.63,207.01 14.02,48.3 20.53,80.58 21.22,105.49 0.79,28.89 -5.6,47.88 -17.09,67.36 -9.27,15.71 -22.11,31.56 -36.37,46.44 -16.26,16.95 -34.49,32.75 -51.28,45.56 -9.74,7.43 -18.99,13.85 -27.44,19.38 15.62,8.08 35.3,18.77 54.16,30.22 17.32,10.51 34.07,21.74 46.77,32.41 18.85,15.85 29.6,30.12 35.91,59.92 5.08,24 6.64,59.02 7.65,118.85 2.05,122.16 2.05,331.56 2.05,558.57 0,112.18 -0,228.71 -1.97,342.55 -1.88,108.6 -5.64,204.84 -13.13,271.84 -16.25,145.12 -53.28,168.9 -71.03,180.3l-0.11 0 -0.34 0.22 0.03 0.05c-5.97,3.83 5.98,-3.68 7.01,8.93l0 0.11c1.52,18.52 4.02,48.8 6.01,102.97 2.95,80.12 1.67,191 0.55,288.74 -0.74,64.38 -1.42,123.04 -0.76,163.08 0.66,40.31 9.02,87.4 16.4,128.97 11.72,66.07 21.35,120.37 -7.11,142.27 -27.27,20.98 -90.44,32.91 -161.18,46.29 -8.71,1.65 -17.66,3.34 -37.11,7.13 -82.07,16.01 -151.05,5.46 -238.31,-7.9l-13.93 -2.13c-39.94,-6.08 -77.06,-14.17 -109.42,-22.66 -42.78,-11.23 -76.61,-23.03 -97.71,-31.83 -45.52,-18.97 -47.33,-26.34 -66.53,-104.45z"/>
  </g>
  <path class="fil12" d="M5082.17 1338.49c68.35,0 123.76,54.58 123.76,121.91 0,67.33 -55.41,121.91 -123.76,121.91 -68.35,0 -123.76,-54.58 -123.76,-121.91 0,-67.33 55.41,-121.91 123.76,-121.91z"/>
  <path class="fil12" d="M5650.88 1359.04c68.35,0 123.76,54.58 123.76,121.91 0,67.33 -55.41,121.91 -123.76,121.91 -68.35,0 -123.76,-54.58 -123.76,-121.91 0,-67.33 55.41,-121.91 123.76,-121.91z"/>
  <path class="fil13 str2" d="M6711.17 2728.45c1.36,9.6 2.24,21.99 7.13,19.81 4.89,-2.17 13.8,-18.91 37.56,-50.87 23.76,-31.97 62.37,-79.17 92.5,-118.64 30.13,-39.46 51.8,-71.2 64.36,-104.99 12.57,-33.79 16.06,-69.66 17.62,-92.17 1.56,-22.52 1.19,-31.69 -8.12,-19.84 -9.31,11.85 -27.56,44.73 -52.94,85.3 -25.38,40.57 -57.89,88.85 -86.29,133.16 -28.38,44.3 -52.64,84.64 -63.85,108.23 -11.2,23.58 -9.34,30.41 -7.98,40.01z"/>
  <path class="fil14 str2" d="M6677.29 2853.38c-12.11,12.99 -18.36,5.94 -27.32,-1.46 -8.96,-7.4 -20.62,-15.14 -15.84,-33.58 4.79,-18.44 26.03,-47.56 41.17,-70.57 15.14,-23.01 24.19,-39.9 35.45,-47.52 11.27,-7.61 24.75,-5.95 33.73,-2.74 8.98,3.2 13.46,7.94 9.52,21 -3.94,13.06 -16.3,34.43 -31.46,61.64 -15.16,27.21 -33.13,60.25 -45.24,73.24z"/>
  <path class="fil8" d="M6544.45 1854.69c37.34,32.22 77.3,81.49 98.74,134.33 21.44,52.84 24.35,109.25 14.81,176.25 -9.54,67 -31.52,144.6 -44.34,197.57 -12.82,52.98 -16.46,81.33 -19.29,111.77 -2.83,30.44 -4.85,62.95 1.59,111.89 6.44,48.94 21.35,114.29 40.53,157.13 19.18,42.84 42.64,63.17 57.22,83.46 14.59,20.29 20.31,40.56 17.83,57.76 -2.48,17.21 -13.17,31.35 -37.59,38.7 -24.42,7.35 -62.56,7.91 -96.5,3.68 -33.93,-4.23 -63.66,-13.25 -101.06,-27.74 -37.4,-14.49 -82.48,-34.46 -124.24,-63.84 -41.76,-29.38 -80.2,-68.18 -112.25,-104.32 -32.05,-36.14 -57.7,-69.62 -81.56,-122.98 -23.86,-53.37 -45.91,-126.62 -55,-198.32 -9.09,-71.7 -5.21,-141.83 -0.15,-202.84 5.06,-61.01 11.3,-112.88 20.98,-160.2 9.68,-47.32 22.81,-90.09 43.14,-128.12 20.33,-38.03 47.87,-71.32 73.98,-92.25 26.11,-20.92 50.8,-29.49 83.29,-33.18 32.49,-3.69 72.8,-2.51 110.31,5.67 37.51,8.18 72.23,23.35 109.57,55.58z"/>
  <g style="clip-path:url(#id5)">
   <g id="_2340810789296">
    <path id="_1_5" class="fil9" d="M6630.85 2468.56c61.46,30.64 156.05,96.75 227.62,149.34 71.57,52.59 120.13,91.67 162.15,131.11 42.02,39.44 77.48,79.23 110.1,118.25 32.61,39.01 62.36,77.25 93.99,123.82 31.62,46.57 65.1,101.48 75,141.03 9.9,39.55 -3.78,63.75 -35.63,77.44 -31.84,13.7 -81.84,16.9 -169.08,-17.72 -87.23,-34.62 -211.71,-107.07 -320.55,-197.95 -108.83,-90.89 -202.03,-200.22 -257.22,-283.49 -55.19,-83.26 -72.39,-140.47 -66.81,-179.94 5.59,-39.46 33.94,-61.17 62.29,-74.44 28.35,-13.28 56.69,-18.1 118.15,12.53z"/>
   </g>
  </g>
  <path class="fil0 str3" d="M6544.45 1854.69c37.34,32.22 77.3,81.49 98.74,134.33 21.44,52.84 24.35,109.25 14.81,176.25 -9.54,67 -31.52,144.6 -44.34,197.57 -12.82,52.98 -16.46,81.33 -19.29,111.77 -2.83,30.44 -4.85,62.95 1.59,111.89 6.44,48.94 21.35,114.29 40.53,157.13 19.18,42.84 42.64,63.17 57.22,83.46 14.59,20.29 20.31,40.56 17.83,57.76 -2.48,17.21 -13.17,31.35 -37.59,38.7 -24.42,7.35 -62.56,7.91 -96.5,3.68 -33.93,-4.23 -63.66,-13.25 -101.06,-27.74 -37.4,-14.49 -82.48,-34.46 -124.24,-63.84 -41.76,-29.38 -80.2,-68.18 -112.25,-104.32 -32.05,-36.14 -57.7,-69.62 -81.56,-122.98 -23.86,-53.37 -45.91,-126.62 -55,-198.32 -9.09,-71.7 -5.21,-141.83 -0.15,-202.84 5.06,-61.01 11.3,-112.88 20.98,-160.2 9.68,-47.32 22.81,-90.09 43.14,-128.12 20.33,-38.03 47.87,-71.32 73.98,-92.25 26.11,-20.92 50.8,-29.49 83.29,-33.18 32.49,-3.69 72.8,-2.51 110.31,5.67 37.51,8.18 72.23,23.35 109.57,55.58z"/>
  <path class="fil15" d="M4993.9 3742.59l50.72 -37.17 -17.86 -54.04 14.58 4.51 9.44 28.92c1.97,6 3.27,10.55 3.92,13.67 3.11,-2.75 6.64,-5.49 10.59,-8.28l26.23 -18.78 13.32 4.1 -46 33.56 19.88 59.75 -15.14 -4.69 -13.08 -40.22c-0.72,-2.3 -1.41,-4.76 -2.11,-7.42 -3.12,2.72 -5.3,4.57 -6.57,5.56l-33.2 25.08 -14.72 -4.55z"/>
  <path id="_1_6" class="fil16 str5" d="M4993.9 3742.59l50.72 -37.17 -17.86 -54.04 14.58 4.51 9.44 28.92c1.97,6 3.27,10.55 3.92,13.67 3.11,-2.75 6.64,-5.49 10.59,-8.28l26.23 -18.78 13.32 4.1 -46 33.56 19.88 59.75 -15.14 -4.69 -13.08 -40.22c-0.72,-2.3 -1.41,-4.76 -2.11,-7.42 -3.12,2.72 -5.3,4.57 -6.57,5.56l-33.2 25.08 -14.72 -4.55z"/>
  <path class="fil15" d="M5191.01 3792.35l50.72 -37.17 -17.86 -54.04 14.58 4.51 9.44 28.92c1.97,6 3.27,10.55 3.92,13.67 3.11,-2.75 6.64,-5.49 10.59,-8.28l26.23 -18.78 13.32 4.1 -46 33.56 19.88 59.75 -15.14 -4.69 -13.08 -40.22c-0.72,-2.3 -1.41,-4.76 -2.11,-7.42 -3.12,2.72 -5.3,4.57 -6.57,5.56l-33.2 25.08 -14.72 -4.55z"/>
  <path id="_1_7" class="fil16 str5" d="M5191.01 3792.35l50.72 -37.17 -17.86 -54.04 14.58 4.51 9.44 28.92c1.97,6 3.27,10.55 3.92,13.67 3.11,-2.75 6.64,-5.49 10.59,-8.28l26.23 -18.78 13.32 4.1 -46 33.56 19.88 59.75 -15.14 -4.69 -13.08 -40.22c-0.72,-2.3 -1.41,-4.76 -2.11,-7.42 -3.12,2.72 -5.3,4.57 -6.57,5.56l-33.2 25.08 -14.72 -4.55z"/>
  <path class="fil3 str6" d="M4203 3859.9c-22.63,-6.19 -44.07,-3.33 -61.22,-0.95 -17.15,2.38 -30.02,4.29 -46.22,12.62 -16.2,8.34 -35.73,23.11 -52.56,40.96 -16.82,17.85 -30.93,38.79 -41.98,65.52 -11.05,26.73 -19.04,59.26 -10.66,83.02 8.38,23.76 33.12,38.76 67.99,50.01 34.87,11.25 79.86,18.75 128.98,22.5 49.12,3.75 102.36,3.75 147.72,1.87 45.37,-1.87 82.86,-5.62 110.56,-15.84 27.7,-10.21 45.61,-26.89 46.73,-40.02 1.13,-13.12 -14.53,-22.69 -34.36,-28.6 -19.83,-5.91 -43.82,-8.16 -65.81,-7.2 -21.99,0.96 -41.97,5.12 -77.56,1.62 -35.59,-3.5 -86.8,-14.67 -98.91,-25.99 -12.11,-11.31 14.87,-22.77 30.98,-43.27 16.11,-20.5 21.35,-50.03 12.06,-72.43 -9.29,-22.39 -33.11,-37.64 -55.75,-43.83z"/>
  <path class="fil3 str6" d="M4983.76 4075.96c98.23,6 240.71,3 325.45,-6.75 84.74,-9.75 111.73,-26.25 132.36,-30.37 20.62,-4.13 34.87,4.13 40.87,18 6,13.87 3.75,33.37 -18.37,47.62 -22.12,14.25 -64.11,23.25 -102.73,30.37 -38.62,7.13 -73.87,12.38 -121.86,15.75 -47.99,3.38 -108.74,4.87 -170.97,4.13 -62.24,-0.75 -125.98,-3.75 -177.72,-12.37 -51.74,-8.62 -91.49,-22.87 -113.23,-33 -21.75,-10.12 -25.5,-16.12 -27.37,-26.25 -1.87,-10.12 -1.87,-24.37 3,-32.25 4.87,-7.87 14.62,-9.37 46.49,-2.62 31.87,6.75 85.86,21.75 184.1,27.74z"/>
 </g>
</svg>
