<?xml version="1.0" encoding="UTF-8"?>
<!DOCTYPE svg PUBLIC "-//W3C//DTD SVG 1.0//EN" "http://www.w3.org/TR/2001/REC-SVG-20010904/DTD/svg10.dtd">
<!-- Creator: CorelDRAW -->
<svg xmlns="http://www.w3.org/2000/svg" xml:space="preserve" width="254mm" height="152.4mm" version="1.0" style="shape-rendering:geometricPrecision; text-rendering:geometricPrecision; image-rendering:optimizeQuality; fill-rule:evenodd; clip-rule:evenodd"
viewBox="0 0 7136.84 4282.1"
 xmlns:xlink="http://www.w3.org/1999/xlink"
 xmlns:xodm="http://www.corel.com/coreldraw/odm/2003">
 <defs>
  <style type="text/css">
   <![CDATA[
    .str0 {stroke:#BAD44C;stroke-width:28.1;stroke-miterlimit:22.9256}
    .str2 {stroke:#BDBFC1;stroke-width:14.05;stroke-miterlimit:22.9256}
    .str3 {stroke:black;stroke-width:5.62;stroke-miterlimit:22.9256}
    .str1 {stroke:#CCCCCC;stroke-width:5.62;stroke-miterlimit:22.9256}
    .fil0 {fill:none}
    .fil11 {fill:black}
    .fil14 {fill:#61240E}
    .fil2 {fill:#65AD4F}
    .fil9 {fill:#68B750}
    .fil1 {fill:#6DBE4F}
    .fil12 {fill:#6E1212}
    .fil8 {fill:#8F6743}
    .fil15 {fill:#8F6743}
    .fil7 {fill:#9C6F48}
    .fil13 {fill:#B3B3B3}
    .fil3 {fill:#BDBFC1}
    .fil4 {fill:#FEFEFE}
    .fil10 {fill:#FFEABD}
    .fil6 {fill:white}
    .fil5 {fill:#373435;fill-rule:nonzero}
   ]]>
  </style>
   <clipPath id="id0">
    <path d="M5901.69 3306.18c22.5,84.92 23.88,375.99 34.61,463.49 10.73,87.5 2.38,143.57 37.61,158.25 35.23,14.68 107.65,38.17 197.69,51.87 90.03,13.7 197.69,17.62 277.93,1.96 80.25,-15.66 164.62,-27.97 190.06,-47.54 25.44,-19.57 -26.49,-254.4 -38.24,-382.6 -11.74,-128.2 -14.81,-172.7 -26.56,-298.95 -11.74,-126.25 -13.7,-126.25 0,-135.05 13.7,-8.81 43.06,-26.42 57.74,-157.56 14.68,-131.14 14.68,-375.8 14.68,-602.85 0,-227.05 -0.01,-436.48 -1.92,-550.44 -0.53,-31.95 10.7,-84.43 -11.4,-135.93 -16.31,-38.01 -69.75,-49.33 -69.75,-49.33 2.77,-5.22 44.21,-31.08 62.65,-49.71 34.28,-34.62 41.44,-83.85 47.82,-126.5 6.38,-42.65 6.65,-106.96 -19.63,-197.46 -26.27,-90.5 -66.43,-235.81 -147.2,-366.7 -80.77,-130.89 -125.3,-145.02 -231.85,-209.23 -7.35,-4.43 -159.67,-72.22 -166.22,-94.9 -6.46,-22.4 35.65,-98.2 45.87,-128.36 10.22,-30.17 19.95,-64.23 13.14,-87.1 -6.81,-22.87 -30.17,-34.55 -51.09,-36.49 -20.92,-1.94 -39.41,5.84 -61.31,39.41 -21.89,33.57 -47.2,92.93 -60.82,123.59 -13.62,30.65 -15.57,32.6 -33.57,33.09 -18,0.49 -337.29,-17.51 -382.06,-13.14 -31.98,3.13 -108.57,23.85 -161.35,30.01 -21.09,2.46 -37.02,16.28 -46.88,4.77 -19.27,-22.52 -33.3,-47.59 -34.61,-48.79 -30.16,-27.73 -42.81,-101.34 -79.32,-125.12 -36.51,-23.78 -51.15,-15.88 -64.77,-4.69 -13.62,11.19 -20.18,20.38 -17.45,51.89 2.72,31.5 21.61,75.99 45.94,103.24 24.33,27.25 32.3,43.79 43,53.03 10.7,9.24 -4.27,17.5 -25.68,33.56 -21.41,16.06 -156.45,87.75 -218.24,156.36 -61.79,68.6 -139.65,175.65 -197.06,298.75 -57.42,123.1 -86.65,262.58 -70.47,353.43 14.78,83.02 30.1,102.44 57.13,156.16 22.09,43.91 60.36,85.2 91.99,88.12 31.63,2.92 34.54,2.92 16.51,14.21 -137.67,86.15 -49.95,315.71 -63.07,493.01 -0.44,6 -37.15,434.86 -7.05,733.48 4.88,48.45 11.95,68.54 9.6,113.72 -2.35,45.18 -8.84,115.79 9.07,133.06 17.92,17.27 52.08,24.45 56.56,28.29 4.48,3.84 -11.96,30.22 13.96,124.28 25.91,94.06 41.15,429.01 47.9,516.3 6.75,87.3 9.72,92.27 13.75,123.89 4.03,31.61 78.78,29.06 121.97,43.13 43.19,14.07 104.95,10.15 176.62,11.43 71.66,1.27 156.04,-20.4 223.23,-34.16 67.18,-13.76 108.78,-33.59 128.93,-47.35 20.15,-13.76 44.22,-63.68 39.74,-122.55 -4.48,-58.87 25.89,-450.91 21.41,-509.14 -4.48,-58.23 -5.76,-64.62 8.32,-66.22 14.07,-1.6 105.27,1.73 124.14,2.54 18.88,0.81 27.2,-0.75 31.36,0.21 4.16,0.96 4.15,4.43 26.66,89.36z"/>
   </clipPath>
   <clipPath id="id1">
    <path d="M5590.35 1970.24c59.3,6.21 132.73,28.8 178.47,53.09 45.75,24.29 63.82,50.27 81.9,72.3 18.07,22.03 36.14,40.1 52.53,61.57 16.38,21.46 31.06,46.31 46.3,65.48 15.23,19.17 31.02,32.66 72.05,47.69 41.03,15.04 107.31,31.63 147.42,26.58 40.11,-5.05 54.07,-31.74 49.75,-52.99 -4.32,-21.25 -26.91,-37.07 -44.88,-48.84 -17.97,-11.78 -31.31,-19.51 -44.3,-37.59 -12.99,-18.08 -25.63,-46.48 -27.99,-77.07 -2.37,-30.59 5.54,-63.34 36.61,-92.71 31.06,-29.37 85.29,-55.35 128.21,-79.63 42.92,-24.29 74.55,-46.88 104.49,-85.85 29.94,-38.97 58.17,-94.32 61.57,-149.11 3.39,-54.79 -18.08,-109.01 -51.4,-159.28 -33.32,-50.27 -78.51,-96.58 -97.71,-141.2 -19.2,-44.62 -12.43,-87.54 -2.26,-102.79 10.17,-15.25 23.72,-2.82 31.63,12.99 7.91,15.81 10.17,35.02 20.9,61.57 10.73,26.54 29.93,60.43 54.35,99.44 24.42,39.01 54.05,83.16 72.69,113.66 18.64,30.5 26.28,47.36 20.5,88.55 -5.78,41.19 -24.98,106.7 -47.01,153.58 -22.03,46.88 -46.88,75.12 -77.38,98.27 -30.5,23.16 -66.65,41.23 -96.58,59.31 -29.94,18.07 -53.66,36.14 -69.47,50.83 -15.82,14.68 -23.73,25.98 -18.64,49.14 5.08,23.16 23.16,58.17 56.48,103.36 33.32,45.18 81.9,100.54 93.19,154.19 11.3,53.66 -14.68,105.62 -79.63,143.46 -64.95,37.84 -168.88,61.56 -297.65,64.95 -128.77,3.39 -282.4,-13.56 -381.24,-27.68 -98.84,-14.12 -142.9,-25.42 -185.82,-53.66 -42.92,-28.24 -84.72,-73.43 -106.18,-119.17 -21.46,-45.75 -22.59,-92.06 -6.21,-142.89 16.38,-50.83 50.27,-106.18 82.46,-139.51 32.19,-33.32 62.69,-44.62 100.53,-55.35 37.84,-10.73 83.03,-20.9 142.33,-14.68z"/>
   </clipPath>
   <clipPath id="id2">
    <path d="M6598.13 1978.27c-45.87,-16.19 -107.62,-26.26 -163.35,-18.74 -55.73,7.52 -105.45,32.66 -158.13,73.63 -52.69,40.98 -108.35,97.79 -147.42,134.71 -39.08,36.92 -61.56,53.92 -86.23,71.26 -24.67,17.33 -51.51,34.98 -96.56,53.43 -45.05,18.45 -108.29,37.7 -154.36,42.26 -46.07,4.56 -74.95,-5.56 -99.47,-8.11 -24.52,-2.55 -44.66,2.47 -58.17,13.02 -13.51,10.55 -20.39,26.63 -14.72,51.14 5.66,24.5 23.87,57.43 44.11,84.41 20.24,26.98 42.51,48.01 73.23,72.93 30.72,24.92 69.89,53.73 115.5,75.09 45.61,21.36 97.65,35.27 144.28,45 46.63,9.73 87.86,15.3 145.22,9.59 57.37,-5.71 130.88,-22.71 196.7,-50.04 65.82,-27.33 123.96,-65 173.71,-99.21 49.74,-34.21 91.1,-64.96 126.86,-96.42 35.77,-31.46 65.95,-63.65 88.55,-99.67 22.6,-36.03 37.61,-75.91 42.74,-108.51 5.13,-32.6 0.37,-57.92 -12.39,-87.54 -12.75,-29.62 -33.5,-63.55 -58.87,-91.65 -25.37,-28.11 -55.36,-50.4 -101.23,-66.58z"/>
   </clipPath>
   <clipPath id="id3">
    <path d="M4906.46 1984.39c45.87,-16.19 107.62,-26.26 163.35,-18.74 55.73,7.52 105.45,32.66 158.13,73.63 52.69,40.98 108.35,97.79 147.42,134.71 39.08,36.92 61.56,53.92 86.23,71.26 24.67,17.33 51.51,34.98 96.56,53.43 45.05,18.45 108.29,37.7 154.36,42.26 46.07,4.56 74.95,-5.56 99.47,-8.11 24.52,-2.55 44.66,2.47 58.17,13.02 13.51,10.55 20.39,26.63 14.72,51.14 -5.66,24.5 -23.87,57.43 -44.11,84.41 -20.24,26.98 -42.51,48.01 -73.23,72.93 -30.72,24.92 -69.89,53.73 -115.5,75.09 -45.61,21.36 -97.65,35.27 -144.28,45 -46.63,9.73 -87.86,15.3 -145.22,9.59 -57.37,-5.71 -130.88,-22.71 -196.7,-50.04 -65.82,-27.33 -123.96,-65 -173.71,-99.21 -49.74,-34.21 -91.1,-64.96 -126.86,-96.42 -35.77,-31.46 -65.95,-63.65 -88.55,-99.67 -22.6,-36.03 -37.61,-75.91 -42.74,-108.51 -5.13,-32.6 -0.37,-57.92 12.39,-87.54 12.75,-29.62 33.5,-63.55 58.87,-91.65 25.37,-28.11 55.36,-50.4 101.23,-66.58z"/>
   </clipPath>
   <clipPath id="id4">
    <path d="M5351.97 1632.29c127.32,-11.93 245.03,64.18 272.98,182.98 3.15,13.39 5.02,26.8 5.72,40.13 9.44,1.26 18.43,1.81 24.69,2.8 6.34,1.01 9.9,2.46 10.76,4.2 0.87,1.74 -0.95,3.77 -4.48,5.29 -3.54,1.52 -8.8,2.53 -12.48,3.4 -3.69,0.87 -5.81,1.6 -6.34,2.75 -0.53,1.15 0.53,2.74 3.01,3.53 2.48,0.79 6.37,0.79 10.04,1.3 3.67,0.51 7.12,1.53 8.05,2.57 0.93,1.04 -0.65,2.1 -3.45,3.33 -2.8,1.23 -6.82,2.64 -10.46,3.26 -3.63,0.63 -6.88,0.47 -6.3,1.48 0.58,1.01 4.99,3.18 9.37,4.78 4.39,1.6 8.75,2.64 11.87,4.19 3.11,1.56 4.98,3.64 4.19,5.66 -0.79,2.02 -4.22,3.97 -10.78,4.83 -6.56,0.85 -16.23,0.61 -27.29,-2.05 -1.11,-0.27 -2.24,-0.56 -3.38,-0.88 -16.61,96.86 -94.66,181.05 -203.13,206.58 -106.89,25.16 -212.73,-13.86 -271.36,-90.88l-0.25 0.25c-3.06,3.06 -6.54,6.11 -10.58,8.38 -4.04,2.27 -8.63,3.77 -12.11,4.17 -3.48,0.4 -5.84,-0.28 -6.98,-1.04 -1.14,-0.76 -1.06,-1.61 0.55,-3.22 1.61,-1.62 4.76,-4.01 7.66,-7.16 2.9,-3.16 5.54,-7.08 7.14,-10.29 1.6,-3.22 2.14,-5.73 1.64,-5.82 -0.5,-0.09 -2.05,2.25 -5.14,4.93 -3.1,2.68 -7.74,5.7 -11.74,7.12 -3.99,1.42 -7.33,1.24 -7.86,0.13 -0.54,-1.11 1.73,-3.16 3.73,-5.14 2,-1.98 3.75,-3.91 5.05,-6.27 1.3,-2.37 2.15,-5.18 1.33,-5.51 -0.82,-0.33 -3.31,1.8 -7.02,3.45 -3.71,1.65 -8.65,2.81 -11.09,1.3 -2.44,-1.51 -2.38,-5.69 1.32,-10.88 3.71,-5.19 11.06,-11.39 16.17,-20.67l0.49 -0.91c-5.33,-12.27 -9.65,-25.13 -12.81,-38.55 -27.02,-114.8 38.77,-231.31 150.88,-280.62 -0.67,-2.39 -1.31,-4.64 -1.87,-6.88 -2.13,-8.55 -2.98,-17.05 -3.51,-23.69 -0.53,-6.63 -0.74,-11.39 -0.19,-15.41 0.54,-4.02 1.83,-7.31 3.8,-9.14 1.97,-1.84 4.63,-2.23 5.72,-0.54 1.08,1.69 0.6,5.47 3.05,10.51 2.44,5.04 7.82,11.33 11.61,15.25 3.78,3.92 5.98,5.47 7.35,5.95 1.37,0.48 1.92,-0.11 1.25,-2.47 -0.67,-2.36 -2.56,-6.5 -4.48,-10.28 -1.92,-3.78 -3.87,-7.22 -4.53,-10.5 -0.66,-3.28 -0.02,-6.41 0.57,-8.27 0.59,-1.86 1.14,-2.45 3.29,-1.12 2.14,1.33 5.89,4.57 8.73,8.37 2.84,3.8 4.78,8.15 6.68,11.37 1.9,3.22 3.77,5.3 5.9,7.09 2.14,1.79 4.55,3.28 5.17,1.99 0.61,-1.29 -0.58,-5.36 -1.48,-8.7 -0.9,-3.34 -1.51,-5.95 -1.39,-9.3 0.13,-3.35 1,-7.45 2.02,-8.95 1.02,-1.5 2.2,-0.4 3.47,3.54 1.27,3.94 2.64,10.72 6.53,15.07 3.89,4.36 10.3,6.28 11.87,6.14 1.57,-0.14 -1.7,-2.35 -3.25,-5.54 -1.55,-3.19 -1.39,-7.35 -0.62,-11.88 0.76,-4.53 2.13,-9.44 3.2,-10.72 1.07,-1.28 1.85,1.05 2.5,2.85 0.65,1.79 1.18,3.04 3.89,5.84 2.72,2.8 7.64,7.14 10.32,10.74 2.68,3.61 3.13,6.48 3.05,10.05 -0.04,1.75 -0.2,3.67 -0.25,5.73z"/>
   </clipPath>
    <clipPath id="id5">
     <path d="M5244.98 1966.39c14.27,1.24 35.95,2.75 60.08,0.56 24.13,-2.18 50.69,-8.07 71.43,-13.68 20.75,-5.62 35.67,-10.97 51.46,-16.52 15.8,-5.56 32.46,-11.32 45.34,-16.75 12.88,-5.41 21.98,-10.5 30.42,-14.51 8.43,-4.01 16.2,-6.94 22.39,-8.77 6.19,-1.82 10.81,-2.54 14.26,-1.15 3.45,1.39 5.75,4.9 8.44,11.62 2.68,6.72 5.76,16.66 6.88,26.88 1.12,10.22 0.28,20.71 -4.65,31.8 -4.93,11.09 -13.95,22.78 -21.84,31.43 -7.89,8.67 -14.66,14.3 -30.92,22.54 -16.27,8.24 -42.03,19.09 -64.75,25.72 -22.72,6.63 -42.37,9.05 -60.62,10.4 -18.26,1.36 -35.11,1.64 -50.63,0.52 -15.53,-1.12 -29.74,-3.67 -43.16,-9.15 -13.43,-5.48 -26.07,-13.9 -36.16,-22.38 -10.09,-8.47 -17.61,-17 -21.87,-25.74 -4.27,-8.74 -5.27,-17.7 -5.4,-23.74 -0.14,-6.04 0.6,-9.15 4.39,-10.23 3.79,-1.07 10.64,-0.11 24.9,1.13z"/>
    </clipPath>
    <clipPath id="id6">
     <path d="M5351.97 1632.29c127.32,-11.93 245.03,64.18 272.98,182.98 3.15,13.39 5.02,26.8 5.72,40.13 9.44,1.26 18.43,1.81 24.69,2.8 6.34,1.01 9.9,2.46 10.76,4.2 0.87,1.74 -0.95,3.77 -4.48,5.29 -3.54,1.52 -8.8,2.53 -12.48,3.4 -3.69,0.87 -5.81,1.6 -6.34,2.75 -0.53,1.15 0.53,2.74 3.01,3.53 2.48,0.79 6.37,0.79 10.04,1.3 3.67,0.51 7.12,1.53 8.05,2.57 0.93,1.04 -0.65,2.1 -3.45,3.33 -2.8,1.23 -6.82,2.64 -10.46,3.26 -3.63,0.63 -6.88,0.47 -6.3,1.48 0.58,1.01 4.99,3.18 9.37,4.78 4.39,1.6 8.75,2.64 11.87,4.19 3.11,1.56 4.98,3.64 4.19,5.66 -0.79,2.02 -4.22,3.97 -10.78,4.83 -6.56,0.85 -16.23,0.61 -27.29,-2.05 -1.11,-0.27 -2.24,-0.56 -3.38,-0.88 -16.61,96.86 -94.66,181.05 -203.13,206.58 -106.89,25.16 -212.73,-13.86 -271.36,-90.88l-0.25 0.25c-3.06,3.06 -6.54,6.11 -10.58,8.38 -4.04,2.27 -8.63,3.77 -12.11,4.17 -3.48,0.4 -5.84,-0.28 -6.98,-1.04 -1.14,-0.76 -1.06,-1.61 0.55,-3.22 1.61,-1.62 4.76,-4.01 7.66,-7.16 2.9,-3.16 5.54,-7.08 7.14,-10.29 1.6,-3.22 2.14,-5.73 1.64,-5.82 -0.5,-0.09 -2.05,2.25 -5.14,4.93 -3.1,2.68 -7.74,5.7 -11.74,7.12 -3.99,1.42 -7.33,1.24 -7.86,0.13 -0.54,-1.11 1.73,-3.16 3.73,-5.14 2,-1.98 3.75,-3.91 5.05,-6.27 1.3,-2.37 2.15,-5.18 1.33,-5.51 -0.82,-0.33 -3.31,1.8 -7.02,3.45 -3.71,1.65 -8.65,2.81 -11.09,1.3 -2.44,-1.51 -2.38,-5.69 1.32,-10.88 3.71,-5.19 11.06,-11.39 16.17,-20.67l0.49 -0.91c-5.33,-12.27 -9.65,-25.13 -12.81,-38.55 -27.02,-114.8 38.77,-231.31 150.88,-280.62 -0.67,-2.39 -1.31,-4.64 -1.87,-6.88 -2.13,-8.55 -2.98,-17.05 -3.51,-23.69 -0.53,-6.63 -0.74,-11.39 -0.19,-15.41 0.54,-4.02 1.83,-7.31 3.8,-9.14 1.97,-1.84 4.63,-2.23 5.72,-0.54 1.08,1.69 0.6,5.47 3.05,10.51 2.44,5.04 7.82,11.33 11.61,15.25 3.78,3.92 5.98,5.47 7.35,5.95 1.37,0.48 1.92,-0.11 1.25,-2.47 -0.67,-2.36 -2.56,-6.5 -4.48,-10.28 -1.92,-3.78 -3.87,-7.22 -4.53,-10.5 -0.66,-3.28 -0.02,-6.41 0.57,-8.27 0.59,-1.86 1.14,-2.45 3.29,-1.12 2.14,1.33 5.89,4.57 8.73,8.37 2.84,3.8 4.78,8.15 6.68,11.37 1.9,3.22 3.77,5.3 5.9,7.09 2.14,1.79 4.55,3.28 5.17,1.99 0.61,-1.29 -0.58,-5.36 -1.48,-8.7 -0.9,-3.34 -1.51,-5.95 -1.39,-9.3 0.13,-3.35 1,-7.45 2.02,-8.95 1.02,-1.5 2.2,-0.4 3.47,3.54 1.27,3.94 2.64,10.72 6.53,15.07 3.89,4.36 10.3,6.28 11.87,6.14 1.57,-0.14 -1.7,-2.35 -3.25,-5.54 -1.55,-3.19 -1.39,-7.35 -0.62,-11.88 0.76,-4.53 2.13,-9.44 3.2,-10.72 1.07,-1.28 1.85,1.05 2.5,2.85 0.65,1.79 1.18,3.04 3.89,5.84 2.72,2.8 7.64,7.14 10.32,10.74 2.68,3.61 3.13,6.48 3.05,10.05 -0.04,1.75 -0.2,3.67 -0.25,5.73z"/>
    </clipPath>
   <clipPath id="id7">
    <path d="M5637.81 2134.46c-17.38,10.76 -28.97,19.04 -28.15,35.6 0.83,16.56 14.07,41.39 47.18,39.74 33.11,-1.66 86.09,-29.8 140.72,-69.54 54.63,-39.74 110.92,-91.06 156.45,-141.55 45.53,-50.49 80.29,-100.16 107.61,-144.03 27.32,-43.87 47.18,-81.95 59.6,-111.75 12.42,-29.8 17.38,-51.32 22.35,-68.71 4.97,-17.38 9.93,-30.63 10.76,-43.87 0.83,-13.25 -2.48,-26.49 -8.28,-37.25 -5.8,-10.76 -14.07,-19.04 -28.15,-23.18 -14.07,-4.14 -33.94,-4.14 -47.18,0.83 -13.25,4.96 -19.87,14.9 -19.87,27.32 0,12.42 6.62,27.32 9.93,37.25 3.31,9.93 3.31,14.9 -7.95,33.91 -11.26,19.01 -33.77,52.08 -59.1,89.3 -25.33,37.22 -53.47,78.61 -83.89,128.65 -30.42,50.04 -63.12,108.72 -98.22,145.17 -35.1,36.45 -72.6,50.66 -102.94,64.39 -30.34,13.73 -53.52,26.97 -70.9,37.73z"/>
   </clipPath>
 </defs>
 <g id="Capa_x0020_1">
  <metadata id="CorelCorpID_0Corel-Layer"/>
  <rect class="fil0" x="-0" y="-0" width="7136.84" height="4282.1" rx="293.43" ry="393.65"/>
  <path class="fil1" d="M5901.69 3306.18c22.5,84.92 23.88,375.99 34.61,463.49 10.73,87.5 2.38,143.57 37.61,158.25 35.23,14.68 107.65,38.17 197.69,51.87 90.03,13.7 197.69,17.62 277.93,1.96 80.25,-15.66 164.62,-27.97 190.06,-47.54 25.44,-19.57 -26.49,-254.4 -38.24,-382.6 -11.74,-128.2 -14.81,-172.7 -26.56,-298.95 -11.74,-126.25 -13.7,-126.25 0,-135.05 13.7,-8.81 43.06,-26.42 57.74,-157.56 14.68,-131.14 14.68,-375.8 14.68,-602.85 0,-227.05 -0.01,-436.48 -1.92,-550.44 -0.53,-31.95 10.7,-84.43 -11.4,-135.93 -16.31,-38.01 -69.75,-49.33 -69.75,-49.33 2.77,-5.22 44.21,-31.08 62.65,-49.71 34.28,-34.62 41.44,-83.85 47.82,-126.5 6.38,-42.65 6.65,-106.96 -19.63,-197.46 -26.27,-90.5 -66.43,-235.81 -147.2,-366.7 -80.77,-130.89 -125.3,-145.02 -231.85,-209.23 -7.35,-4.43 -159.67,-72.22 -166.22,-94.9 -6.46,-22.4 35.65,-98.2 45.87,-128.36 10.22,-30.17 19.95,-64.23 13.14,-87.1 -6.81,-22.87 -30.17,-34.55 -51.09,-36.49 -20.92,-1.94 -39.41,5.84 -61.31,39.41 -21.89,33.57 -47.2,92.93 -60.82,123.59 -13.62,30.65 -15.57,32.6 -33.57,33.09 -18,0.49 -337.29,-17.51 -382.06,-13.14 -31.98,3.13 -108.57,23.85 -161.35,30.01 -21.09,2.46 -37.02,16.28 -46.88,4.77 -19.27,-22.52 -33.3,-47.59 -34.61,-48.79 -30.16,-27.73 -42.81,-101.34 -79.32,-125.12 -36.51,-23.78 -51.15,-15.88 -64.77,-4.69 -13.62,11.19 -20.18,20.38 -17.45,51.89 2.72,31.5 21.61,75.99 45.94,103.24 24.33,27.25 32.3,43.79 43,53.03 10.7,9.24 -4.27,17.5 -25.68,33.56 -21.41,16.06 -156.45,87.75 -218.24,156.36 -61.79,68.6 -139.65,175.65 -197.06,298.75 -57.42,123.1 -86.65,262.58 -70.47,353.43 14.78,83.02 30.1,102.44 57.13,156.16 22.09,43.91 60.36,85.2 91.99,88.12 31.63,2.92 34.54,2.92 16.51,14.21 -137.67,86.15 -49.95,315.71 -63.07,493.01 -0.44,6 -37.15,434.86 -7.05,733.48 4.88,48.45 11.95,68.54 9.6,113.72 -2.35,45.18 -8.84,115.79 9.07,133.06 17.92,17.27 52.08,24.45 56.56,28.29 4.48,3.84 -11.96,30.22 13.96,124.28 25.91,94.06 41.15,429.01 47.9,516.3 6.75,87.3 9.72,92.27 13.75,123.89 4.03,31.61 78.78,29.06 121.97,43.13 43.19,14.07 104.95,10.15 176.62,11.43 71.66,1.27 156.04,-20.4 223.23,-34.16 67.18,-13.76 108.78,-33.59 128.93,-47.35 20.15,-13.76 44.22,-63.68 39.74,-122.55 -4.48,-58.87 25.89,-450.91 21.41,-509.14 -4.48,-58.23 -5.76,-64.62 8.32,-66.22 14.07,-1.6 105.27,1.73 124.14,2.54 18.88,0.81 27.2,-0.75 31.36,0.21 4.16,0.96 4.15,4.43 26.66,89.36z"/>
  <g style="clip-path:url(#id0)">
   <g id="_2304987624496">
    <path id="_1" class="fil0 str0" d="M4707.9 2979.19c10.38,38.96 16.29,116.49 156.82,164.3 140.53,47.81 415.67,65.92 582.13,69.62 166.46,3.7 224.24,-7.01 278.95,-10.55 54.71,-3.54 106.36,0.09 140.04,-0.64 33.68,-0.73 49.39,-5.83 199.71,-19.53 150.32,-13.69 435.24,-35.98 589.49,-100.71 154.25,-64.73 177.81,-171.89 191.74,-402.39 13.93,-230.5 18.22,-584.34 -9.52,-771.54 -27.74,-187.2 -87.5,-207.76 -141.87,-246.39 -54.36,-38.63 -103.33,-95.33 -185.13,-123.7 -81.8,-28.37 -196.44,-28.41 -396.91,-31.28 -200.47,-2.88 -486.77,-8.59 -702.7,12.16 -215.93,20.74 -361.5,67.94 -486.15,114.28 -124.64,46.34 -228.37,91.83 -334.34,145.36 -105.98,53.53 -214.21,115.11 -259.95,272.23 -45.74,157.12 -28.98,409.77 19.2,565.93 48.18,156.16 127.79,215.84 186.1,253.61 58.31,37.77 95.31,53.64 121.24,61.77 25.92,8.13 40.76,8.52 51.14,47.47z"/>
    <path class="fil2" d="M6636.2 1388.71c-151.26,-32.11 -412.44,-63.48 -613.93,-84.76 -201.5,-21.28 -343.29,-32.48 -474.41,-36.82 -131.12,-4.33 -251.55,-1.8 -365.92,2.84 -114.37,4.64 -222.67,11.39 -346.66,24.22 -123.99,12.83 -263.67,31.75 -339.92,59.56 -76.25,27.81 -89.06,64.5 -55.02,109.31 34.04,44.81 114.93,97.73 156.93,146.13 42,48.4 45.12,92.28 367.86,114.25 322.74,21.96 965.12,22.02 1343.91,3.37 378.79,-18.65 494,-56 543.58,-99.16 49.58,-43.16 33.53,-92.13 4.84,-133.04 -28.69,-40.92 -70.02,-73.79 -221.28,-105.91z"/>
    <path class="fil1 str0" d="M4686.25 1648.78c56.66,10.68 138.92,20.83 228.94,28.26 90.02,7.42 187.79,12.1 287.47,17.91 99.68,5.81 201.26,12.73 401.71,12.34 200.44,-0.39 499.75,-8.1 683.49,-23.57 183.74,-15.48 251.91,-38.73 303.88,-54.62 51.97,-15.89 87.74,-24.42 100.64,-50.47 12.9,-26.05 2.94,-69.62 46.81,-142.7 43.87,-73.08 141.58,-175.68 173.34,-308.81 31.76,-133.13 -2.44,-296.8 -79.85,-355.18 -77.41,-58.38 -198.02,-11.48 -324.37,-30.02 -126.35,-18.54 -258.44,-102.52 -352.01,-155.59 -93.57,-53.07 -148.62,-75.23 -194.24,-84.27 -45.62,-9.04 -81.8,-4.97 -135.87,-7.05 -54.08,-2.07 -126.05,-10.29 -196.2,-7.86 -70.15,2.42 -138.48,15.49 -204.6,32.79 -66.13,17.3 -130.04,38.85 -184.71,63.25 -54.68,24.4 -100.11,51.67 -190,108.8 -89.9,57.13 -224.25,144.14 -329.29,220.62 -105.04,76.48 -180.77,142.44 -241.23,219.99 -60.46,77.56 -105.65,166.72 -109.92,246.72 -4.28,80 32.37,150.84 72.06,188.7 39.69,37.86 82.44,42.75 119.35,50.8 36.9,8.05 67.95,19.26 124.6,29.94z"/>
   </g>
  </g>
  <g>
   <path class="fil3" d="M5936.31 3769.67c10.73,87.5 2.38,143.57 37.61,158.25 35.23,14.68 107.65,38.17 197.69,51.87 90.03,13.7 197.69,17.62 277.93,1.96 80.25,-15.66 164.62,-27.97 190.06,-47.54 25.44,-19.57 -26.49,-254.4 -38.24,-382.6 -11.74,-128.2 -14.81,-172.7 -26.56,-298.95 -11.74,-126.25 -13.7,-126.25 0,-135.05 13.7,-8.81 43.06,-26.42 57.74,-157.56 14.68,-131.14 14.68,-375.8 14.68,-602.85 0,-227.05 -0.01,-436.48 -1.92,-550.44 -0.53,-31.95 10.7,-84.43 -11.4,-135.93 -16.31,-38.01 -69.75,-49.33 -69.75,-49.33 2.77,-5.22 44.21,-31.08 62.65,-49.71 34.28,-34.62 41.44,-83.85 47.82,-126.5 6.38,-42.65 6.65,-106.96 -19.63,-197.46 -26.27,-90.5 -66.43,-235.81 -147.2,-366.7 -80.77,-130.89 -125.3,-145.02 -231.85,-209.23 -7.35,-4.43 -159.67,-72.22 -166.22,-94.9 -6.46,-22.4 35.65,-98.2 45.87,-128.36 10.22,-30.17 19.95,-64.23 13.14,-87.1 -6.81,-22.87 -30.17,-34.55 -51.09,-36.49 -20.92,-1.94 -39.41,5.84 -61.31,39.41 -21.89,33.57 -47.2,92.93 -60.82,123.59 -13.62,30.65 -15.57,32.6 -33.57,33.09 -18,0.49 -337.29,-17.51 -382.06,-13.14 -31.98,3.13 -108.57,23.85 -161.35,30.01 -21.09,2.46 -37.02,16.28 -46.88,4.77 -19.27,-22.52 -33.3,-47.59 -34.61,-48.79 -30.16,-27.73 -42.81,-101.34 -79.32,-125.12 -36.51,-23.78 -51.15,-15.88 -64.77,-4.69 -13.62,11.19 -20.18,20.38 -17.45,51.89 2.72,31.5 21.61,75.99 45.94,103.24 24.33,27.25 32.3,43.79 43,53.03 10.7,9.24 -4.27,17.5 -25.68,33.56 -21.41,16.06 -156.45,87.75 -218.24,156.36 -61.79,68.6 -139.65,175.65 -197.06,298.75 -57.42,123.1 -86.65,262.58 -70.47,353.43 14.78,83.02 30.1,102.44 57.13,156.16 22.09,43.91 60.36,85.2 91.99,88.12 31.63,2.92 34.54,2.92 16.51,14.21 -137.67,86.15 -49.95,315.71 -63.07,493.01 -0.44,6 -37.15,434.86 -7.05,733.48 4.88,48.45 11.95,68.54 9.6,113.72 -2.35,45.18 -8.84,115.79 9.07,133.06 17.92,17.27 52.08,24.45 56.56,28.29 4.48,3.84 -11.96,30.22 13.96,124.28 25.91,94.06 41.15,429.01 47.9,516.3 6.75,87.3 9.72,92.27 13.75,123.89 4.03,31.61 78.78,29.06 121.97,43.13 43.19,14.07 104.95,10.15 176.62,11.43 71.66,1.27 156.04,-20.4 223.23,-34.16 67.18,-13.76 108.78,-33.59 128.93,-47.35 20.15,-13.76 44.22,-63.68 39.74,-122.55 -4.48,-58.87 25.89,-450.91 21.41,-509.14 -4.48,-58.23 -5.76,-64.62 8.32,-66.22 14.07,-1.6 105.27,1.73 124.14,2.54 18.88,0.81 27.2,-0.75 31.36,0.21 4.16,0.96 4.15,4.43 26.66,89.36 22.5,84.92 23.88,375.99 34.61,463.49zm-37.78 -162.79c-4.92,-112.37 -10.67,-243.5 -23.94,-293.57 -1.49,-5.63 -6.3,-23.96 -10.57,-40.23 -7.96,-30.34 17.92,-25.91 4.77,-28.93 -1.51,-0.35 0.13,0.39 -1.97,0.47 -5.51,0.19 -13.29,0.46 -24.34,-0.01 -12,-0.52 -52.38,-2.03 -83.3,-2.66 -17.67,-0.36 -32.34,-0.47 -36.56,0.01 -13.66,1.55 13.9,1.48 15.93,27.56l0.67 8.7c2.35,30.63 -4.16,144 -10.68,257.55 -6.42,111.75 -12.85,223.68 -10.73,251.58 2.31,30.38 -2.07,58.82 -9.71,82.38 -10.02,30.89 -26.6,54.76 -42.22,65.42 -12.94,8.83 -33.23,19.72 -61.3,30.03 -20.92,7.68 -46.72,15.24 -77.84,21.61 -6.96,1.42 -21.35,4.53 -35.92,7.67 -61.08,13.17 -130.6,28.15 -193.34,27.04 -16.03,-0.28 -31.29,-0.31 -45.95,-0.33 -54.4,-0.09 -101.32,-0.17 -138.9,-12.41 -12.04,-3.92 -28.13,-6.55 -44.07,-9.15 -46.24,-7.54 -91.63,-14.95 -97,-57.14 -0.49,-3.87 -1.72,-11.97 -2.96,-20.15 -2.89,-19.08 -5.88,-38.84 -11.01,-105.16 -1.28,-16.5 -3.11,-46.42 -5.34,-82.86 -8.15,-132.94 -21.86,-356.49 -41.54,-428.07l-0.03 0.01c-16.04,-58.2 -16.95,-93.07 -15.73,-112.94 -14.52,-5.38 -33.24,-13.42 -47.21,-26.9 -25.23,-24.33 -21.45,-89.08 -18.53,-138.95 0.35,-6 0.68,-11.69 0.89,-15.73 1.44,-27.74 -1.11,-45.68 -4.34,-68.37 -1.63,-11.42 -3.42,-24 -5.15,-41.17 -29.52,-292.88 4.44,-707.81 6.82,-736.88l0.13 -1.55 0.02 0c3.91,-53.26 -1.65,-112.17 -7.15,-170.24 -11.63,-123.03 -22.93,-242.67 48.54,-316.4 -11.6,-5.99 -22.94,-14.46 -33.6,-24.68 -19.38,-18.57 -37.36,-43.55 -50.26,-69.2 -2.46,-4.89 -7.17,-13.93 -11.63,-22.49 -21.21,-40.73 -34.87,-66.95 -48.13,-141.47 -8.62,-48.42 -5.43,-108.84 7.36,-172.99 12.82,-64.3 35.36,-132.91 65.31,-197.13 26.59,-57 57.79,-111.06 89.94,-159.82 38.29,-58.05 77.5,-107.86 111.73,-145.85 49.77,-55.25 141.31,-110.55 192.12,-141.25 15.33,-9.26 26.79,-16.19 30.19,-18.73 1.86,-1.4 5.32,-3.93 8.62,-6.34l0.5 -0.37c-1.64,-2.18 -3.34,-4.5 -5.15,-6.97 -6.24,-8.51 -14.15,-19.32 -25.36,-31.87 -13.95,-15.63 -26.2,-35.7 -35.32,-56.2 -9.65,-21.69 -16.12,-44.34 -17.76,-63.29 -1.76,-20.35 -0.15,-34.44 4.46,-46.18 5.23,-13.32 12.96,-21.33 23.2,-29.74 10.76,-8.84 22.27,-16.4 40.49,-17.14 15.36,-0.62 33.56,4.48 57.33,19.96 26.8,17.46 41.37,49.21 55.53,80.07 9.04,19.7 17.88,38.95 27.41,47.8l0.01 -0.01c3.13,2.86 4.98,5.84 8.01,10.67 4.68,7.47 14.39,22.95 26.4,37.52l-1.11 -3.27c-0.44,-0.76 -0.65,-1.28 -0.46,-1.35 7.56,-2.58 16,-5.46 26.58,-6.69 27.23,-3.18 61.98,-10.61 92.97,-17.23 27.49,-5.87 52.14,-11.14 68.93,-12.78 32.84,-3.21 194.71,4.43 298.62,9.33 46.39,2.19 81.06,3.82 85.42,3.7 0.48,-0.01 0.35,0.51 0.03,1.15l0.02 0.81c1.39,-2.22 4.07,-8.16 8.59,-18.32l-0.09 -0.04 4.87 -11.02c14.56,-33.01 37.25,-84.47 58.15,-116.52 13.51,-20.72 26.67,-33.89 40.24,-41.92 15.71,-9.29 31,-11.61 47.09,-10.12 15.87,1.47 32.84,7 46.74,16.93 13.11,9.36 23.65,22.41 28.72,39.43 4.83,16.22 4.09,34.84 0.47,53.98 -3.18,16.88 -8.52,34.1 -13.94,50.13 -3.68,10.86 -10.3,25.41 -17.59,41.44 -13.39,29.45 -29.5,64.87 -27.95,70.23 1.82,6.31 96.95,51.34 134.85,69.28 9.71,4.6 16.22,7.68 18.86,9.27l0.11 0c18.4,11.09 28.11,16.79 37.06,22.04 84.84,49.76 129.84,76.16 204.12,196.53 79.37,128.61 120.11,269.38 146.86,361.82l3.42 11.8c13.79,47.5 20.62,88.14 23.16,122.49 2.59,35.03 0.79,63.81 -2.65,86.82l-0.13 0.85c-6.98,46.68 -15.01,100.35 -55.6,141.34 -7.52,7.59 -17.52,15.65 -27.53,23.2 15.96,10.14 31.81,24.7 40.57,45.11 19.4,45.21 16.71,88.63 14.62,122.33 -0.58,9.49 -1.12,18.13 -1.02,24.14 0.95,56.92 1.43,137.96 1.67,233.25 0.35,138.06 0.35,226.44 0.35,317.63 0,110.64 -0,225.57 -1.94,337.83 -1.85,107.1 -5.56,202.02 -12.95,268.1 -16.02,143.12 -52.55,166.57 -70.06,177.82l-0.11 0 -0.34 0.22 0.03 0.05c-2.28,1.46 2.35,-0.72 8.98,69.01 0.87,9.14 1.89,19.89 3.75,39.92 7.42,79.75 10.66,117.3 14,156.01 4.21,48.83 8.54,99.08 12.56,142.94 4.03,43.98 12.98,101.41 21.82,158.1 17.86,114.55 35.29,226.4 5.66,249.2 -26.13,20.1 -89.3,31.83 -157.73,44.54 -11.28,2.09 -22.79,4.23 -44.08,8.38 -39.62,7.73 -85.64,10.89 -133.07,10.56 -52.48,-0.37 -106.18,-4.96 -154.42,-12.3 -39.39,-5.99 -75.99,-13.98 -107.91,-22.35 -42.2,-11.07 -75.56,-22.72 -96.37,-31.39 -41.86,-17.44 -44.72,-57.3 -49.16,-119.29 -1.29,-18.02 -2.75,-38.37 -5.58,-61.46 -4.07,-33.19 -6.83,-96.15 -9.9,-166.19zm62.19 -3110.97c0.17,-0.16 0.37,-0.44 0.61,-0.83l-0.02 -0.81c-0.72,1.4 -2.37,3.39 -0.59,1.63zm-567.77 28.63c4.98,5.82 -1.73,-2.88 -3.72,-6.39l1.11 3.27c0.86,1.05 1.73,2.08 2.62,3.12z"/>
  </g>
  <path class="fil4" d="M5269.46 1186.65c67.41,0 122.06,53.83 122.06,120.24 0,66.4 -54.65,120.24 -122.06,120.24 -67.41,0 -122.06,-53.83 -122.06,-120.24 0,-66.4 54.65,-120.24 122.06,-120.24z"/>
  <path class="fil4" d="M5834.71 1262.39c67.41,0 122.06,53.83 122.06,120.24 0,66.4 -54.65,120.24 -122.06,120.24 -67.41,0 -122.06,-53.83 -122.06,-120.24 0,-66.4 54.65,-120.24 122.06,-120.24z"/>
  <path class="fil5" d="M895.8 1958.99l-130.26 0c-14.03,-16.87 -21.12,-64.77 -21.12,-143.72l0 -0.85 0.71 -35.72c0.71,-49.61 0.99,-74.84 0.99,-75.97 0,-20.27 -13.32,-30.33 -39.97,-30.33l0 285.74 -130.96 0 0 -595.3 161.44 0c36.85,0 68.88,8.51 96.1,25.37 27.36,16.87 40.96,43.51 40.96,79.94l0 71.44c0,46.21 -26.93,77.39 -80.93,93.69 54,12.76 80.93,45.64 80.93,98.51l-1.7 65.2c0,95.25 7.94,149.25 23.81,162.01zm-149.67 -390.49l0 -97.94c0,-20.83 -13.32,-31.18 -39.97,-31.18l0 160.73c26.65,0 39.97,-10.49 39.97,-31.61z"/>
  <polygon id="_1_0" class="fil5" points="1170.35,1958.14 914.37,1958.14 914.37,1362.84 1168.65,1362.84 1168.65,1439.38 1045.33,1439.38 1045.33,1600.11 1156.6,1600.11 1156.6,1672.39 1045.33,1672.39 1045.33,1881.6 1170.35,1881.6 "/>
  <path id="_2" class="fil5" d="M1545.53 1958.14l-130.12 0 -21.97 -159.88 -57.83 0 -22.25 159.88 -130.12 0 97.51 -595.3 167.11 0 97.66 595.3zm-162.57 -242.37l-18.71 -177.74 -17.86 177.74 36.57 0z"/>
  <polygon id="_3" class="fil5" points="1812.56,1958.14 1567.64,1958.14 1567.64,1362.84 1698.6,1362.84 1698.6,1881.6 1812.56,1881.6 "/>
  <polygon id="_4" class="fil5" points="1962.23,1958.14 1831.27,1958.14 1831.27,1362.84 1962.23,1362.84 "/>
  <polygon id="_5" class="fil5" points="2277.03,1958.14 1981.94,1958.14 1981.94,1882.45 2125.66,1440.23 1990.72,1440.23 1990.72,1362.84 2266.83,1362.84 2266.83,1441.08 2123.67,1881.6 2277.03,1881.6 "/>
  <path id="_6" class="fil5" d="M2653.91 1958.14l-130.12 0 -21.97 -159.88 -57.83 0 -22.25 159.88 -130.12 0 97.51 -595.3 167.11 0 97.66 595.3zm-162.57 -242.37l-18.71 -177.74 -17.86 177.74 36.57 0z"/>
  <path id="_7" class="fil5" d="M2996.63 1958.99l-130.26 0c-14.03,-16.87 -21.12,-64.77 -21.12,-143.72l0 -0.85 0.71 -35.72c0.71,-49.61 0.99,-74.84 0.99,-75.97 0,-20.27 -13.32,-30.33 -39.97,-30.33l0 285.74 -130.96 0 0 -595.3 161.44 0c36.85,0 68.88,8.51 96.1,25.37 27.36,16.87 40.96,43.51 40.96,79.94l0 71.44c0,46.21 -26.93,77.39 -80.93,93.69 54,12.76 80.93,45.64 80.93,98.51l-1.7 65.2c0,95.25 7.94,149.25 23.81,162.01zm-149.67 -390.49l0 -97.94c0,-20.83 -13.32,-31.18 -39.97,-31.18l0 160.73c26.65,0 39.97,-10.49 39.97,-31.61z"/>
  <path id="_8" class="fil5" d="M994.45 2842.72l-130.12 0 -21.97 -159.88 -57.83 0 -22.25 159.88 -130.12 0 97.51 -595.3 167.11 0 97.66 595.3zm-162.57 -242.37l-18.71 -177.74 -17.86 177.74 36.57 0z"/>
  <polygon id="_9" class="fil5" points="1287.84,2324.81 1214.71,2324.81 1214.71,2842.72 1083.74,2842.72 1083.74,2324.81 1010.6,2324.81 1010.6,2247.42 1287.84,2247.42 "/>
  <path id="_10" class="fil5" d="M1666.43 2842.72l-130.12 0 -21.97 -159.88 -57.83 0 -22.25 159.88 -130.12 0 97.51 -595.3 167.11 0 97.66 595.3zm-162.57 -242.37l-18.71 -177.74 -17.86 177.74 36.57 0z"/>
  <path id="_11" class="fil5" d="M1984.48 2924.36l-51.88 0c-53.43,0 -80.08,-25.51 -80.08,-76.54 -110.98,0 -166.54,-35.72 -166.54,-107.01l0 -382.83c0,-77.11 50.03,-115.66 150.24,-115.66 98.79,0 148.26,38.27 148.26,114.81l0 382.84c0,41.53 -21.83,72.71 -65.63,93.83 0,9.64 3.4,15.59 10.06,18 6.52,2.41 25.09,3.69 55.56,3.69l0 68.88zm-127.56 -177.74l0 -404.8c0,-11.91 -7.09,-17.86 -21.4,-17.86 -14.6,0 -21.97,5.95 -21.97,17.86l0 404.8c0,11.91 7.37,17.86 21.97,17.86 14.32,0 21.4,-5.95 21.4,-17.86z"/>
  <path id="_12" class="fil5" d="M2011.56 2247.42l130.96 0 0 499.2c0,11.91 7.37,17.86 21.97,17.86 14.32,0 21.4,-5.95 21.4,-17.86l0 -499.2 130.97 0 0 492.54c0,34.3 -14.32,60.8 -42.8,79.66 -28.49,18.85 -65.06,28.2 -109.56,28.2 -41.39,0 -77.11,-8.51 -107.44,-25.37 -30.33,-16.86 -45.5,-44.08 -45.5,-81.64l0 -493.39z"/>
  <polygon id="_13" class="fil5" points="2601.04,2842.72 2345.06,2842.72 2345.06,2247.42 2599.34,2247.42 2599.34,2323.96 2476.03,2323.96 2476.03,2484.69 2587.29,2484.69 2587.29,2556.98 2476.03,2556.98 2476.03,2766.18 2601.04,2766.18 "/>
  <path id="_14" class="fil5" d="M2621.6 2604.04l119.06 0 0 136.64c0,13.61 8.22,20.41 24.66,20.41 15.88,0 23.81,-6.8 23.81,-20.27l0 -70.44c0,-21.54 -14.46,-46.91 -43.23,-75.97 -55.7,-53.86 -90.29,-90.14 -103.89,-108.57 -13.61,-18.57 -20.41,-38.84 -20.41,-61.09l0 -66.76c0,-77.11 50.6,-115.66 151.66,-115.66 90.57,0 135.79,35.15 135.79,105.45l0 103.04 -119.06 0 0 -109.14c0,-11.76 -6.66,-17.72 -19.99,-17.72 -15.59,0 -23.39,11.2 -23.39,33.59l2.55 38.7c0,22.11 14.74,47.77 44.22,77.11 54.71,52.3 89.58,88.73 104.46,109.42 14.88,20.83 22.25,44.22 22.25,70.58l0 75.83c0,79.09 -50.6,118.63 -151.94,118.63 -97.66,0 -146.56,-36 -146.56,-108.01l0 -135.79z"/>
  <g>
   <path id="_15" class="fil6" d="M895.8 1963.95l-130.26 0 -2.3 0 -1.5 -1.8c-7.62,-9.16 -13.28,-26.2 -16.93,-51.1 -3.56,-24.21 -5.35,-56.14 -5.35,-95.78l0 -0.85 0.02 -0.1 0.71 -35.72c0.26,-18.65 0.47,-33.86 0.63,-45.63 0.24,-18.47 0.35,-29.12 0.35,-30.25 0,-15.71 -10.02,-24.09 -30.06,-25.24l0 280.65 0 4.96 -4.96 0 -130.96 0 -4.96 0 0 -4.96 0 -595.3 0 -4.96 4.96 0 161.44 0c18.8,0 36.43,2.18 52.86,6.52 16.5,4.36 31.78,10.9 45.83,19.61 14.46,8.91 25.3,20.45 32.54,34.59 7.2,14.05 10.79,30.57 10.79,49.55l0 71.44c0,24.32 -7.14,44.75 -21.44,61.29 -11.45,13.26 -27.45,23.91 -48.01,31.96 20.56,7.01 36.58,17.52 48.06,31.49 14.26,17.36 21.38,39.85 21.38,67.46l-0.02 0.12 -1.7 65.09 0.02 0c0,93.67 7.32,146.4 21.96,158.15l10.96 8.81 -14.06 0zm0 -4.96l-130.26 0c-14.03,-16.87 -21.12,-64.77 -21.12,-143.72l0 -0.85 0.71 -35.72c0.71,-49.61 0.99,-74.84 0.99,-75.97 0,-20.27 -13.32,-30.33 -39.97,-30.33l0 285.74 -130.96 0 0 -595.3 161.44 0c36.85,0 68.88,8.51 96.1,25.37 27.36,16.87 40.96,43.51 40.96,79.94l0 71.44c0,46.21 -26.93,77.39 -80.93,93.69 54,12.76 80.93,45.64 80.93,98.51l-1.7 65.2c0,95.25 7.94,149.25 23.81,162.01zm-149.67 -390.49l0 -97.94c0,-20.83 -13.32,-31.18 -39.97,-31.18l0 160.73c26.65,0 39.97,-10.49 39.97,-31.61zm-4.96 0l0 -97.94c0,-16.23 -10.02,-24.9 -30.06,-26.08l0 150.54c9.7,-0.55 17.02,-2.77 21.96,-6.66 5.39,-4.26 8.1,-10.88 8.1,-19.85z"/>
  </g>
  <g>
   <path id="_16" class="fil6" d="M1170.35 1963.09l-255.98 0 -4.96 0 0 -4.96 0 -595.3 0 -4.96 4.96 0 254.28 0 4.96 0 0 4.96 0 76.54 0 4.96 -4.96 0 -118.36 0 0 150.82 106.31 0 4.96 0 0 4.96 0 72.29 0 4.96 -4.96 0 -106.31 0 0 199.29 120.06 0 4.96 0 0 4.96 0 76.54 0 4.96 -4.96 0zm0 -4.96l-255.98 0 0 -595.3 254.28 0 0 76.54 -123.31 0 0 160.73 111.26 0 0 72.29 -111.26 0 0 209.2 125.01 0 0 76.54z"/>
  </g>
  <g>
   <path id="_17" class="fil6" d="M1545.53 1963.09l-130.12 0 -4.3 0 -0.59 -4.3 -21.38 -155.58 -49.22 0 -21.66 155.6 -0.59 4.28 -4.3 0 -130.12 0 -5.82 0 0.94 -5.75 97.51 -595.3 0.68 -4.16 4.19 0 167.11 0 4.2 0 0.68 4.16 97.66 595.3 0.94 5.75 -5.82 0zm0 -4.96l-130.12 0 -21.97 -159.88 -57.83 0 -22.25 159.88 -130.12 0 97.51 -595.3 167.11 0 97.66 595.3zm-162.57 -242.37l-18.71 -177.74 -17.86 177.74 36.57 0zm-5.49 -4.96l-13.1 -124.49 -12.51 124.49 25.61 0z"/>
  </g>
  <g>
   <path id="_18" class="fil6" d="M1812.56 1963.09l-244.92 0 -4.96 0 0 -4.96 0 -595.3 0 -4.96 4.96 0 130.96 0 4.96 0 0 4.96 0 513.8 109 0 4.96 0 0 4.96 0 76.54 0 4.96 -4.96 0zm0 -4.96l-244.92 0 0 -595.3 130.96 0 0 518.76 113.96 0 0 76.54z"/>
  </g>
  <g>
   <path id="_19" class="fil6" d="M1962.23 1963.09l-130.97 0 -4.96 0 0 -4.96 0 -595.3 0 -4.96 4.96 0 130.97 0 4.96 0 0 4.96 0 595.3 0 4.96 -4.96 0zm0 -4.96l-130.97 0 0 -595.3 130.97 0 0 595.3z"/>
  </g>
  <g>
   <path id="_20" class="fil6" d="M2277.03 1963.09l-295.1 0 -4.96 0 0 -4.96 0 -75.69 0 -0.75 0.25 -0.78 141.61 -435.74 -128.12 0 -4.96 0 0 -4.96 0 -77.39 0 -4.96 4.96 0 276.11 0 4.96 0 0 4.96 0 78.24 0 0.75 -0.25 0.78 -141.05 434.04 146.55 0 4.96 0 0 4.96 0 76.54 0 4.96 -4.96 0zm0 -4.96l-295.1 0 0 -75.69 143.72 -442.22 -134.93 0 0 -77.39 276.11 0 0 78.24 -143.16 440.52 153.36 0 0 76.54z"/>
  </g>
  <g>
   <path id="_21" class="fil6" d="M2653.91 1963.09l-130.12 0 -4.3 0 -0.59 -4.3 -21.38 -155.58 -49.22 0 -21.66 155.6 -0.59 4.28 -4.3 0 -130.12 0 -5.82 0 0.94 -5.75 97.51 -595.3 0.68 -4.16 4.19 0 167.11 0 4.2 0 0.68 4.16 97.66 595.3 0.94 5.75 -5.82 0zm0 -4.96l-130.12 0 -21.97 -159.88 -57.83 0 -22.25 159.88 -130.12 0 97.51 -595.3 167.11 0 97.66 595.3zm-162.57 -242.37l-18.71 -177.74 -17.86 177.74 36.57 0zm-5.49 -4.96l-13.1 -124.49 -12.51 124.49 25.61 0z"/>
  </g>
  <g>
   <path id="_22" class="fil6" d="M2996.63 1963.95l-130.26 0 -2.3 0 -1.5 -1.8c-7.62,-9.16 -13.28,-26.2 -16.93,-51.1 -3.56,-24.21 -5.35,-56.14 -5.35,-95.78l0 -0.85 0.02 -0.1 0.71 -35.72c0.26,-18.65 0.47,-33.86 0.63,-45.63 0.24,-18.47 0.35,-29.12 0.35,-30.25 0,-15.71 -10.02,-24.09 -30.06,-25.24l0 280.65 0 4.96 -4.96 0 -130.96 0 -4.96 0 0 -4.96 0 -595.3 0 -4.96 4.96 0 161.44 0c18.8,0 36.43,2.18 52.86,6.52 16.5,4.36 31.78,10.9 45.83,19.61 14.46,8.91 25.3,20.45 32.54,34.59 7.2,14.05 10.79,30.57 10.79,49.55l0 71.44c0,24.32 -7.14,44.75 -21.44,61.29 -11.45,13.26 -27.45,23.91 -48.01,31.96 20.56,7.01 36.58,17.52 48.06,31.49 14.26,17.36 21.38,39.85 21.38,67.46l-0.02 0.12 -1.7 65.09 0.02 0c0,93.67 7.32,146.4 21.96,158.15l10.96 8.81 -14.06 0zm0 -4.96l-130.26 0c-14.03,-16.87 -21.12,-64.77 -21.12,-143.72l0 -0.85 0.71 -35.72c0.71,-49.61 0.99,-74.84 0.99,-75.97 0,-20.27 -13.32,-30.33 -39.97,-30.33l0 285.74 -130.96 0 0 -595.3 161.44 0c36.85,0 68.88,8.51 96.1,25.37 27.36,16.87 40.96,43.51 40.96,79.94l0 71.44c0,46.21 -26.93,77.39 -80.93,93.69 54,12.76 80.93,45.64 80.93,98.51l-1.7 65.2c0,95.25 7.94,149.25 23.81,162.01zm-149.67 -390.49l0 -97.94c0,-20.83 -13.32,-31.18 -39.97,-31.18l0 160.73c26.65,0 39.97,-10.49 39.97,-31.61zm-4.96 0l0 -97.94c0,-16.23 -10.02,-24.9 -30.06,-26.08l0 150.54c9.7,-0.55 17.02,-2.77 21.96,-6.66 5.39,-4.26 8.1,-10.88 8.1,-19.85z"/>
  </g>
  <g>
   <path id="_23" class="fil6" d="M994.45 2847.68l-130.12 0 -4.3 0 -0.59 -4.3 -21.38 -155.58 -49.22 0 -21.66 155.6 -0.59 4.28 -4.3 0 -130.12 0 -5.82 0 0.94 -5.75 97.51 -595.3 0.68 -4.16 4.19 0 167.11 0 4.2 0 0.68 4.16 97.66 595.3 0.94 5.75 -5.82 0zm0 -4.96l-130.12 0 -21.97 -159.88 -57.83 0 -22.25 159.88 -130.12 0 97.51 -595.3 167.11 0 97.66 595.3zm-162.57 -242.37l-18.71 -177.74 -17.86 177.74 36.57 0zm-5.49 -4.96l-13.1 -124.49 -12.51 124.49 25.61 0z"/>
  </g>
  <g>
   <path id="_24" class="fil6" d="M1287.84 2329.77l-68.18 0 0 512.95 0 4.96 -4.96 0 -130.97 0 -4.96 0 0 -4.96 0 -512.95 -68.18 0 -4.96 0 0 -4.96 0 -77.39 0 -4.96 4.95 0 277.24 0 4.96 0 0 4.96 0 77.39 0 4.96 -4.96 0zm0 -4.96l-73.14 0 0 517.91 -130.97 0 0 -517.91 -73.14 0 0 -77.39 277.24 0 0 77.39z"/>
  </g>
  <g>
   <path id="_25" class="fil6" d="M1666.43 2847.68l-130.12 0 -4.3 0 -0.59 -4.3 -21.38 -155.58 -49.22 0 -21.66 155.6 -0.59 4.28 -4.3 0 -130.12 0 -5.82 0 0.94 -5.75 97.51 -595.3 0.68 -4.16 4.19 0 167.11 0 4.2 0 0.68 4.16 97.66 595.3 0.94 5.75 -5.82 0zm0 -4.96l-130.12 0 -21.97 -159.88 -57.83 0 -22.25 159.88 -130.12 0 97.51 -595.3 167.11 0 97.66 595.3zm-162.57 -242.37l-18.71 -177.74 -17.86 177.74 36.57 0zm-5.49 -4.96l-13.1 -124.49 -12.51 124.49 25.61 0z"/>
  </g>
  <g>
   <path id="_26" class="fil6" d="M1984.48 2929.32l-51.88 0c-55,0 -83.27,-25.52 -84.96,-76.56 -54.02,-0.52 -94.92,-9.7 -122.68,-27.54 -29.29,-18.81 -43.94,-46.96 -43.94,-84.41l0 -382.83c0,-40.17 13.16,-70.39 39.48,-90.65 25.94,-19.97 64.51,-29.96 115.72,-29.96 102.09,0 153.21,39.92 153.21,119.76l0 382.84c0,21.78 -5.76,40.9 -17.3,57.4 -10.93,15.62 -26.99,28.76 -48.19,39.44 0.25,2.55 0.83,4.64 1.74,6.28 1.08,1.92 2.72,3.28 4.89,4.07l0.04 0c2.84,1.05 8.7,1.88 17.56,2.47 9.05,0.6 21.16,0.91 36.3,0.91l4.96 0 0 4.96 0 68.88 0 4.96 -4.96 0zm0 -4.96l-51.88 0c-53.43,0 -80.08,-25.51 -80.08,-76.54 -110.98,0 -166.54,-35.72 -166.54,-107.01l0 -382.83c0,-77.11 50.03,-115.66 150.24,-115.66 98.79,0 148.26,38.27 148.26,114.81l0 382.84c0,41.53 -21.83,72.71 -65.63,93.83 0,9.64 3.4,15.59 10.06,18 6.52,2.41 25.09,3.69 55.56,3.69l0 68.88zm-127.56 -177.74l0 -404.8c0,-11.91 -7.09,-17.86 -21.4,-17.86 -14.6,0 -21.97,5.95 -21.97,17.86l0 404.8c0,11.91 7.37,17.86 21.97,17.86 14.32,0 21.4,-5.95 21.4,-17.86zm-4.96 0l0 -404.8c0,-4.41 -1.18,-7.62 -3.55,-9.6 -2.63,-2.2 -6.93,-3.3 -12.89,-3.3 -6.15,0 -10.61,1.12 -13.35,3.35 -2.43,1.98 -3.66,5.16 -3.66,9.55l0 404.8c0,4.39 1.23,7.58 3.66,9.55 2.74,2.23 7.2,3.35 13.35,3.35 5.97,0 10.26,-1.1 12.89,-3.3 2.37,-1.98 3.55,-5.18 3.55,-9.6z"/>
  </g>
  <g>
   <path id="_27" class="fil6" d="M2011.56 2242.47l130.96 0 4.96 0 0 4.96 0 499.2c0,4.39 1.23,7.58 3.66,9.55 2.75,2.23 7.2,3.35 13.35,3.35 5.97,0 10.26,-1.1 12.89,-3.3 2.37,-1.98 3.55,-5.18 3.55,-9.6l0 -499.2 0 -4.96 4.96 0 130.97 0 4.96 0 0 4.96 0 492.54c0,17.97 -3.78,33.95 -11.32,47.96 -7.53,14 -18.78,25.94 -33.71,35.82 -14.67,9.7 -31.42,16.97 -50.22,21.81 -18.73,4.82 -39.44,7.23 -62.08,7.23 -21.06,0 -40.72,-2.17 -58.99,-6.5 -18.32,-4.34 -35.27,-10.85 -50.85,-19.51 -15.98,-8.89 -28,-20.55 -36.04,-34.98 -8.01,-14.37 -12.01,-31.37 -12.01,-50.98l0 -493.39 0 -4.96 4.96 0zm0 4.96l130.96 0 0 499.2c0,11.91 7.37,17.86 21.97,17.86 14.32,0 21.4,-5.95 21.4,-17.86l0 -499.2 130.97 0 0 492.54c0,34.3 -14.32,60.8 -42.8,79.66 -28.49,18.85 -65.06,28.2 -109.56,28.2 -41.39,0 -77.11,-8.51 -107.44,-25.37 -30.33,-16.86 -45.5,-44.08 -45.5,-81.64l0 -493.39z"/>
  </g>
  <g>
   <path id="_28" class="fil6" d="M2601.04 2847.68l-255.98 0 -4.96 0 0 -4.96 0 -595.3 0 -4.96 4.96 0 254.28 0 4.96 0 0 4.96 0 76.54 0 4.96 -4.96 0 -118.36 0 0 150.82 106.31 0 4.96 0 0 4.96 0 72.29 0 4.96 -4.96 0 -106.31 0 0 199.29 120.06 0 4.96 0 0 4.96 0 76.54 0 4.96 -4.96 0zm0 -4.96l-255.98 0 0 -595.3 254.28 0 0 76.54 -123.31 0 0 160.73 111.26 0 0 72.29 -111.26 0 0 209.2 125.01 0 0 76.54z"/>
  </g>
  <g>
   <path id="_29" class="fil6" d="M2621.6 2599.08l119.06 0 2.92 0c-0.37,-0.37 -0.73,-0.74 -1.1,-1.12 -27.5,-26.59 -49.99,-49.04 -67.44,-67.28 -17.72,-18.52 -30.04,-32.5 -36.99,-41.91l-0.02 -0.02c-7.11,-9.69 -12.44,-19.86 -16.01,-30.52 -3.58,-10.71 -5.37,-21.86 -5.37,-33.5l0 -66.76c0,-40.18 13.3,-70.41 39.89,-90.67 26.18,-19.96 65.09,-29.94 116.73,-29.94 46.41,0 81.38,9.14 104.9,27.41 23.9,18.56 35.84,46.23 35.84,83l0 103.04 0 4.96 -4.96 0 -119.06 0 -4.96 0 0 -4.96 0 -109.14c0,-8.47 -5.01,-12.76 -15.03,-12.76 -12.28,0 -18.43,9.54 -18.43,28.62l2.53 38.4 0.02 0.31c0,20.73 14.23,45.2 42.67,73.52 27.41,26.2 49.87,48.45 67.34,66.74 17.54,18.36 30.12,32.82 37.72,43.38l0.02 0.02c7.74,10.84 13.55,22.37 17.4,34.61 3.86,12.24 5.78,25.17 5.78,38.84l0 75.83c0,41.14 -13.29,72.1 -39.88,92.87 -26.23,20.48 -65.23,30.72 -117.02,30.72 -100.96,0 -151.51,-37.65 -151.51,-112.96l0 -135.79 0 -4.96 4.96 0zm0 4.96l119.06 0 0 136.64c0,13.61 8.22,20.41 24.66,20.41 15.88,0 23.81,-6.8 23.81,-20.27l0 -70.44c0,-21.54 -14.46,-46.91 -43.23,-75.97 -55.7,-53.86 -90.29,-90.14 -103.89,-108.57 -13.61,-18.57 -20.41,-38.84 -20.41,-61.09l0 -66.76c0,-77.11 50.6,-115.66 151.66,-115.66 90.57,0 135.79,35.15 135.79,105.45l0 103.04 -119.06 0 0 -109.14c0,-11.76 -6.66,-17.72 -19.99,-17.72 -15.59,0 -23.39,11.2 -23.39,33.59l2.55 38.7c0,22.11 14.74,47.77 44.22,77.11 54.71,52.3 89.58,88.73 104.46,109.42 14.88,20.83 22.25,44.22 22.25,70.58l0 75.83c0,79.09 -50.6,118.63 -151.94,118.63 -97.66,0 -146.56,-36 -146.56,-108.01l0 -135.79zm124.02 -2.86l0 2.86 0 136.64c0,5.25 1.46,9.09 4.36,11.49 3.19,2.64 8.31,3.96 15.34,3.96 6.73,0 11.62,-1.3 14.64,-3.89 2.81,-2.39 4.21,-6.21 4.21,-11.43l0 -70.44c0,-9.91 -3.39,-20.83 -10.16,-32.71 -6.45,-11.33 -15.93,-23.5 -28.4,-36.48z"/>
  </g>
  <path class="fil7" d="M5590.35 1970.24c59.3,6.21 132.73,28.8 178.47,53.09 45.75,24.29 63.82,50.27 81.9,72.3 18.07,22.03 36.14,40.1 52.53,61.57 16.38,21.46 31.06,46.31 46.3,65.48 15.23,19.17 31.02,32.66 72.05,47.69 41.03,15.04 107.31,31.63 147.42,26.58 40.11,-5.05 54.07,-31.74 49.75,-52.99 -4.32,-21.25 -26.91,-37.07 -44.88,-48.84 -17.97,-11.78 -31.31,-19.51 -44.3,-37.59 -12.99,-18.08 -25.63,-46.48 -27.99,-77.07 -2.37,-30.59 5.54,-63.34 36.61,-92.71 31.06,-29.37 85.29,-55.35 128.21,-79.63 42.92,-24.29 74.55,-46.88 104.49,-85.85 29.94,-38.97 58.17,-94.32 61.57,-149.11 3.39,-54.79 -18.08,-109.01 -51.4,-159.28 -33.32,-50.27 -78.51,-96.58 -97.71,-141.2 -19.2,-44.62 -12.43,-87.54 -2.26,-102.79 10.17,-15.25 23.72,-2.82 31.63,12.99 7.91,15.81 10.17,35.02 20.9,61.57 10.73,26.54 29.93,60.43 54.35,99.44 24.42,39.01 54.05,83.16 72.69,113.66 18.64,30.5 26.28,47.36 20.5,88.55 -5.78,41.19 -24.98,106.7 -47.01,153.58 -22.03,46.88 -46.88,75.12 -77.38,98.27 -30.5,23.16 -66.65,41.23 -96.58,59.31 -29.94,18.07 -53.66,36.14 -69.47,50.83 -15.82,14.68 -23.73,25.98 -18.64,49.14 5.08,23.16 23.16,58.17 56.48,103.36 33.32,45.18 81.9,100.54 93.19,154.19 11.3,53.66 -14.68,105.62 -79.63,143.46 -64.95,37.84 -168.88,61.56 -297.65,64.95 -128.77,3.39 -282.4,-13.56 -381.24,-27.68 -98.84,-14.12 -142.9,-25.42 -185.82,-53.66 -42.92,-28.24 -84.72,-73.43 -106.18,-119.17 -21.46,-45.75 -22.59,-92.06 -6.21,-142.89 16.38,-50.83 50.27,-106.18 82.46,-139.51 32.19,-33.32 62.69,-44.62 100.53,-55.35 37.84,-10.73 83.03,-20.9 142.33,-14.68z"/>
  <g style="clip-path:url(#id1)">
   <g id="_2304987628768">
    <path id="_1_1" class="fil8" d="M6055.32 2229.98c-19.11,-7.87 -46.62,-9.89 -71.33,-9.21 -24.71,0.67 -46.63,4.05 -66.86,10.51 -20.23,6.46 -38.78,16.02 -61.82,21.08 -23.04,5.06 -50.58,5.62 -102.85,5.06 -52.27,-0.56 -129.26,-2.25 -181.86,-4.46 -52.6,-2.21 -80.8,-4.96 -114.24,-1.58 -33.44,3.37 -72.12,12.85 -97.48,26.1 -25.36,13.24 -37.41,30.24 -18.02,49.63 19.39,19.39 70.22,41.17 140.03,54.86 69.81,13.7 158.61,19.32 265.11,17.92 106.5,-1.4 230.71,-9.84 301.52,-21.36 70.81,-11.52 88.24,-26.13 87.39,-45.52 -0.84,-19.39 -19.95,-43.56 -34.86,-62.5 -14.91,-18.94 -25.62,-32.66 -44.73,-40.52z"/>
   </g>
  </g>
  <path class="fil0 str1" d="M5590.35 1970.24c59.3,6.21 132.73,28.8 178.47,53.09 45.75,24.29 63.82,50.27 81.9,72.3 18.07,22.03 36.14,40.1 52.53,61.57 16.38,21.46 31.06,46.31 46.3,65.48 15.23,19.17 31.02,32.66 72.05,47.69 41.03,15.04 107.31,31.63 147.42,26.58 40.11,-5.05 54.07,-31.74 49.75,-52.99 -4.32,-21.25 -26.91,-37.07 -44.88,-48.84 -17.97,-11.78 -31.31,-19.51 -44.3,-37.59 -12.99,-18.08 -25.63,-46.48 -27.99,-77.07 -2.37,-30.59 5.54,-63.34 36.61,-92.71 31.06,-29.37 85.29,-55.35 128.21,-79.63 42.92,-24.29 74.55,-46.88 104.49,-85.85 29.94,-38.97 58.17,-94.32 61.57,-149.11 3.39,-54.79 -18.08,-109.01 -51.4,-159.28 -33.32,-50.27 -78.51,-96.58 -97.71,-141.2 -19.2,-44.62 -12.43,-87.54 -2.26,-102.79 10.17,-15.25 23.72,-2.82 31.63,12.99 7.91,15.81 10.17,35.02 20.9,61.57 10.73,26.54 29.93,60.43 54.35,99.44 24.42,39.01 54.05,83.16 72.69,113.66 18.64,30.5 26.28,47.36 20.5,88.55 -5.78,41.19 -24.98,106.7 -47.01,153.58 -22.03,46.88 -46.88,75.12 -77.38,98.27 -30.5,23.16 -66.65,41.23 -96.58,59.31 -29.94,18.07 -53.66,36.14 -69.47,50.83 -15.82,14.68 -23.73,25.98 -18.64,49.14 5.08,23.16 23.16,58.17 56.48,103.36 33.32,45.18 81.9,100.54 93.19,154.19 11.3,53.66 -14.68,105.62 -79.63,143.46 -64.95,37.84 -168.88,61.56 -297.65,64.95 -128.77,3.39 -282.4,-13.56 -381.24,-27.68 -98.84,-14.12 -142.9,-25.42 -185.82,-53.66 -42.92,-28.24 -84.72,-73.43 -106.18,-119.17 -21.46,-45.75 -22.59,-92.06 -6.21,-142.89 16.38,-50.83 50.27,-106.18 82.46,-139.51 32.19,-33.32 62.69,-44.62 100.53,-55.35 37.84,-10.73 83.03,-20.9 142.33,-14.68z"/>
  <path class="fil9" d="M6598.13 1978.27c-45.87,-16.19 -107.62,-26.26 -163.35,-18.74 -55.73,7.52 -105.45,32.66 -158.13,73.63 -52.69,40.98 -108.35,97.79 -147.42,134.71 -39.08,36.92 -61.56,53.92 -86.23,71.26 -24.67,17.33 -51.51,34.98 -96.56,53.43 -45.05,18.45 -108.29,37.7 -154.36,42.26 -46.07,4.56 -74.95,-5.56 -99.47,-8.11 -24.52,-2.55 -44.66,2.47 -58.17,13.02 -13.51,10.55 -20.39,26.63 -14.72,51.14 5.66,24.5 23.87,57.43 44.11,84.41 20.24,26.98 42.51,48.01 73.23,72.93 30.72,24.92 69.89,53.73 115.5,75.09 45.61,21.36 97.65,35.27 144.28,45 46.63,9.73 87.86,15.3 145.22,9.59 57.37,-5.71 130.88,-22.71 196.7,-50.04 65.82,-27.33 123.96,-65 173.71,-99.21 49.74,-34.21 91.1,-64.96 126.86,-96.42 35.77,-31.46 65.95,-63.65 88.55,-99.67 22.6,-36.03 37.61,-75.91 42.74,-108.51 5.13,-32.6 0.37,-57.92 -12.39,-87.54 -12.75,-29.62 -33.5,-63.55 -58.87,-91.65 -25.37,-28.11 -55.36,-50.4 -101.23,-66.58z"/>
  <g style="clip-path:url(#id2)">
   <g id="_2304987627232">
    <path id="_1_2" class="fil2" d="M6790.92 1961.24c-72.61,59.9 -178.48,177.39 -257.8,269.73 -79.33,92.34 -132.09,159.52 -176.01,225.16 -43.92,65.64 -78.99,129.74 -110.48,191.91 -31.49,62.17 -59.42,122.41 -87.25,194.37 -27.84,71.96 -55.58,155.62 -56.57,211.49 -1,55.87 24.74,83.95 71.49,92.41 46.75,8.45 114.5,-2.72 220.3,-75.9 105.79,-73.18 249.62,-208.37 366.87,-363.35 117.25,-154.98 207.92,-329.75 255.89,-457.99 47.98,-128.23 53.26,-209.93 33.62,-260.9 -19.64,-50.96 -64.21,-71.2 -106.16,-80.17 -41.96,-8.96 -81.29,-6.66 -153.89,53.24z"/>
   </g>
  </g>
  <path class="fil0 str2" d="M6598.13 1978.27c-45.87,-16.19 -107.62,-26.26 -163.35,-18.74 -55.73,7.52 -105.45,32.66 -158.13,73.63 -52.69,40.98 -108.35,97.79 -147.42,134.71 -39.08,36.92 -61.56,53.92 -86.23,71.26 -24.67,17.33 -51.51,34.98 -96.56,53.43 -45.05,18.45 -108.29,37.7 -154.36,42.26 -46.07,4.56 -74.95,-5.56 -99.47,-8.11 -24.52,-2.55 -44.66,2.47 -58.17,13.02 -13.51,10.55 -20.39,26.63 -14.72,51.14 5.66,24.5 23.87,57.43 44.11,84.41 20.24,26.98 42.51,48.01 73.23,72.93 30.72,24.92 69.89,53.73 115.5,75.09 45.61,21.36 97.65,35.27 144.28,45 46.63,9.73 87.86,15.3 145.22,9.59 57.37,-5.71 130.88,-22.71 196.7,-50.04 65.82,-27.33 123.96,-65 173.71,-99.21 49.74,-34.21 91.1,-64.96 126.86,-96.42 35.77,-31.46 65.95,-63.65 88.55,-99.67 22.6,-36.03 37.61,-75.91 42.74,-108.51 5.13,-32.6 0.37,-57.92 -12.39,-87.54 -12.75,-29.62 -33.5,-63.55 -58.87,-91.65 -25.37,-28.11 -55.36,-50.4 -101.23,-66.58z"/>
  <path class="fil9" d="M4906.46 1984.39c45.87,-16.19 107.62,-26.26 163.35,-18.74 55.73,7.52 105.45,32.66 158.13,73.63 52.69,40.98 108.35,97.79 147.42,134.71 39.08,36.92 61.56,53.92 86.23,71.26 24.67,17.33 51.51,34.98 96.56,53.43 45.05,18.45 108.29,37.7 154.36,42.26 46.07,4.56 74.95,-5.56 99.47,-8.11 24.52,-2.55 44.66,2.47 58.17,13.02 13.51,10.55 20.39,26.63 14.72,51.14 -5.66,24.5 -23.87,57.43 -44.11,84.41 -20.24,26.98 -42.51,48.01 -73.23,72.93 -30.72,24.92 -69.89,53.73 -115.5,75.09 -45.61,21.36 -97.65,35.27 -144.28,45 -46.63,9.73 -87.86,15.3 -145.22,9.59 -57.37,-5.71 -130.88,-22.71 -196.7,-50.04 -65.82,-27.33 -123.96,-65 -173.71,-99.21 -49.74,-34.21 -91.1,-64.96 -126.86,-96.42 -35.77,-31.46 -65.95,-63.65 -88.55,-99.67 -22.6,-36.03 -37.61,-75.91 -42.74,-108.51 -5.13,-32.6 -0.37,-57.92 12.39,-87.54 12.75,-29.62 33.5,-63.55 58.87,-91.65 25.37,-28.11 55.36,-50.4 101.23,-66.58z"/>
  <g style="clip-path:url(#id3)">
   <g id="_2304987628336">
    <path id="_1_3" class="fil2" d="M4713.68 1967.36c72.61,59.9 178.48,177.39 257.8,269.73 79.33,92.34 132.09,159.53 176.01,225.16 43.92,65.64 78.99,129.74 110.48,191.91 31.49,62.17 59.42,122.41 87.25,194.37 27.83,71.96 55.58,155.62 56.57,211.49 1,55.87 -24.74,83.95 -71.49,92.41 -46.75,8.45 -114.5,-2.72 -220.29,-75.9 -105.79,-73.18 -249.62,-208.37 -366.87,-363.35 -117.25,-154.98 -207.92,-329.75 -255.89,-457.99 -47.98,-128.23 -53.26,-209.93 -33.62,-260.9 19.64,-50.97 64.21,-71.2 106.16,-80.16 41.96,-8.97 81.29,-6.66 153.89,53.24z"/>
   </g>
  </g>
  <path class="fil0 str2" d="M4906.46 1984.39c45.87,-16.19 107.62,-26.26 163.35,-18.74 55.73,7.52 105.45,32.66 158.13,73.63 52.69,40.98 108.35,97.79 147.42,134.71 39.08,36.92 61.56,53.92 86.23,71.26 24.67,17.33 51.51,34.98 96.56,53.43 45.05,18.45 108.29,37.7 154.36,42.26 46.07,4.56 74.95,-5.56 99.47,-8.11 24.52,-2.55 44.66,2.47 58.17,13.02 13.51,10.55 20.39,26.63 14.72,51.14 -5.66,24.5 -23.87,57.43 -44.11,84.41 -20.24,26.98 -42.51,48.01 -73.23,72.93 -30.72,24.92 -69.89,53.73 -115.5,75.09 -45.61,21.36 -97.65,35.27 -144.28,45 -46.63,9.73 -87.86,15.3 -145.22,9.59 -57.37,-5.71 -130.88,-22.71 -196.7,-50.04 -65.82,-27.33 -123.96,-65 -173.71,-99.21 -49.74,-34.21 -91.1,-64.96 -126.86,-96.42 -35.77,-31.46 -65.95,-63.65 -88.55,-99.67 -22.6,-36.03 -37.61,-75.91 -42.74,-108.51 -5.13,-32.6 -0.37,-57.92 12.39,-87.54 12.75,-29.62 33.5,-63.55 58.87,-91.65 25.37,-28.11 55.36,-50.4 101.23,-66.58z"/>
  <path class="fil7" d="M5351.97 1632.29c127.32,-11.93 245.03,64.18 272.98,182.98 3.15,13.39 5.02,26.8 5.72,40.13 9.44,1.26 18.43,1.81 24.69,2.8 6.34,1.01 9.9,2.46 10.76,4.2 0.87,1.74 -0.95,3.77 -4.48,5.29 -3.54,1.52 -8.8,2.53 -12.48,3.4 -3.69,0.87 -5.81,1.6 -6.34,2.75 -0.53,1.15 0.53,2.74 3.01,3.53 2.48,0.79 6.37,0.79 10.04,1.3 3.67,0.51 7.12,1.53 8.05,2.57 0.93,1.04 -0.65,2.1 -3.45,3.33 -2.8,1.23 -6.82,2.64 -10.46,3.26 -3.63,0.63 -6.88,0.47 -6.3,1.48 0.58,1.01 4.99,3.18 9.37,4.78 4.39,1.6 8.75,2.64 11.87,4.19 3.11,1.56 4.98,3.64 4.19,5.66 -0.79,2.02 -4.22,3.97 -10.78,4.83 -6.56,0.85 -16.23,0.61 -27.29,-2.05 -1.11,-0.27 -2.24,-0.56 -3.38,-0.88 -16.61,96.86 -94.66,181.05 -203.13,206.58 -106.89,25.16 -212.73,-13.86 -271.36,-90.88l-0.25 0.25c-3.06,3.06 -6.54,6.11 -10.58,8.38 -4.04,2.27 -8.63,3.77 -12.11,4.17 -3.48,0.4 -5.84,-0.28 -6.98,-1.04 -1.14,-0.76 -1.06,-1.61 0.55,-3.22 1.61,-1.62 4.76,-4.01 7.66,-7.16 2.9,-3.16 5.54,-7.08 7.14,-10.29 1.6,-3.22 2.14,-5.73 1.64,-5.82 -0.5,-0.09 -2.05,2.25 -5.14,4.93 -3.1,2.68 -7.74,5.7 -11.74,7.12 -3.99,1.42 -7.33,1.24 -7.86,0.13 -0.54,-1.11 1.73,-3.16 3.73,-5.14 2,-1.98 3.75,-3.91 5.05,-6.27 1.3,-2.37 2.15,-5.18 1.33,-5.51 -0.82,-0.33 -3.31,1.8 -7.02,3.45 -3.71,1.65 -8.65,2.81 -11.09,1.3 -2.44,-1.51 -2.38,-5.69 1.32,-10.88 3.71,-5.19 11.06,-11.39 16.17,-20.67l0.49 -0.91c-5.33,-12.27 -9.65,-25.13 -12.81,-38.55 -27.02,-114.8 38.77,-231.31 150.88,-280.62 -0.67,-2.39 -1.31,-4.64 -1.87,-6.88 -2.13,-8.55 -2.98,-17.05 -3.51,-23.69 -0.53,-6.63 -0.74,-11.39 -0.19,-15.41 0.54,-4.02 1.83,-7.31 3.8,-9.14 1.97,-1.84 4.63,-2.23 5.72,-0.54 1.08,1.69 0.6,5.47 3.05,10.51 2.44,5.04 7.82,11.33 11.61,15.25 3.78,3.92 5.98,5.47 7.35,5.95 1.37,0.48 1.92,-0.11 1.25,-2.47 -0.67,-2.36 -2.56,-6.5 -4.48,-10.28 -1.92,-3.78 -3.87,-7.22 -4.53,-10.5 -0.66,-3.28 -0.02,-6.41 0.57,-8.27 0.59,-1.86 1.14,-2.45 3.29,-1.12 2.14,1.33 5.89,4.57 8.73,8.37 2.84,3.8 4.78,8.15 6.68,11.37 1.9,3.22 3.77,5.3 5.9,7.09 2.14,1.79 4.55,3.28 5.17,1.99 0.61,-1.29 -0.58,-5.36 -1.48,-8.7 -0.9,-3.34 -1.51,-5.95 -1.39,-9.3 0.13,-3.35 1,-7.45 2.02,-8.95 1.02,-1.5 2.2,-0.4 3.47,3.54 1.27,3.94 2.64,10.72 6.53,15.07 3.89,4.36 10.3,6.28 11.87,6.14 1.57,-0.14 -1.7,-2.35 -3.25,-5.54 -1.55,-3.19 -1.39,-7.35 -0.62,-11.88 0.76,-4.53 2.13,-9.44 3.2,-10.72 1.07,-1.28 1.85,1.05 2.5,2.85 0.65,1.79 1.18,3.04 3.89,5.84 2.72,2.8 7.64,7.14 10.32,10.74 2.68,3.61 3.13,6.48 3.05,10.05 -0.04,1.75 -0.2,3.67 -0.25,5.73z"/>
  <g style="clip-path:url(#id4)">
   <g id="_2304987632272">
    <path id="_1_4" class="fil10" d="M5307.68 2127.35c-18.53,-7.27 -40.46,-18.43 -56.36,-28.35 -15.91,-9.92 -25.8,-18.59 -35.35,-32.91 -9.56,-14.32 -18.78,-34.31 -25.41,-50.75 -6.63,-16.45 -10.65,-29.35 -5.54,-40.21 5.11,-10.85 19.38,-19.65 34.83,-26.5 15.46,-6.86 32.11,-11.76 39.04,-22.3 6.92,-10.54 4.11,-26.7 -2.83,-44.61 -6.94,-17.91 -18,-37.57 -23.36,-55.11 -5.37,-17.54 -5.04,-32.96 -9.35,-43.28 -4.32,-10.33 -13.29,-15.56 -6.77,-25.31 6.51,-9.76 28.5,-24.05 49.82,-35.04 21.32,-10.99 41.96,-18.7 60.13,-23.9 18.17,-5.21 33.86,-7.91 46.68,-9.08 12.82,-1.18 22.78,-0.81 35.51,-0.34 12.73,0.47 28.22,1.04 37.27,4.73 9.05,3.7 11.64,10.51 18.6,34.84 6.97,24.34 18.3,66.2 20.92,90.15 2.62,23.95 -3.49,29.98 -5.93,37.48 -2.44,7.5 -1.22,16.47 6.82,20.94 8.03,4.47 22.87,4.44 34.74,3.38 11.87,-1.06 20.78,-3.16 30.44,-0.98 9.67,2.18 20.09,8.63 27.07,15.15 6.98,6.53 10.5,13.12 12.91,26.73 2.4,13.62 3.68,34.27 2.36,50.99 -1.32,16.72 -5.23,29.52 -12,41.75 -6.77,12.23 -16.4,23.89 -25.71,34.75 -9.32,10.85 -18.34,20.89 -28.28,30.16 -9.95,9.27 -20.81,17.76 -34.4,26.23 -13.6,8.47 -29.94,16.92 -42.26,25.51 -12.33,8.59 -20.65,17.32 -35.77,18.99 -15.13,1.67 -37.06,-3.73 -55.6,-8.1 -18.54,-4.38 -33.68,-7.74 -52.21,-15.01z"/>
    <path class="fil11" d="M5555.35 1810.59c2.08,-13.55 4.61,-35.91 1.03,-54.53 -3.59,-18.63 -13.28,-33.53 -22.47,-45.34 -9.2,-11.81 -17.89,-20.53 -27.71,-26.24 -9.82,-5.71 -20.76,-8.4 -31.14,-9.62 -10.37,-1.23 -20.16,-0.99 -30.05,2.26 -9.88,3.24 -19.88,9.48 -30.3,16.75 -10.43,7.27 -21.31,15.56 -31.5,22.88 -10.19,7.33 -19.69,13.68 -33.97,17.73 -14.28,4.05 -33.35,5.79 -50.63,5.84 -17.28,0.06 -32.78,-1.56 -46.49,-2.35 -13.7,-0.79 -25.6,-0.73 -38.14,0.5 -12.53,1.24 -25.72,3.65 -35.89,7.55 -10.2,3.89 -17.4,9.27 -23.18,27.01 -5.79,17.74 -10.17,47.85 -5.62,72.55 4.54,24.7 18.02,43.98 32.01,54.32 14,10.33 28.53,11.72 45.2,9.06 16.67,-2.67 35.48,-9.38 52.25,-17.45 16.77,-8.07 31.5,-17.5 43.57,-25.61 12.07,-8.11 21.46,-14.9 28.94,-19.64 7.47,-4.74 13.03,-7.42 21.02,-8.5 7.99,-1.08 18.42,-0.55 29.81,1.58 11.39,2.13 23.72,5.87 34.52,9.4 10.79,3.53 20.05,6.85 31.55,8.5 11.5,1.65 25.24,1.62 35.59,0.33 10.35,-1.29 17.31,-3.85 24.46,-8.04 7.14,-4.2 14.47,-10.05 18.95,-15.34 4.48,-5.3 6.12,-10.03 8.2,-23.58z"/>
    <ellipse class="fil6" transform="matrix(0.689515 -0.162272 0.162272 0.689515 5264.08 1793.68)" rx="31.17" ry="28.33"/>
    <ellipse class="fil6" transform="matrix(0.689515 -0.162272 0.162272 0.689515 5460.02 1747.75)" rx="31.17" ry="28.33"/>
    <path class="fil11 str3" d="M5255.96 1773.39c2.98,4.43 16.29,9.83 25.83,11.03 9.53,1.2 15.28,-1.8 15.95,-5.37 0.67,-3.57 -3.75,-7.69 -9.6,-10.62 -5.86,-2.92 -13.15,-4.65 -20.47,-3.78 -7.33,0.87 -14.69,4.32 -11.71,8.75z"/>
    <path class="fil11 str3" d="M5461.43 1719.71c-5.23,-1.06 -18.51,4.44 -26.13,10.27 -7.63,5.84 -9.62,12.01 -7.6,15.02 2.02,3.01 8.07,2.85 14.29,0.83 6.22,-2.03 12.62,-5.91 17.24,-11.67 4.61,-5.76 7.43,-13.38 2.21,-14.45z"/>
    <path class="fil11" d="M5244.98 1966.39c14.27,1.24 35.95,2.75 60.08,0.56 24.13,-2.18 50.69,-8.07 71.43,-13.68 20.75,-5.62 35.67,-10.97 51.46,-16.52 15.8,-5.56 32.46,-11.32 45.34,-16.75 12.88,-5.41 21.98,-10.5 30.42,-14.51 8.43,-4.01 16.2,-6.94 22.39,-8.77 6.19,-1.82 10.81,-2.54 14.26,-1.15 3.45,1.39 5.75,4.9 8.44,11.62 2.68,6.72 5.76,16.66 6.88,26.88 1.12,10.22 0.28,20.71 -4.65,31.8 -4.93,11.09 -13.95,22.78 -21.84,31.43 -7.89,8.67 -14.66,14.3 -30.92,22.54 -16.27,8.24 -42.03,19.09 -64.75,25.72 -22.72,6.63 -42.37,9.05 -60.62,10.4 -18.26,1.36 -35.11,1.64 -50.63,0.52 -15.53,-1.12 -29.74,-3.67 -43.16,-9.15 -13.43,-5.48 -26.07,-13.9 -36.16,-22.38 -10.09,-8.47 -17.61,-17 -21.87,-25.74 -4.27,-8.74 -5.27,-17.7 -5.4,-23.74 -0.14,-6.04 0.6,-9.15 4.39,-10.23 3.79,-1.07 10.64,-0.11 24.9,1.13z"/>
   </g>
   <g style="clip-path:url(#id5)">
    <g>
     <path id="_1_5" class="fil6" d="M5201.5 1973.86c16.05,7.25 43.83,14.32 67.75,17.52 23.92,3.19 43.98,2.52 69.63,-2.6 25.64,-5.12 56.86,-14.67 87.62,-25.41 30.76,-10.73 61.05,-22.64 78.84,-30.69 17.78,-8.05 23.05,-12.23 31.1,-20.19 8.06,-7.96 18.9,-19.71 26.32,-28.81 7.42,-9.1 11.42,-15.56 7.05,-20.05 -4.36,-4.49 -17.09,-7.01 -43.16,-2.9 -26.07,4.11 -65.47,14.86 -103.24,24.66 -37.78,9.81 -73.94,18.69 -105.89,25.11 -31.96,6.42 -59.72,10.37 -82.47,16.84 -22.75,6.46 -40.51,15.42 -47.22,23.61 -6.72,8.2 -2.39,15.64 13.66,22.9z"/>
     <path class="fil12" d="M5292.91 2066.91c1.49,-10.83 17.87,-27.19 37.13,-40.95 19.26,-13.76 41.39,-24.91 63.62,-31.24 22.23,-6.34 44.56,-7.85 63.24,-8.73 18.68,-0.87 33.7,-1.1 49.08,0.99 15.39,2.08 31.13,6.47 40.24,10.02 9.11,3.56 11.59,6.28 8.73,12.84 -2.87,6.56 -11.09,16.95 -34.28,29.4 -23.18,12.44 -61.33,26.94 -97.57,35.47 -36.24,8.53 -70.58,11.09 -94.44,9.72 -23.86,-1.38 -37.24,-6.68 -35.75,-17.52z"/>
    </g>
   </g>
   <g style="clip-path:url(#id6)">
    <path class="fil0 str3" d="M5244.98 1966.39c14.27,1.24 35.95,2.75 60.08,0.56 24.13,-2.18 50.69,-8.07 71.43,-13.68 20.75,-5.62 35.67,-10.97 51.46,-16.52 15.8,-5.56 32.46,-11.32 45.34,-16.75 12.88,-5.41 21.98,-10.5 30.42,-14.51 8.43,-4.01 16.2,-6.94 22.39,-8.77 6.19,-1.82 10.81,-2.54 14.26,-1.15 3.45,1.39 5.75,4.9 8.44,11.62 2.68,6.72 5.76,16.66 6.88,26.88 1.12,10.22 0.28,20.71 -4.65,31.8 -4.93,11.09 -13.95,22.78 -21.84,31.43 -7.89,8.67 -14.66,14.3 -30.92,22.54 -16.27,8.24 -42.03,19.09 -64.75,25.72 -22.72,6.63 -42.37,9.05 -60.62,10.4 -18.26,1.36 -35.11,1.64 -50.63,0.52 -15.53,-1.12 -29.74,-3.67 -43.16,-9.15 -13.43,-5.48 -26.07,-13.9 -36.16,-22.38 -10.09,-8.47 -17.61,-17 -21.87,-25.74 -4.27,-8.74 -5.27,-17.7 -5.4,-23.74 -0.14,-6.04 0.6,-9.15 4.39,-10.23 3.79,-1.07 10.64,-0.11 24.9,1.13z"/>
   </g>
  </g>
  <path class="fil0 str1" d="M5351.97 1632.29c127.32,-11.93 245.03,64.18 272.98,182.98 3.15,13.39 5.02,26.8 5.72,40.13 9.44,1.26 18.43,1.81 24.69,2.8 6.34,1.01 9.9,2.46 10.76,4.2 0.87,1.74 -0.95,3.77 -4.48,5.29 -3.54,1.52 -8.8,2.53 -12.48,3.4 -3.69,0.87 -5.81,1.6 -6.34,2.75 -0.53,1.15 0.53,2.74 3.01,3.53 2.48,0.79 6.37,0.79 10.04,1.3 3.67,0.51 7.12,1.53 8.05,2.57 0.93,1.04 -0.65,2.1 -3.45,3.33 -2.8,1.23 -6.82,2.64 -10.46,3.26 -3.63,0.63 -6.88,0.47 -6.3,1.48 0.58,1.01 4.99,3.18 9.37,4.78 4.39,1.6 8.75,2.64 11.87,4.19 3.11,1.56 4.98,3.64 4.19,5.66 -0.79,2.02 -4.22,3.97 -10.78,4.83 -6.56,0.85 -16.23,0.61 -27.29,-2.05 -1.11,-0.27 -2.24,-0.56 -3.38,-0.88 -16.61,96.86 -94.66,181.05 -203.13,206.58 -106.89,25.16 -212.73,-13.86 -271.36,-90.88l-0.25 0.25c-3.06,3.06 -6.54,6.11 -10.58,8.38 -4.04,2.27 -8.63,3.77 -12.11,4.17 -3.48,0.4 -5.84,-0.28 -6.98,-1.04 -1.14,-0.76 -1.06,-1.61 0.55,-3.22 1.61,-1.62 4.76,-4.01 7.66,-7.16 2.9,-3.16 5.54,-7.08 7.14,-10.29 1.6,-3.22 2.14,-5.73 1.64,-5.82 -0.5,-0.09 -2.05,2.25 -5.14,4.93 -3.1,2.68 -7.74,5.7 -11.74,7.12 -3.99,1.42 -7.33,1.24 -7.86,0.13 -0.54,-1.11 1.73,-3.16 3.73,-5.14 2,-1.98 3.75,-3.91 5.05,-6.27 1.3,-2.37 2.15,-5.18 1.33,-5.51 -0.82,-0.33 -3.31,1.8 -7.02,3.45 -3.71,1.65 -8.65,2.81 -11.09,1.3 -2.44,-1.51 -2.38,-5.69 1.32,-10.88 3.71,-5.19 11.06,-11.39 16.17,-20.67l0.49 -0.91c-5.33,-12.27 -9.65,-25.13 -12.81,-38.55 -27.02,-114.8 38.77,-231.31 150.88,-280.62 -0.67,-2.39 -1.31,-4.64 -1.87,-6.88 -2.13,-8.55 -2.98,-17.05 -3.51,-23.69 -0.53,-6.63 -0.74,-11.39 -0.19,-15.41 0.54,-4.02 1.83,-7.31 3.8,-9.14 1.97,-1.84 4.63,-2.23 5.72,-0.54 1.08,1.69 0.6,5.47 3.05,10.51 2.44,5.04 7.82,11.33 11.61,15.25 3.78,3.92 5.98,5.47 7.35,5.95 1.37,0.48 1.92,-0.11 1.25,-2.47 -0.67,-2.36 -2.56,-6.5 -4.48,-10.28 -1.92,-3.78 -3.87,-7.22 -4.53,-10.5 -0.66,-3.28 -0.02,-6.41 0.57,-8.27 0.59,-1.86 1.14,-2.45 3.29,-1.12 2.14,1.33 5.89,4.57 8.73,8.37 2.84,3.8 4.78,8.15 6.68,11.37 1.9,3.22 3.77,5.3 5.9,7.09 2.14,1.79 4.55,3.28 5.17,1.99 0.61,-1.29 -0.58,-5.36 -1.48,-8.7 -0.9,-3.34 -1.51,-5.95 -1.39,-9.3 0.13,-3.35 1,-7.45 2.02,-8.95 1.02,-1.5 2.2,-0.4 3.47,3.54 1.27,3.94 2.64,10.72 6.53,15.07 3.89,4.36 10.3,6.28 11.87,6.14 1.57,-0.14 -1.7,-2.35 -3.25,-5.54 -1.55,-3.19 -1.39,-7.35 -0.62,-11.88 0.76,-4.53 2.13,-9.44 3.2,-10.72 1.07,-1.28 1.85,1.05 2.5,2.85 0.65,1.79 1.18,3.04 3.89,5.84 2.72,2.8 7.64,7.14 10.32,10.74 2.68,3.61 3.13,6.48 3.05,10.05 -0.04,1.75 -0.2,3.67 -0.25,5.73z"/>
  <path class="fil13 str1" d="M6124.36 1546.49c-7.88,5.43 -17.44,13.08 -19.13,8.08 -1.69,-5 4.48,-22.65 11.76,-61.24 7.29,-38.6 15.69,-98.15 24.15,-146.39 8.46,-48.24 16.98,-85.16 33.07,-116.87 16.09,-31.71 39.76,-58.22 55.04,-74.4 15.28,-16.18 22.18,-22.05 19.81,-7.38 -2.37,14.67 -14,49.88 -26.44,95.42 -12.44,45.53 -25.7,101.38 -38.83,151.59 -13.14,50.21 -26.16,94.76 -35.77,118.65 -9.61,23.89 -15.8,27.11 -23.67,32.54z"/>
  <path class="fil14 str1" d="M6056.45 1654.59c-1.32,17.47 7.97,17.29 19.33,18.83 11.35,1.55 24.77,4.82 34.93,-10.97 10.17,-15.8 17.08,-50.67 23.64,-77.04 6.55,-26.36 12.75,-44.21 10.74,-57.47 -2.01,-13.26 -12.24,-21.92 -20.56,-26.29 -8.33,-4.37 -14.75,-4.45 -21.58,7.14 -6.83,11.59 -14.06,34.84 -23.64,64.03 -9.59,29.19 -21.52,64.3 -22.84,81.77z"/>
  <path class="fil7" d="M5637.81 2134.46c-17.38,10.76 -28.97,19.04 -28.15,35.6 0.83,16.56 14.07,41.39 47.18,39.74 33.11,-1.66 86.09,-29.8 140.72,-69.54 54.63,-39.74 110.92,-91.06 156.45,-141.55 45.53,-50.49 80.29,-100.16 107.61,-144.03 27.32,-43.87 47.18,-81.95 59.6,-111.75 12.42,-29.8 17.38,-51.32 22.35,-68.71 4.97,-17.38 9.93,-30.63 10.76,-43.87 0.83,-13.25 -2.48,-26.49 -8.28,-37.25 -5.8,-10.76 -14.07,-19.04 -28.15,-23.18 -14.07,-4.14 -33.94,-4.14 -47.18,0.83 -13.25,4.96 -19.87,14.9 -19.87,27.32 0,12.42 6.62,27.32 9.93,37.25 3.31,9.93 3.31,14.9 -7.95,33.91 -11.26,19.01 -33.77,52.08 -59.1,89.3 -25.33,37.22 -53.47,78.61 -83.89,128.65 -30.42,50.04 -63.12,108.72 -98.22,145.17 -35.1,36.45 -72.6,50.66 -102.94,64.39 -30.34,13.73 -53.52,26.97 -70.9,37.73z"/>
  <g style="clip-path:url(#id7)">
   <g id="_2304987645760">
    <path id="_1_6" class="fil15" d="M6035.93 1600.63c9.1,9.65 24.48,41.22 33.21,60.11 8.74,18.89 10.84,25.09 9.29,31.98 -1.55,6.88 -6.74,14.44 -19.26,28.61 -12.51,14.17 -32.35,34.95 -55.01,63.75 -22.67,28.81 -48.17,65.64 -66.11,91.85 -17.95,26.21 -28.33,41.79 -36.6,54.07 -8.27,12.28 -14.4,21.25 -21.8,28.28 -7.4,7.03 -16.06,12.12 -25.74,16.84 -9.68,4.72 -20.38,9.08 -27.86,3.23 -7.47,-5.85 -11.73,-21.91 -1.81,-55.43 9.92,-33.53 34,-84.53 58.56,-125.14 24.55,-40.61 49.58,-70.84 72.72,-99.64 23.14,-28.81 44.39,-56.2 56.43,-76.03 12.04,-19.83 14.87,-32.11 23.98,-22.46z"/>
   </g>
  </g>
  <path class="fil0 str1" d="M5637.81 2134.46c-17.38,10.76 -28.97,19.04 -28.15,35.6 0.83,16.56 14.07,41.39 47.18,39.74 33.11,-1.66 86.09,-29.8 140.72,-69.54 54.63,-39.74 110.92,-91.06 156.45,-141.55 45.53,-50.49 80.29,-100.16 107.61,-144.03 27.32,-43.87 47.18,-81.95 59.6,-111.75 12.42,-29.8 17.38,-51.32 22.35,-68.71 4.97,-17.38 9.93,-30.63 10.76,-43.87 0.83,-13.25 -2.48,-26.49 -8.28,-37.25 -5.8,-10.76 -14.07,-19.04 -28.15,-23.18 -14.07,-4.14 -33.94,-4.14 -47.18,0.83 -13.25,4.96 -19.87,14.9 -19.87,27.32 0,12.42 6.62,27.32 9.93,37.25 3.31,9.93 3.31,14.9 -7.95,33.91 -11.26,19.01 -33.77,52.08 -59.1,89.3 -25.33,37.22 -53.47,78.61 -83.89,128.65 -30.42,50.04 -63.12,108.72 -98.22,145.17 -35.1,36.45 -72.6,50.66 -102.94,64.39 -30.34,13.73 -53.52,26.97 -70.9,37.73z"/>
  <path class="fil7" d="M5638.15 2073.87c16.48,-6.93 33.28,-2.5 48.31,1.35 15.02,3.85 28.27,7.11 37.32,14.04 9.05,6.93 13.9,17.54 23.48,26.23 9.58,8.69 23.9,15.46 30.04,24.61 6.14,9.15 4.11,20.68 -1.76,33.93 -5.86,13.25 -15.56,28.22 -25.9,38.21 -10.34,9.98 -21.33,14.97 -35.22,18.3 -13.89,3.33 -30.7,5 -51.38,4.16 -20.68,-0.83 -45.24,-4.16 -60.43,-13.59 -15.19,-9.43 -21.01,-24.96 -21.65,-43.26 -0.65,-18.3 3.88,-39.38 14.22,-59.07 10.34,-19.69 26.5,-37.99 42.98,-44.92z"/>
 </g>
</svg>
